<svg width="78" height="78" viewBox="0 0 78 78" text-anchor="middle" style="font: 32px sans-serif; display: block" xmlns="http://www.w3.org/2000/svg">
<path d="M 39 16 L 39 0 A 39 39 0 0 1 77.77932230658206 34.85703470419715 L 61.86985674490737 36.55671277427011 A 23 23 0 0 0 39 16" fill="#07B2EA"></path>
<path d="M 61.86985674490737 36.55671277427011 L 77.77932230658206 34.85703470419715 A 39 39 0 0 1 52.657934680019125 75.53027265537901 L 47.05467942667794 60.54349413009531 A 23 23 0 0 0 61.86985674490737 36.55671277427011" fill="#27AE60"></path>
<path d="M 47.05467942667794 60.54349413009531 L 52.657934680019125 75.53027265537901 A 39 39 0 0 1 21.776047881936506 73.99050547555231 L 28.84228464832153 59.635426306094956 A 23 23 0 0 0 47.05467942667794 60.54349413009531" fill="#BB6BD9"></path>
<path d="M 28.84228464832153 59.635426306094956 L 21.776047881936506 73.99050547555231 A 39 39 0 0 1 16.516787653040566 70.8669917400675 L 25.740669641536744 57.79335410311674 A 23 23 0 0 0 28.84228464832153 59.635426306094956" fill="#F2994A"></path>
<path d="M 25.740669641536744 57.79335410311674 L 16.516787653040566 70.8669917400675 A 39 39 0 0 1 0.29482036483241814 43.78634196536447 L 16.173868420285785 41.82271449239443 A 23 23 0 0 0 25.740669641536744 57.79335410311674" fill="#F2C94C"></path>
<path d="M 16.173868420285785 41.82271449239443 L 0.29482036483241814 43.78634196536447 A 39 39 0 0 1 0.04986401483807157 40.971523963180196 L 16.02940698310963 40.1626936193114 A 23 23 0 0 0 16.173868420285785 41.82271449239443" fill="#9B51E0"></path>
<path d="M 16.02940698310963 40.1626936193114 L 0.04986401483807157 40.971523963180196 A 39 39 0 0 1 8.975519305138665 14.109629191112901 L 21.293254974825366 24.321063369117866 A 23 23 0 0 0 16.02940698310963 40.1626936193114" fill="#EB3CBA"></path>
<path d="M 21.293254974825366 24.321063369117866 L 8.975519305138665 14.109629191112901 A 39 39 0 0 1 26.172718077496697 2.1698379248662576 L 31.435192712369847 17.27964800697241 A 23 23 0 0 0 21.293254974825366 24.321063369117866" fill="#EB5757"></path>
<path d="M 31.435192712369847 17.27964800697241 L 26.172718077496697 2.1698379248662576 A 39 39 0 0 1 31.626209178949473 0.7034308465184935 L 34.65135413117533 16.41484383256219 A 23 23 0 0 0 31.435192712369847 17.27964800697241" fill="#a6761d"></path>
<path d="M 34.65135413117533 16.41484383256219 L 31.626209178949473 0.7034308465184935 A 39 39 0 0 1 38.52899900046668 0.0028442311693908096 L 38.7222301797624 16.001677367099894 A 23 23 0 0 0 34.65135413117533 16.41484383256219" fill="#a6761d"></path>
<path d="M 38.7222301797624 16.001677367099894 L 38.52899900046668 0.0028442311693908096 A 39 39 0 0 1 38.99999999999999 0 L 38.99999999999999 16 A 23 23 0 0 0 38.7222301797624 16.001677367099894" fill="#a6761d"></path>
</svg>