<svg width="9" height="14" viewBox="0 0 9 14" fill="none" xmlns="http://www.w3.org/2000/svg">
<path d="M8.01953 0.292787C8.207 0.480314 8.31232 0.734622 8.31232 0.999786C8.31232 1.26495 8.207 1.51926 8.01953 1.70679L2.72653 6.99979L8.01953 12.2928C8.20169 12.4814 8.30248 12.734 8.3002 12.9962C8.29793 13.2584 8.19276 13.5092 8.00735 13.6946C7.82194 13.88 7.57113 13.9852 7.30893 13.9875C7.04673 13.9897 6.79413 13.8889 6.60553 13.7068L0.605531 7.70679C0.41806 7.51926 0.312744 7.26495 0.312744 6.99979C0.312744 6.73462 0.41806 6.48031 0.605531 6.29279L6.60553 0.292787C6.79306 0.105316 7.04737 0 7.31253 0C7.57769 0 7.832 0.105316 8.01953 0.292787Z" fill="#333231"/>
</svg>
