<svg width="24" height="24" viewBox="0 0 24 24" fill="none" xmlns="http://www.w3.org/2000/svg">
<path d="M14.707 5.29279C14.8945 5.48031 14.9998 5.73462 14.9998 5.99979C14.9998 6.26495 14.8945 6.51926 14.707 6.70679L9.41403 11.9998L14.707 17.2928C14.8892 17.4814 14.99 17.734 14.9877 17.9962C14.9854 18.2584 14.8803 18.5092 14.6948 18.6946C14.5094 18.88 14.2586 18.9852 13.9964 18.9875C13.7342 18.9897 13.4816 18.8889 13.293 18.7068L7.29303 12.7068C7.10556 12.5193 7.00024 12.265 7.00024 11.9998C7.00024 11.7346 7.10556 11.4803 7.29303 11.2928L13.293 5.29279C13.4806 5.10532 13.7349 5 14 5C14.2652 5 14.5195 5.10532 14.707 5.29279Z" fill="#4F4F4F"/>
</svg>
