<svg width="24" height="24" viewBox="0 0 24 24" fill="none" xmlns="http://www.w3.org/2000/svg">
<path d="M7.29273 5.29279C7.10525 5.48031 6.99994 5.73462 6.99994 5.99979C6.99994 6.26495 7.10525 6.51926 7.29273 6.70679L12.5857 11.9998L7.29273 17.2928C7.11057 17.4814 7.00977 17.734 7.01205 17.9962C7.01433 18.2584 7.1195 18.5092 7.30491 18.6946C7.49031 18.88 7.74113 18.9852 8.00332 18.9875C8.26552 18.9897 8.51812 18.8889 8.70673 18.7068L14.7067 12.7068C14.8942 12.5193 14.9995 12.265 14.9995 11.9998C14.9995 11.7346 14.8942 11.4803 14.7067 11.2928L8.70673 5.29279C8.5192 5.10532 8.26489 5 7.99973 5C7.73456 5 7.48025 5.10532 7.29273 5.29279Z" fill="#BDBDBD"/>
</svg>
