<svg viewBox="240 8 530 42" fill="none" xmlns="http://www.w3.org/2000/svg" xmlns:xlink="http://www.w3.org/1999/xlink">
<rect x="310" y="10" width="159" height="20" rx="4" fill="white" fill-opacity="0.5"/>
<rect x="514" y="10" width="74" height="20" rx="4" fill="white" fill-opacity="0.5"/>
<path fill-rule="evenodd" clip-rule="evenodd" d="M576 27.5625C580.177 27.5625 583.562 24.1767 583.562 20C583.562 15.8233 580.177 12.4375 576 12.4375C571.823 12.4375 568.438 15.8233 568.438 20C568.438 24.1767 571.823 27.5625 576 27.5625ZM572.612 15.6372L579.664 18.9662C579.72 18.9907 579.766 19.0319 579.797 19.0841C579.828 19.1362 579.842 19.1967 579.836 19.2571C579.831 19.3175 579.808 19.3749 579.769 19.4212C579.73 19.4674 579.677 19.5004 579.618 19.5154L577.052 20.0818L579.471 22.8766C579.521 22.9356 579.545 23.0118 579.538 23.0885C579.532 23.1653 579.496 23.2364 579.437 23.2863L578.699 23.9121C578.64 23.9617 578.564 23.9859 578.487 23.9795C578.411 23.9731 578.34 23.9366 578.29 23.8779L575.863 21.0707L574.871 23.5478C574.848 23.6039 574.808 23.6515 574.757 23.6839C574.706 23.7162 574.646 23.7318 574.585 23.7283C574.525 23.7249 574.467 23.7026 574.42 23.6646C574.373 23.6267 574.338 23.5749 574.322 23.5165L572.207 15.9778C572.192 15.924 572.193 15.8671 572.21 15.8138C572.226 15.7606 572.258 15.7132 572.3 15.6774C572.343 15.6415 572.395 15.6187 572.45 15.6115C572.505 15.6044 572.562 15.6133 572.612 15.6372Z" fill="#9DC364"/>
<path d="M316.349 22.184H318.509V16.728H315.165V18.888H316.349V22.184ZM324.976 25.096C327.776 25.096 328.592 22.76 328.608 20.584C328.592 18.008 327.296 16.6 325.312 16.6C324.048 16.6 323.168 17.272 322.672 18.088C322.512 17.608 322.304 17.16 322.064 16.728H319.776V17.032C320.304 17.912 320.672 18.776 320.96 19.768L320.112 25H322.384L322.88 21.08C323.088 19.464 323.776 18.76 324.8 18.76C325.792 18.76 326.432 19.512 326.448 20.712C326.448 21.8 326.032 22.904 324.736 22.92C324.544 22.92 324.24 22.888 324.048 22.856L323.92 25.016C324.256 25.064 324.624 25.096 324.976 25.096ZM330.74 25H332.916V16.728H329.54V18.888H330.74V25ZM334.725 22.504L334.565 25H336.837L336.901 23.176C336.949 22.104 337.093 21.368 337.733 20.968C338.757 22.312 339.669 23.64 340.517 25H343.029V24.648C342.293 23.608 341.541 22.536 340.741 21.48C341.701 20.952 342.565 20.136 342.677 18.216L342.757 16.728H340.469V18.024C340.453 18.936 340.181 19.656 339.685 20.024C338.805 18.888 337.924 17.784 337.029 16.728H334.453V17.064C335.237 17.896 335.957 18.712 336.613 19.544C335.509 20.12 334.837 20.872 334.725 22.504ZM345.979 25H348.347L350.859 17.816V16.728H346.075V14.92H343.883V18.888H348.219L345.979 24.664V25ZM357.454 25H359.63V16.728H352.158V18.888H357.454V25ZM352.414 25H354.638V20.392H352.414V25ZM366.214 25H368.582L371.094 17.816V16.728H366.31V14.92H364.118V18.888H368.454L366.214 24.664V25ZM376.456 25.128C379.352 25.128 380.488 22.984 380.488 20.392C380.488 18.056 379.576 16.6 377.848 16.6C376.984 16.6 376.168 16.904 375.624 17.336L376.136 18.984C376.408 18.792 376.76 18.712 377.096 18.712C377.832 18.712 378.328 19.368 378.328 20.696C378.328 22.072 377.656 22.952 376.504 22.952C375.368 22.952 374.664 22.072 374.664 20.616L374.648 16.728H372.488V20.616C372.488 22.984 373.512 25.128 376.456 25.128ZM382.599 22.184H384.759V16.728H381.415V18.888H382.599V22.184ZM385.93 22.792L386.122 25.128C387.242 25.064 388.25 24.568 389.05 23.704C389.13 24.12 389.242 24.568 389.354 25.064L391.626 24.728C391.258 23.208 390.954 21.736 390.874 19.464C390.81 17.432 390.522 16.728 388.394 16.728H386.474V18.888H387.946C388.538 18.888 388.746 19.048 388.746 19.864C388.746 20.472 388.762 21.112 388.826 21.784C388.106 22.328 387.242 22.68 385.93 22.792ZM393.239 22.184H395.399V16.728H392.055V18.888H393.239V22.184ZM400.507 25H402.667L402.683 18.888H403.691V16.728H396.571L396.587 18.888H400.507V25ZM410.188 25H412.364V16.728H404.892V18.888H410.188V25ZM405.148 25H407.372V20.392H405.148V25ZM420.996 27.288H423.156V16.728H416.852V18.888H420.996V27.288ZM428.559 20.088V25H430.735V20.088C430.735 17.512 429.903 16.728 427.375 16.728H424.415V18.888H427.375C428.255 18.888 428.559 19.16 428.559 20.088ZM432.411 25.192L433.691 25.128C438.059 24.84 439.803 23.16 439.899 18.664L439.947 16.728H437.659V18.44C437.643 20.6 437.483 21.816 436.299 22.424C435.595 20.6 434.987 18.664 434.555 16.728H432.187V16.968C432.747 19.032 433.467 21.048 434.299 22.904C434.011 22.952 433.707 22.968 433.371 23L432.283 23.064L432.411 25.192ZM446.132 25.096C448.932 25.096 449.748 22.76 449.764 20.584C449.748 18.008 448.452 16.6 446.468 16.6C445.204 16.6 444.324 17.272 443.828 18.088C443.668 17.608 443.46 17.16 443.22 16.728H440.932V17.032C441.46 17.912 441.828 18.776 442.116 19.768L441.268 25H443.54L444.036 21.08C444.244 19.464 444.932 18.76 445.956 18.76C446.948 18.76 447.588 19.512 447.604 20.712C447.604 21.8 447.188 22.904 445.892 22.92C445.7 22.92 445.396 22.888 445.204 22.856L445.076 25.016C445.412 25.064 445.78 25.096 446.132 25.096ZM477.083 25.192L478.363 25.128C482.731 24.84 484.475 23.16 484.571 18.664L484.619 16.728H482.331V18.44C482.315 20.6 482.155 21.816 480.971 22.424C480.267 20.6 479.659 18.664 479.227 16.728H476.859V16.968C477.419 19.032 478.139 21.048 478.971 22.904C478.683 22.952 478.379 22.968 478.043 23L476.955 23.064L477.083 25.192ZM486.833 25H489.009V16.728H485.633V18.888H486.833V25ZM491.442 22.184H493.602V16.728H490.258V18.888H491.442V22.184ZM499.078 25.128C501.494 25.128 503.062 23.384 503.062 20.824C503.062 18.152 501.91 16.728 498.902 16.728H494.87V18.888H495.75C495.446 19.544 495.222 20.328 495.222 21.176C495.222 23.496 496.694 25.128 499.078 25.128ZM497.27 20.712C497.254 20.072 497.43 19.432 497.67 18.888H499.014C500.534 18.888 500.902 19.72 500.902 20.888C500.902 22.152 500.262 23.064 499.126 23.064C498.054 23.064 497.27 22.28 497.27 20.712ZM503.821 25H510.973V22.824H510.189V20.088C510.189 17.512 509.357 16.728 506.845 16.728H504.013V18.888H506.845C507.709 18.888 508.029 19.16 508.029 20.088V22.824H503.821V25ZM522.294 25.112C524.278 25.112 525.206 24.152 525.206 21.992V18.888H528.086V25H530.262V16.728H521.718V18.888H523.03V21.624C523.03 22.36 522.87 22.936 522.006 22.936C521.83 22.936 521.606 22.92 521.43 22.888L521.35 25.048C521.638 25.096 521.83 25.112 522.294 25.112ZM532.708 25H534.884V16.728H531.508V18.888H532.708V25ZM537.989 25.112C541.573 25.112 542.885 23.32 542.885 20.68C542.885 18.04 541.669 16.728 538.917 16.728H536.213V18.824H538.597C540.133 18.824 540.709 19.464 540.709 20.776C540.709 22.056 540.133 22.936 537.957 22.936C537.221 22.936 536.661 22.904 536.149 22.808L536.133 24.984C536.661 25.08 537.253 25.112 537.989 25.112ZM545.293 22.664L545.277 25H547.453V22.632C547.453 20.84 547.197 19.64 546.365 18.856L548.061 18.888V16.728H543.981L543.821 18.52C545.053 19.272 545.325 20.488 545.293 22.664ZM554.417 25H556.785L559.297 17.816V16.728H554.513V14.92H552.321V18.888H556.657L554.417 24.664V25ZM561.958 25.112C565.542 25.112 566.854 23.32 566.854 20.68C566.854 18.04 565.638 16.728 562.886 16.728H560.182V18.824H562.566C564.102 18.824 564.678 19.464 564.678 20.776C564.678 22.056 564.102 22.936 561.926 22.936C561.19 22.936 560.63 22.904 560.118 22.808L560.102 24.984C560.63 25.08 561.222 25.112 561.958 25.112ZM594.849 22.184H597.009V16.728H593.665V18.888H594.849V22.184ZM600.916 19.48H602.228L602.596 15.08H600.74L600.916 19.48ZM598.276 15.08L598.452 19.48H599.764L600.132 15.08H598.276ZM603.911 25.192L605.191 25.128C609.559 24.84 611.303 23.16 611.399 18.664L611.447 16.728H609.159V18.44C609.143 20.6 608.983 21.816 607.799 22.424C607.095 20.6 606.487 18.664 606.055 16.728H603.687V16.968C604.247 19.032 604.967 21.048 605.799 22.904C605.511 22.952 605.207 22.968 604.871 23L603.783 23.064L603.911 25.192ZM617.792 25H620.16L622.672 17.816V16.728H617.888V14.92H615.696V18.888H620.032L617.792 24.664V25ZM624.114 25.192L625.394 25.128C629.762 24.84 631.506 23.16 631.602 18.664L631.65 16.728H629.362V18.44C629.346 20.6 629.186 21.816 628.002 22.424C627.298 20.6 626.69 18.664 626.258 16.728H623.89V16.968C624.45 19.032 625.17 21.048 626.002 22.904C625.714 22.952 625.41 22.968 625.074 23L623.986 23.064L624.114 25.192ZM635.513 25.112C639.033 25.112 640.489 23.416 640.489 20.792C640.489 18.136 639.289 16.728 636.521 16.728H633.289L633.081 18.76C632.809 21.352 634.073 21.816 635.401 21.832C635.753 21.832 636.121 21.8 636.536 21.688L636.409 20.184C636.201 20.2 636.025 20.2 635.833 20.184C635.305 20.152 635.049 19.896 635.113 19.192L635.145 18.76H636.153C637.753 18.76 638.329 19.432 638.329 20.76C638.329 21.992 637.769 22.952 635.465 22.952C634.729 22.952 634.025 22.904 633.209 22.808V24.984C634.009 25.08 634.761 25.112 635.513 25.112ZM642.615 25H644.791V16.728H641.415V18.888H642.615V25ZM651.336 25.096C654.135 25.096 654.952 22.76 654.968 20.584C654.952 18.008 653.656 16.6 651.672 16.6C650.408 16.6 649.528 17.272 649.032 18.088C648.872 17.608 648.664 17.16 648.424 16.728H646.136V17.032C646.664 17.912 647.032 18.776 647.32 19.768L646.472 25H648.744L649.24 21.08C649.448 19.464 650.136 18.76 651.16 18.76C652.152 18.76 652.792 19.512 652.808 20.712C652.808 21.8 652.392 22.904 651.096 22.92C650.904 22.92 650.6 22.888 650.408 22.856L650.28 25.016C650.616 25.064 650.984 25.096 651.336 25.096ZM659.421 19.48H660.877L661.293 15.08H659.229L659.421 19.48ZM662.95 25.112C664.934 25.112 665.862 24.152 665.862 21.992V18.888H668.742V25H670.918V16.728H662.374V18.888H663.686V21.624C663.686 22.36 663.526 22.936 662.662 22.936C662.486 22.936 662.262 22.92 662.086 22.888L662.006 25.048C662.294 25.096 662.486 25.112 662.95 25.112ZM673.365 25H675.541V16.728H672.165V18.888H673.365V25ZM680.934 20.088V25H683.11V20.088C683.11 17.512 682.278 16.728 679.75 16.728H676.79V18.888H679.75C680.63 18.888 680.934 19.16 680.934 20.088ZM685.458 22.184H687.618V16.728H684.274V18.888H685.458V22.184ZM692.998 25.112C697.686 25.144 698.774 22.552 699.158 18.536L699.318 16.728H697.142L696.998 18.216C696.726 21.288 696.31 22.984 693.206 22.984C692.758 22.984 692.278 22.952 691.846 22.872L691.734 21.752C693.974 21.448 694.902 20.664 695.142 18.2L695.27 16.728H693.094L692.998 18.312C692.934 19.432 692.518 19.976 691.526 20.088L691.158 16.728H688.982L689.942 24.984C691.078 25.08 692.102 25.112 692.998 25.112ZM705.573 25H707.941L710.453 17.816V16.728H705.669V14.92H703.477V18.888H707.813L705.573 24.664V25ZM713.114 25.112C716.698 25.112 718.01 23.32 718.01 20.68C718.01 18.04 716.794 16.728 714.042 16.728H711.338V18.824H713.722C715.258 18.824 715.834 19.464 715.834 20.776C715.834 22.056 715.258 22.936 713.082 22.936C712.346 22.936 711.786 22.904 711.274 22.808L711.258 24.984C711.786 25.08 712.378 25.112 713.114 25.112ZM719.234 19.48H720.69L721.106 15.08H719.042L719.234 19.48ZM729.215 20.088V25H731.391V20.088C731.391 17.512 730.559 16.728 728.031 16.728H725.071V18.888H728.031C728.911 18.888 729.215 19.16 729.215 20.088ZM733.419 25.112C735.403 25.112 736.331 24.152 736.331 21.992V18.888H739.211V25H741.387V16.728H732.843V18.888H734.155V21.624C734.155 22.36 733.995 22.936 733.131 22.936C732.955 22.936 732.731 22.92 732.555 22.888L732.475 25.048C732.763 25.096 732.955 25.112 733.419 25.112ZM743.193 22.504L743.033 25H745.305L745.369 23.176C745.417 22.104 745.561 21.368 746.201 20.968C747.225 22.312 748.137 23.64 748.985 25H751.497V24.648C750.761 23.608 750.009 22.536 749.209 21.48C750.169 20.952 751.033 20.136 751.145 18.216L751.225 16.728H748.937V18.024C748.921 18.936 748.649 19.656 748.153 20.024C747.273 18.888 746.393 17.784 745.497 16.728H742.921V17.064C743.705 17.896 744.425 18.712 745.081 19.544C743.977 20.12 743.305 20.872 743.193 22.504Z" fill="#4F4F4F"/>
<path d="M254.063 43H255.246V41.817H254.063V43ZM257.366 43H258.276V36.279H256.131V37.189H257.366V43ZM260.92 40.439H261.817V36.279H259.698V37.189H260.92V40.439ZM265.205 43H266.167L268.364 36.773V36.279H264.061V34.81H263.138V37.189H267.259L265.205 42.818V43ZM269.826 43.26L270.749 43.169C273.934 42.805 275.273 41.518 275.351 37.852L275.39 36.279H274.441L274.428 37.67C274.415 39.854 274.116 41.18 272.608 41.83C271.867 40.114 271.204 38.151 270.71 36.279H269.761V36.474C270.32 38.45 271.035 40.4 271.763 42.064C271.425 42.155 271.035 42.22 270.593 42.272L269.761 42.363L269.826 43.26ZM279.898 43H285.553V38.567C285.553 36.825 284.877 36.279 283.343 36.279H279.898V43ZM280.808 42.103V37.163H283.343C284.24 37.163 284.63 37.462 284.63 38.541V42.103H280.808ZM288.088 40.439H288.985V36.279H286.866V37.189H288.088V40.439ZM290.813 41.453L290.709 43H291.684L291.749 41.765C291.84 40.439 292.009 39.62 292.945 39.139C293.985 40.4 294.908 41.674 295.779 43H296.78V42.779C296.169 41.882 295.519 40.998 294.843 40.114C295.636 39.672 296.364 38.931 296.468 37.332L296.533 36.279H295.545L295.532 37.332C295.493 38.372 295.051 39.165 294.375 39.49C293.517 38.411 292.62 37.358 291.645 36.279H290.618V36.474C291.281 37.163 291.892 37.852 292.464 38.541C291.45 39.1 290.93 39.789 290.813 41.453ZM301.607 38.632V43H302.517V38.632C302.517 36.825 301.854 36.279 300.255 36.279H297.746V37.189H300.255C301.204 37.189 301.607 37.488 301.607 38.632ZM304.451 43H305.361V37.189H307.896C308.78 37.189 309.183 37.488 309.183 38.567V43H310.093V38.567C310.093 36.825 309.43 36.279 307.896 36.279H304.451V43ZM311.926 41.453L311.822 43H312.797L312.862 41.765C312.953 40.439 313.122 39.62 314.058 39.139C315.098 40.4 316.021 41.674 316.892 43H317.893V42.779C317.282 41.882 316.632 40.998 315.956 40.114C316.749 39.672 317.477 38.931 317.581 37.332L317.646 36.279H316.658L316.645 37.332C316.606 38.372 316.164 39.165 315.488 39.49C314.63 38.411 313.733 37.358 312.758 36.279H311.731V36.474C312.394 37.163 313.005 37.852 313.577 38.541C312.563 39.1 312.043 39.789 311.926 41.453ZM322.848 40.439H323.745V36.279H321.626V37.189H322.848V40.439ZM328.979 43.065C331.176 43.065 331.813 41.141 331.8 39.425C331.787 37.098 330.578 36.175 329.122 36.175C328.056 36.175 327.224 36.76 326.821 37.657C326.639 37.137 326.418 36.721 326.119 36.279H325.17V36.461C325.612 37.098 325.898 37.696 326.158 38.528L325.495 43H326.457L326.899 39.672C327.107 38.073 327.718 37.085 328.992 37.085C330.11 37.085 330.89 37.852 330.903 39.451C330.903 40.777 330.448 42.142 328.927 42.142C328.758 42.142 328.563 42.129 328.381 42.103L328.316 43.026C328.55 43.039 328.758 43.065 328.979 43.065ZM334.083 43H334.993V36.279H332.848V37.189H334.083V43ZM336.923 41.453L336.819 43H337.794L337.859 41.765C337.95 40.439 338.119 39.62 339.055 39.139C340.095 40.4 341.018 41.674 341.889 43H342.89V42.779C342.279 41.882 341.629 40.998 340.953 40.114C341.746 39.672 342.474 38.931 342.578 37.332L342.643 36.279H341.655L341.642 37.332C341.603 38.372 341.161 39.165 340.485 39.49C339.627 38.411 338.73 37.358 337.755 36.279H336.728V36.474C337.391 37.163 338.002 37.852 338.574 38.541C337.56 39.1 337.04 39.789 336.923 41.453ZM345.922 43H346.884L349.081 36.773V36.279H344.778V34.81H343.855V37.189H347.976L345.922 42.818V43ZM355.3 43H356.223V36.279H350.542V37.189H355.3V43ZM350.854 43H351.803V38.944H350.854V43ZM362.464 43H363.426L365.623 36.773V36.279H361.32V34.81H360.397V37.189H364.518L362.464 42.818V43ZM370.23 43.104C372.349 43.104 373.337 41.518 373.337 39.334C373.337 37.41 372.791 36.175 371.257 36.175C370.555 36.175 369.866 36.5 369.502 36.838L369.84 37.527C370.139 37.241 370.607 37.085 370.984 37.085C372.076 37.085 372.427 37.995 372.427 39.412C372.427 41.18 371.595 42.181 370.243 42.181C368.904 42.181 368.111 41.18 368.111 39.477L368.098 36.279H367.188V39.477C367.188 41.518 368.098 43.104 370.23 43.104ZM375.597 40.439H376.494V36.279H374.375V37.189H375.597V40.439ZM377.815 42.103L377.919 43.091C379.024 42.974 379.986 42.454 380.532 41.843C380.597 42.22 380.688 42.61 380.792 43.039L381.767 42.844C381.364 41.349 381.195 40.153 381.143 38.216C381.104 36.63 380.818 36.279 379.505 36.279H378.218V37.189H379.401C380.103 37.189 380.207 37.345 380.233 38.398C380.233 39.126 380.272 39.984 380.402 40.959C379.895 41.492 379.063 41.96 377.815 42.103ZM383.569 40.439H384.466V36.279H382.347V37.189H383.569V40.439ZM389.376 43H390.286L390.299 37.189H391.261V36.279H385.788L385.801 37.189H389.376V43ZM397.373 43H398.296V36.279H392.615V37.189H397.373V43ZM392.927 43H393.876V38.944H392.927V43ZM406.33 44.859H407.24V36.279H402.469V37.189H406.33V44.859ZM412.513 38.632V43H413.423V38.632C413.423 36.825 412.76 36.279 411.161 36.279H408.652V37.189H411.161C412.11 37.189 412.513 37.488 412.513 38.632ZM415.149 43.26L416.072 43.169C419.257 42.805 420.596 41.518 420.674 37.852L420.713 36.279H419.764L419.751 37.67C419.738 39.854 419.439 41.18 417.931 41.83C417.19 40.114 416.527 38.151 416.033 36.279H415.084V36.474C415.643 38.45 416.358 40.4 417.086 42.064C416.748 42.155 416.358 42.22 415.916 42.272L415.084 42.363L415.149 43.26ZM425.654 43.065C427.851 43.065 428.488 41.141 428.475 39.425C428.462 37.098 427.253 36.175 425.797 36.175C424.731 36.175 423.899 36.76 423.496 37.657C423.314 37.137 423.093 36.721 422.794 36.279H421.845V36.461C422.287 37.098 422.573 37.696 422.833 38.528L422.17 43H423.132L423.574 39.672C423.782 38.073 424.393 37.085 425.667 37.085C426.785 37.085 427.565 37.852 427.578 39.451C427.578 40.777 427.123 42.142 425.602 42.142C425.433 42.142 425.238 42.129 425.056 42.103L424.991 43.026C425.225 43.039 425.433 43.065 425.654 43.065ZM429.333 43H434.962V42.077H434.156V38.632C434.156 36.825 433.493 36.279 431.894 36.279H429.463V37.189H431.894C432.843 37.189 433.246 37.488 433.246 38.632V42.077H429.333V43ZM439.823 43H440.733V36.279H438.588V37.189H439.823V43ZM442.662 41.453L442.558 43H443.533L443.598 41.765C443.689 40.439 443.858 39.62 444.794 39.139C445.834 40.4 446.757 41.674 447.628 43H448.629V42.779C448.018 41.882 447.368 40.998 446.692 40.114C447.485 39.672 448.213 38.931 448.317 37.332L448.382 36.279H447.394L447.381 37.332C447.342 38.372 446.9 39.165 446.224 39.49C445.366 38.411 444.469 37.358 443.494 36.279H442.467V36.474C443.13 37.163 443.741 37.852 444.313 38.541C443.299 39.1 442.779 39.789 442.662 41.453ZM452.908 43.078C454.208 43.078 454.806 42.376 454.806 40.894V37.189H458.368L458.355 43H459.278V36.279H452.57V37.189H453.896V40.79C453.896 41.674 453.688 42.155 452.83 42.155C452.661 42.155 452.479 42.142 452.31 42.129L452.258 43.039C452.466 43.065 452.648 43.078 452.908 43.078ZM461.925 43H462.835V36.279H460.69V37.189H461.925V43ZM465.843 43.052C468.625 43.052 469.587 41.596 469.587 39.62C469.587 37.436 468.703 36.279 466.519 36.279H464.322V37.176H466.285C468.157 37.176 468.677 38.021 468.677 39.646C468.677 41.167 468.027 42.142 465.713 42.142C465.089 42.142 464.79 42.116 464.27 42.064L464.257 42.987C464.842 43.039 465.167 43.052 465.843 43.052ZM472.008 41.206V43H472.918V41.128C472.918 39.347 472.84 37.774 471.878 37.176L473.516 37.189V36.279H470.747L470.643 37.02C471.787 37.618 472.021 38.827 472.008 41.206ZM479.477 43H480.439L482.636 36.773V36.279H478.333V34.81H477.41V37.189H481.531L479.477 42.818V43ZM485.178 43.052C487.96 43.052 488.922 41.596 488.922 39.62C488.922 37.436 488.038 36.279 485.854 36.279H483.657V37.176H485.62C487.492 37.176 488.012 38.021 488.012 39.646C488.012 41.167 487.362 42.142 485.048 42.142C484.424 42.142 484.125 42.116 483.605 42.064L483.592 42.987C484.177 43.039 484.502 43.052 485.178 43.052ZM489.788 43H495.417V42.077H494.611V38.632C494.611 36.825 493.948 36.279 492.349 36.279H489.918V37.189H492.349C493.298 37.189 493.701 37.488 493.701 38.632V42.077H489.788V43ZM499.589 43.078C500.889 43.078 501.487 42.376 501.487 40.894V37.189H505.049L505.036 43H505.959V36.279H499.251V37.189H500.577V40.79C500.577 41.674 500.369 42.155 499.511 42.155C499.342 42.155 499.16 42.142 498.991 42.129L498.939 43.039C499.147 43.065 499.329 43.078 499.589 43.078ZM508.606 43H509.516V36.279H507.371V37.189H508.606V43ZM511.445 41.453L511.341 43H512.316L512.381 41.765C512.472 40.439 512.641 39.62 513.577 39.139C514.617 40.4 515.54 41.674 516.411 43H517.412V42.779C516.801 41.882 516.151 40.998 515.475 40.114C516.268 39.672 516.996 38.931 517.1 37.332L517.165 36.279H516.177L516.164 37.332C516.125 38.372 515.683 39.165 515.007 39.49C514.149 38.411 513.252 37.358 512.277 36.279H511.25V36.474C511.913 37.163 512.524 37.852 513.096 38.541C512.082 39.1 511.562 39.789 511.445 41.453ZM522.239 38.632V43H523.149V38.632C523.149 36.825 522.486 36.279 520.887 36.279H518.378V37.189H520.887C521.836 37.189 522.239 37.488 522.239 38.632ZM526.538 43H527.5L529.697 36.773V36.279H525.394V34.81H524.471V37.189H528.592L526.538 42.818V43ZM534.862 44.859H535.785V36.279H533.523L533.536 37.189H534.862V44.859ZM538.427 40.439H539.324V36.279H537.205V37.189H538.427V40.439ZM541.152 41.453L541.048 43H542.023L542.088 41.765C542.179 40.439 542.348 39.62 543.284 39.139C544.324 40.4 545.247 41.674 546.118 43H547.119V42.779C546.508 41.882 545.858 40.998 545.182 40.114C545.975 39.672 546.703 38.931 546.807 37.332L546.872 36.279H545.884L545.871 37.332C545.832 38.372 545.39 39.165 544.714 39.49C543.856 38.411 542.959 37.358 541.984 36.279H540.957V36.474C541.62 37.163 542.231 37.852 542.803 38.541C541.789 39.1 541.269 39.789 541.152 41.453ZM549.32 43H550.23V36.279H548.085V37.189H549.32V43ZM554.823 43.26L555.746 43.169C558.931 42.805 560.27 41.518 560.348 37.852L560.387 36.279H559.438L559.425 37.67C559.412 39.854 559.113 41.18 557.605 41.83C556.864 40.114 556.201 38.151 555.707 36.279H554.758V36.474C555.317 38.45 556.032 40.4 556.76 42.064C556.422 42.155 556.032 42.22 555.59 42.272L554.758 42.363L554.823 43.26ZM565.104 43H566.014L566.027 37.189H566.989V36.279H561.516L561.529 37.189H565.104V43ZM569.162 40.439H570.059V36.279H567.94V37.189H569.162V40.439ZM575.294 43.065C577.491 43.065 578.128 41.141 578.115 39.425C578.102 37.098 576.893 36.175 575.437 36.175C574.371 36.175 573.539 36.76 573.136 37.657C572.954 37.137 572.733 36.721 572.434 36.279H571.485V36.461C571.927 37.098 572.213 37.696 572.473 38.528L571.81 43H572.772L573.214 39.672C573.422 38.073 574.033 37.085 575.307 37.085C576.425 37.085 577.205 37.852 577.218 39.451C577.218 40.777 576.763 42.142 575.242 42.142C575.073 42.142 574.878 42.129 574.696 42.103L574.631 43.026C574.865 43.039 575.073 43.065 575.294 43.065ZM582.476 43.078C583.776 43.078 584.374 42.376 584.374 40.894V37.189H587.936L587.923 43H588.846V36.279H582.138V37.189H583.464V40.79C583.464 41.674 583.256 42.155 582.398 42.155C582.229 42.155 582.047 42.142 581.878 42.129L581.826 43.039C582.034 43.065 582.216 43.078 582.476 43.078ZM591.493 43H592.403V36.279H590.258V37.189H591.493V43ZM597.687 38.632V43H598.597V38.632C598.597 36.825 597.934 36.279 596.335 36.279H593.826V37.189H596.335C597.284 37.189 597.687 37.488 597.687 38.632ZM601.155 43H602.065V36.279H599.92V37.189H601.155V43ZM606.958 42.844H607.842L609.779 36.773V36.279H603.89V37.189H608.739L606.919 42.649L606.958 42.844ZM604.319 44.859H605.255V39.074H604.319V44.859ZM614.751 43.065C616.948 43.065 617.585 41.141 617.572 39.425C617.559 37.098 616.35 36.175 614.894 36.175C613.828 36.175 612.996 36.76 612.593 37.657C612.411 37.137 612.19 36.721 611.891 36.279H610.942V36.461C611.384 37.098 611.67 37.696 611.93 38.528L611.267 43H612.229L612.671 39.672C612.879 38.073 613.49 37.085 614.764 37.085C615.882 37.085 616.662 37.852 616.675 39.451C616.675 40.777 616.22 42.142 614.699 42.142C614.53 42.142 614.335 42.129 614.153 42.103L614.088 43.026C614.322 43.039 614.53 43.065 614.751 43.065ZM625.248 38.632V43H626.158V38.632C626.158 36.825 625.495 36.279 623.896 36.279H621.387V37.189H623.896C624.845 37.189 625.248 37.488 625.248 38.632ZM629.769 43.052C632.551 43.052 633.552 41.622 633.552 39.646C633.552 37.462 632.655 36.279 630.471 36.279H628.092L627.923 37.787C627.702 39.763 628.612 40.218 629.665 40.257C629.938 40.257 630.172 40.231 630.419 40.166L630.341 39.464C630.172 39.49 630.016 39.503 629.808 39.49C629.132 39.438 628.664 39.152 628.794 37.904L628.872 37.163H630.237C632.109 37.163 632.629 38.008 632.629 39.646C632.629 41.141 631.992 42.155 629.639 42.155C629.002 42.155 628.586 42.116 627.975 42.064L627.962 42.987C628.625 43.039 629.08 43.052 629.769 43.052ZM638.14 43.104C640.038 43.104 641.247 41.726 641.247 39.568C641.247 37.293 640.246 36.279 637.971 36.279H634.695V37.189H635.592C635.267 37.982 635.111 38.801 635.111 39.568C635.111 41.635 636.19 43.104 638.14 43.104ZM635.995 39.451C635.982 38.593 636.151 37.93 636.45 37.189H637.958C639.843 37.189 640.337 38.073 640.337 39.594C640.337 41.18 639.492 42.22 638.179 42.22C636.84 42.22 635.995 41.245 635.995 39.451ZM645.956 43.065C648.153 43.065 648.79 41.141 648.777 39.425C648.764 37.098 647.555 36.175 646.099 36.175C645.033 36.175 644.201 36.76 643.798 37.657C643.616 37.137 643.395 36.721 643.096 36.279H642.147V36.461C642.589 37.098 642.875 37.696 643.135 38.528L642.472 43H643.434L643.876 39.672C644.084 38.073 644.695 37.085 645.969 37.085C647.087 37.085 647.867 37.852 647.88 39.451C647.88 40.777 647.425 42.142 645.904 42.142C645.735 42.142 645.54 42.129 645.358 42.103L645.293 43.026C645.527 43.039 645.735 43.065 645.956 43.065ZM653.497 43.065C655.694 43.065 656.331 41.141 656.318 39.425C656.305 37.098 655.096 36.175 653.64 36.175C652.574 36.175 651.742 36.76 651.339 37.657C651.157 37.137 650.936 36.721 650.637 36.279H649.688V36.461C650.13 37.098 650.416 37.696 650.676 38.528L650.013 43H650.975L651.417 39.672C651.625 38.073 652.236 37.085 653.51 37.085C654.628 37.085 655.408 37.852 655.421 39.451C655.421 40.777 654.966 42.142 653.445 42.142C653.276 42.142 653.081 42.129 652.899 42.103L652.834 43.026C653.068 43.039 653.276 43.065 653.497 43.065ZM664.891 39.659V44.859H665.775L665.788 39.763C665.788 37.358 664.995 36.279 662.772 36.279H660.432L660.263 37.839C660.029 40.153 661.056 40.686 662.109 40.725C662.382 40.725 662.564 40.725 662.902 40.647L662.824 39.88C662.629 39.919 662.46 39.919 662.265 39.919C661.589 39.867 660.965 39.581 661.147 37.917L661.225 37.163H662.59C664.449 37.163 664.891 37.943 664.891 39.659ZM670.652 43.104C672.55 43.104 673.759 41.726 673.759 39.568C673.759 37.293 672.758 36.279 670.483 36.279H667.207V37.189H668.104C667.779 37.982 667.623 38.801 667.623 39.568C667.623 41.635 668.702 43.104 670.652 43.104ZM668.507 39.451C668.494 38.593 668.663 37.93 668.962 37.189H670.47C672.355 37.189 672.849 38.073 672.849 39.594C672.849 41.18 672.004 42.22 670.691 42.22C669.352 42.22 668.507 41.245 668.507 39.451ZM675.227 41.453L675.123 43H676.098L676.163 41.765C676.254 40.439 676.423 39.62 677.359 39.139C678.399 40.4 679.322 41.674 680.193 43H681.194V42.779C680.583 41.882 679.933 40.998 679.257 40.114C680.05 39.672 680.778 38.931 680.882 37.332L680.947 36.279H679.959L679.946 37.332C679.907 38.372 679.465 39.165 678.789 39.49C677.931 38.411 677.034 37.358 676.059 36.279H675.032V36.474C675.695 37.163 676.306 37.852 676.878 38.541C675.864 39.1 675.344 39.789 675.227 41.453ZM682.849 43.039C684.331 43.039 684.955 42.337 684.955 40.868V36.279H682.498V37.189H684.045V40.803C684.045 41.648 683.824 42.129 682.784 42.129C682.602 42.129 682.42 42.116 682.212 42.103L682.16 43.013C682.407 43.039 682.628 43.039 682.849 43.039ZM692.914 38.632V43H693.824V38.632C693.824 36.825 693.161 36.279 691.562 36.279H689.053V37.189H691.562C692.511 37.189 692.914 37.488 692.914 38.632ZM695.693 43.078C696.993 43.078 697.591 42.376 697.591 40.894V37.189H701.153L701.14 43H702.063V36.279H695.355V37.189H696.681V40.79C696.681 41.674 696.473 42.155 695.615 42.155C695.446 42.155 695.264 42.142 695.095 42.129L695.043 43.039C695.251 43.065 695.433 43.078 695.693 43.078ZM703.982 41.453L703.878 43H704.853L704.918 41.765C705.009 40.439 705.178 39.62 706.114 39.139C707.154 40.4 708.077 41.674 708.948 43H709.949V42.779C709.338 41.882 708.688 40.998 708.012 40.114C708.805 39.672 709.533 38.931 709.637 37.332L709.702 36.279H708.714L708.701 37.332C708.662 38.372 708.22 39.165 707.544 39.49C706.686 38.411 705.789 37.358 704.814 36.279H703.787V36.474C704.45 37.163 705.061 37.852 705.633 38.541C704.619 39.1 704.099 39.789 703.982 41.453ZM710.915 43H716.544V42.077H715.738V38.632C715.738 36.825 715.075 36.279 713.476 36.279H711.045V37.189H713.476C714.425 37.189 714.828 37.488 714.828 38.632V42.077H710.915V43ZM720.573 43.26L721.496 43.169C724.681 42.805 726.02 41.518 726.098 37.852L726.137 36.279H725.188L725.175 37.67C725.162 39.854 724.863 41.18 723.355 41.83C722.614 40.114 721.951 38.151 721.457 36.279H720.508V36.474C721.067 38.45 721.782 40.4 722.51 42.064C722.172 42.155 721.782 42.22 721.34 42.272L720.508 42.363L720.573 43.26ZM730.854 43H731.764L731.777 37.189H732.739V36.279H727.266L727.279 37.189H730.854V43ZM734.912 40.439H735.809V36.279H733.69V37.189H734.912V40.439ZM741.044 43.065C743.241 43.065 743.878 41.141 743.865 39.425C743.852 37.098 742.643 36.175 741.187 36.175C740.121 36.175 739.289 36.76 738.886 37.657C738.704 37.137 738.483 36.721 738.184 36.279H737.235V36.461C737.677 37.098 737.963 37.696 738.223 38.528L737.56 43H738.522L738.964 39.672C739.172 38.073 739.783 37.085 741.057 37.085C742.175 37.085 742.955 37.852 742.968 39.451C742.968 40.777 742.513 42.142 740.992 42.142C740.823 42.142 740.628 42.129 740.446 42.103L740.381 43.026C740.615 43.039 740.823 43.065 741.044 43.065ZM750.074 43H750.997V36.279H745.316V37.189H750.074V43ZM745.628 43H746.577V38.944H745.628V43Z" fill="#4F4F4F"/>
</svg>
