<svg width="16" height="16" viewBox="0 0 16 16" fill="none" xmlns="http://www.w3.org/2000/svg">
<path d="M7.13205 1.50382C7.51594 0.832038 8.48446 0.832085 8.86838 1.50382L15.1457 12.4882C15.5265 13.1547 15.0452 13.984 14.2776 13.9843H1.72385C0.956085 13.9843 0.473924 13.1548 0.854709 12.4882L7.13205 1.50382ZM8.00022 10.9843C7.44798 10.9843 7.00026 11.4321 7.00022 11.9843C7.00022 12.5366 7.44795 12.9843 8.00022 12.9843C8.5525 12.9843 9.00022 12.5366 9.00022 11.9843C9.00017 11.432 8.55247 10.9843 8.00022 10.9843ZM8.00022 3.98428C7.73503 3.9843 7.48071 4.08974 7.29319 4.27725C7.10567 4.46477 7.00024 4.7191 7.00022 4.98428V8.98428C7.00022 9.24947 7.10569 9.50379 7.29319 9.69132C7.48071 9.87884 7.73502 9.98427 8.00022 9.98428C8.26543 9.98428 8.51971 9.87885 8.70725 9.69132C8.89477 9.50378 9.00022 9.24949 9.00022 8.98428V4.98428C9.00019 4.7191 8.89476 4.46477 8.70725 4.27725C8.51972 4.08976 8.2654 3.98428 8.00022 3.98428Z" fill="#B62727"/>
</svg>
