<svg width="24" height="24" viewBox="0 0 24 24" fill="none" xmlns="http://www.w3.org/2000/svg">
<g clip-path="url(#clip0_410_62998)">
<path d="M16.5 18.75C16.6989 18.75 16.8897 18.671 17.0303 18.5303C17.171 18.3897 17.25 18.1989 17.25 18C17.25 16.6076 16.6969 15.2723 15.7123 14.2877C14.7277 13.3031 13.3924 12.75 12 12.75C10.6076 12.75 9.27226 13.3031 8.28769 14.2877C7.30312 15.2723 6.75 16.6076 6.75 18C6.75 18.1989 6.82902 18.3897 6.96967 18.5303C7.11032 18.671 7.30109 18.75 7.5 18.75H16.5Z" fill="#BBCDFE"/>
<path d="M13.25 10.8708C12.88 11.118 12.445 11.25 12 11.25C11.4033 11.25 10.831 11.0129 10.409 10.591C9.98705 10.169 9.75 9.59674 9.75 9C9.75 8.55499 9.88196 8.11998 10.1292 7.74997C10.3764 7.37996 10.7278 7.09157 11.139 6.92127C11.5501 6.75097 12.0025 6.70642 12.439 6.79323C12.8754 6.88005 13.2763 7.09434 13.591 7.40901C13.9057 7.72368 14.1199 8.12459 14.2068 8.56105C14.2936 8.9975 14.249 9.4499 14.0787 9.86104C13.9084 10.2722 13.62 10.6236 13.25 10.8708Z" fill="#1F37F6"/>
</g>
<defs>
<clipPath id="clip0_410_62998">
<rect width="24" height="24" fill="white"/>
</clipPath>
</defs>
</svg>
