<svg width="24" height="24" viewBox="0 0 24 24" fill="none" xmlns="http://www.w3.org/2000/svg">
<path fill-rule="evenodd" clip-rule="evenodd" d="M12 18C13.1867 18 14.3467 17.6481 15.3334 16.9888C16.3201 16.3295 17.0891 15.3925 17.5433 14.2961C17.9974 13.1997 18.1162 11.9933 17.8847 10.8295C17.6532 9.66557 17.0818 8.59648 16.2426 7.75736C15.4035 6.91825 14.3344 6.3468 13.1705 6.11529C12.0067 5.88378 10.8003 6.0026 9.7039 6.45673C8.60754 6.91085 7.67047 7.67989 7.01118 8.66658C6.35189 9.65328 6 10.8133 6 12C6 13.5913 6.63214 15.1174 7.75736 16.2426C8.88258 17.3679 10.4087 18 12 18ZM12 15C12.5933 15 13.1734 14.8241 13.6667 14.4944C14.1601 14.1648 14.5446 13.6962 14.7716 13.1481C14.9987 12.5999 15.0581 11.9967 14.9424 11.4147C14.8266 10.8328 14.5409 10.2982 14.1213 9.87868C13.7018 9.45912 13.1672 9.1734 12.5853 9.05765C12.0033 8.94189 11.4001 9.0013 10.8519 9.22836C10.3038 9.45543 9.83524 9.83994 9.50559 10.3333C9.17595 10.8266 9 11.4067 9 12C9 12.7957 9.31607 13.5587 9.87868 14.1213C10.4413 14.6839 11.2044 15 12 15Z" fill="#BBCDFE"/>
<path d="M13.25 13.8708C12.88 14.118 12.445 14.25 12 14.25C11.4033 14.25 10.831 14.0129 10.409 13.591C9.98705 13.169 9.75 12.5967 9.75 12C9.75 11.555 9.88196 11.12 10.1292 10.75C10.3764 10.38 10.7278 10.0916 11.139 9.92127C11.5501 9.75097 12.0025 9.70642 12.439 9.79323C12.8754 9.88005 13.2763 10.0943 13.591 10.409C13.9057 10.7237 14.1199 11.1246 14.2068 11.561C14.2936 11.9975 14.249 12.4499 14.0787 12.861C13.9084 13.2722 13.62 13.6236 13.25 13.8708Z" fill="#1F37F6"/>
</svg>
