<svg width="8" height="14" viewBox="0 0 8 14" fill="none" xmlns="http://www.w3.org/2000/svg">
<path d="M7.707 0.292787C7.89447 0.480314 7.99979 0.734622 7.99979 0.999786C7.99979 1.26495 7.89447 1.51926 7.707 1.70679L2.414 6.99979L7.707 12.2928C7.88916 12.4814 7.98995 12.734 7.98767 12.9962C7.9854 13.2584 7.88023 13.5092 7.69482 13.6946C7.50941 13.88 7.2586 13.9852 6.9964 13.9875C6.7342 13.9897 6.4816 13.8889 6.293 13.7068L0.293 7.70679C0.105529 7.51926 0.000213623 7.26495 0.000213623 6.99979C0.000213623 6.73462 0.105529 6.48031 0.293 6.29279L6.293 0.292787C6.48053 0.105316 6.73484 0 7 0C7.26516 0 7.51947 0.105316 7.707 0.292787Z" fill="#B9B7B4"/>
</svg>
