<svg width="79" height="201" viewBox="0 0 79 201" fill="none" xmlns="http://www.w3.org/2000/svg">
<path d="M19.6477 0.479837C19.3604 0.00814909 18.7451 -0.141345 18.2734 0.145933L10.5868 4.8274C10.1151 5.11467 9.96565 5.72994 10.2529 6.20163C10.5402 6.67331 11.1555 6.82281 11.6272 6.53553L18.4597 2.37423L22.621 9.20677C22.9083 9.67846 23.5235 9.82795 23.9952 9.54067C24.4669 9.2534 24.6164 8.63813 24.3291 8.16644L19.6477 0.479837ZM17.8219 0.763894C17.7415 1.09464 17.6614 1.42498 17.5815 1.75493L19.5253 2.22558C19.6051 1.89615 19.6851 1.56633 19.7653 1.23611L17.8219 0.763894ZM17.105 3.72987C16.9472 4.3866 16.7903 5.04174 16.6343 5.69529L18.5797 6.15947C18.7354 5.50702 18.892 4.85297 19.0496 4.19732L17.105 3.72987ZM16.1694 7.65117C16.0154 8.30154 15.8623 8.95032 15.7103 9.59751L17.6572 10.055C17.809 9.40893 17.9618 8.76128 18.1156 8.11203L16.1694 7.65117ZM15.257 11.5343C15.1052 12.1855 14.9545 12.835 14.8047 13.4829L16.7533 13.9333C16.9028 13.2866 17.0533 12.6383 17.2048 11.9883L15.257 11.5343ZM14.3484 15.4654C14.1974 16.1245 14.0474 16.7819 13.8985 17.4376L15.8489 17.8805C15.9975 17.2261 16.1472 16.5699 16.2979 15.9121L14.3484 15.4654ZM13.455 19.3997C13.3083 20.052 13.1626 20.7026 13.018 21.3515L14.9701 21.7865C15.1144 21.139 15.2598 20.4897 15.4063 19.8387L13.455 19.3997ZM12.5874 23.2931C12.4432 23.9467 12.3001 24.5986 12.1581 25.2487L14.112 25.6755C14.2537 25.0268 14.3965 24.3763 14.5404 23.7241L12.5874 23.2931ZM11.7261 27.2372C11.5833 27.8982 11.4416 28.5573 11.3012 29.2147L13.257 29.6326C13.3972 28.9768 13.5385 28.3191 13.681 27.6596L11.7261 27.2372ZM10.8834 31.1812C10.7453 31.8349 10.6084 32.4867 10.4727 33.1367L12.4305 33.5454C12.5659 32.897 12.7024 32.2467 12.8402 31.5945L10.8834 31.1812ZM10.0692 35.0813C9.93309 35.7416 9.7982 36.3999 9.66457 37.0564L11.6244 37.4553C11.7577 36.8005 11.8922 36.1438 12.028 35.4852L10.0692 35.0813ZM9.26171 39.0488C9.12873 39.7109 8.99706 40.3711 8.86672 41.0294L10.8286 41.4179C10.9586 40.7614 11.0899 40.103 11.2226 39.4426L9.26171 39.0488ZM8.47964 42.9981C8.35194 43.6524 8.22557 44.3047 8.10054 44.955L10.0646 45.3326C10.1892 44.6842 10.3153 44.0337 10.4426 43.3812L8.47964 42.9981ZM7.72909 46.9019C7.60209 47.5729 7.47654 48.2417 7.35244 48.9083L9.31867 49.2743C9.44239 48.6097 9.56757 47.9429 9.6942 47.2739L7.72909 46.9019ZM6.98453 50.9019C6.86335 51.5643 6.74364 52.2246 6.62541 52.8828L8.59389 53.2364C8.71175 52.5804 8.83108 51.9222 8.95188 51.2618L6.98453 50.9019ZM6.27513 54.8508C6.15984 55.5047 6.04605 56.1565 5.93374 56.8061L7.90451 57.1468C8.01643 56.4994 8.12985 55.8498 8.24475 55.1981L6.27513 54.8508ZM5.59271 58.7993C5.47917 59.47 5.36725 60.1383 5.25696 60.8044L7.23009 61.1311C7.33999 60.4675 7.45151 59.8015 7.56465 59.1331L5.59271 58.7993ZM4.931 62.7957C4.82398 63.4571 4.7186 64.1163 4.61488 64.7731L6.59039 65.0851C6.69372 64.4308 6.7987 63.7741 6.90532 63.1151L4.931 62.7957ZM4.30866 66.7367C4.20616 67.4025 4.10539 68.0658 4.00637 68.7268L5.98429 69.0231C6.08291 68.3648 6.18328 67.7042 6.28537 67.041L4.30866 66.7367ZM3.70887 70.7412C3.61152 71.4101 3.516 72.0766 3.42231 72.7406L5.40269 73.02C5.49597 72.3589 5.59109 71.6953 5.68803 71.0292L3.70887 70.7412ZM3.14674 74.7249C3.05672 75.3839 2.96855 76.0403 2.88223 76.6943L4.86503 76.956C4.95095 76.3051 5.03872 75.6516 5.12833 74.9956L3.14674 74.7249ZM2.62306 78.6941C2.53705 79.3704 2.45308 80.044 2.37115 80.7148L4.35639 80.9573C4.43792 80.2898 4.52149 79.6195 4.60708 78.9464L2.62306 78.6941ZM2.13148 82.7191C2.05364 83.3845 1.97786 84.0472 1.90414 84.7071L3.89178 84.9291C3.96511 84.2727 4.0405 83.6135 4.11794 82.9515L2.13148 82.7191ZM1.6892 86.6787C1.6172 87.3561 1.54741 88.0305 1.47988 88.7021L3.46984 88.9022C3.53699 88.2345 3.60638 87.5638 3.678 86.8901L1.6892 86.6787ZM1.2824 90.7249C1.21886 91.3962 1.15762 92.0645 1.09869 92.7298L3.09089 92.9063C3.14946 92.245 3.21033 91.5807 3.2735 90.9133L1.2824 90.7249ZM0.928836 94.7169C0.873934 95.3836 0.821409 96.0472 0.771275 96.7079L2.76554 96.8592C2.81535 96.2029 2.86753 95.5435 2.92209 94.881L0.928836 94.7169ZM0.623485 98.7468C0.576789 99.4232 0.532665 100.096 0.491131 100.766L2.4873 100.89C2.52854 100.225 2.57236 99.5563 2.61874 98.8845L0.623485 98.7468ZM0.374314 102.766C0.337976 103.429 0.304244 104.089 0.273136 104.746L2.2709 104.841C2.30177 104.189 2.33525 103.534 2.37132 102.875L0.374314 102.766ZM0.184503 106.788C0.157685 107.468 0.133759 108.145 0.112746 108.818L2.11177 108.88C2.13261 108.212 2.15634 107.541 2.18295 106.866L0.184503 106.788ZM0.058463 110.826C0.0432943 111.492 0.0310576 112.155 0.0217726 112.813L2.02157 112.842C2.03078 112.189 2.04291 111.532 2.05794 110.872L0.058463 110.826ZM0.00245422 114.847C-0.000851989 115.529 -0.000895977 116.208 0.0023452 116.882L2.00232 116.873C1.99911 116.205 1.99916 115.532 2.00243 114.856L0.00245422 114.847ZM0.0219473 118.894C0.0317818 119.561 0.0449244 120.224 0.0613983 120.882L2.06077 120.832C2.04447 120.18 2.03146 119.525 2.02173 118.865L0.0219473 118.894ZM0.123387 122.918C0.147927 123.601 0.176155 124.278 0.208098 124.952L2.20585 124.857C2.17428 124.191 2.14636 123.521 2.12209 122.846L0.123387 122.918ZM0.315102 126.96C0.354503 127.625 0.397647 128.285 0.444561 128.941L2.43947 128.799C2.39314 128.151 2.35053 127.498 2.3116 126.841L0.315102 126.96ZM0.604363 130.988C0.661883 131.667 0.723583 132.341 0.789492 133.011L2.77986 132.815C2.71486 132.154 2.65399 131.49 2.59722 130.82L0.604363 130.988ZM0.999886 135.004C1.07552 135.675 1.15554 136.341 1.23998 137.002L3.22386 136.749C3.14069 136.097 3.06184 135.441 2.9873 134.78L0.999886 135.004ZM1.51534 139.031C1.61186 139.702 1.71311 140.368 1.81915 141.029L3.79387 140.712C3.68959 140.062 3.58997 139.407 3.49498 138.746L1.51534 139.031ZM2.15161 142.995C2.27223 143.673 2.39809 144.345 2.52924 145.012L4.49163 144.626C4.36287 143.971 4.23924 143.311 4.1207 142.644L2.15161 142.995ZM2.94042 147.003C3.08284 147.661 3.23063 148.313 3.38384 148.96L5.32992 148.499C5.17977 147.865 5.03486 147.226 4.89515 146.58L2.94042 147.003ZM3.87367 150.935C4.04559 151.599 4.22349 152.256 4.40741 152.907L6.33202 152.363C6.15214 151.726 5.97805 151.083 5.80973 150.434L3.87367 150.935ZM4.9773 154.84C5.17725 155.491 5.38352 156.135 5.59617 156.772L7.49342 156.14C7.28588 155.517 7.08446 154.888 6.8891 154.253L4.9773 154.84ZM6.26815 158.706C6.49885 159.344 6.73626 159.975 6.98044 160.598L8.84281 159.869C8.60504 159.262 8.37374 158.647 8.14885 158.026L6.26815 158.706ZM7.74662 162.48C8.01432 163.112 8.28938 163.737 8.57185 164.354L10.3905 163.522C10.1161 162.923 9.84876 162.315 9.5884 161.7L7.74662 162.48ZM9.4416 166.184C9.74402 166.796 10.0542 167.401 10.3721 167.998L12.1373 167.058C11.8291 166.479 11.5283 165.893 11.2349 165.298L9.4416 166.184ZM11.3631 169.789C11.7015 170.378 12.048 170.958 12.4027 171.531L14.1031 170.478C13.7601 169.924 13.4248 169.362 13.0972 168.792L11.3631 169.789ZM13.5093 173.252C13.8889 173.821 14.277 174.381 14.6738 174.933L16.2975 173.765C15.9144 173.232 15.5395 172.691 15.1728 172.142L13.5093 173.252ZM15.8902 176.562C16.3095 177.103 16.7376 177.636 17.1747 178.159L18.7099 176.877C18.2885 176.373 17.8757 175.859 17.4713 175.337L15.8902 176.562ZM18.5135 179.704C18.969 180.21 19.4335 180.707 19.9071 181.196L21.343 179.804C20.8867 179.333 20.4392 178.854 20.0003 178.366L18.5135 179.704ZM21.3571 182.637C21.8496 183.108 22.3512 183.57 22.8621 184.023L24.1896 182.527C23.6974 182.091 23.2142 181.645 22.7398 181.191L21.3571 182.637ZM24.4144 185.35C24.9386 185.781 25.4719 186.204 26.0143 186.617L27.227 185.027C26.7041 184.628 26.1902 184.221 25.6851 183.805L24.4144 185.35ZM27.6689 187.831C28.2206 188.221 28.7813 188.602 29.3508 188.974L30.4452 187.3C29.8955 186.941 29.3546 186.573 28.8224 186.197L27.6689 187.831ZM31.0782 190.06C31.6629 190.414 32.2564 190.759 32.8588 191.095L33.834 189.349C33.2515 189.024 32.6779 188.691 32.1131 188.349L31.0782 190.06ZM34.6379 192.051C35.2389 192.361 35.8484 192.663 36.4663 192.957L37.3257 191.151C36.727 190.866 36.1368 190.574 35.555 190.273L34.6379 192.051ZM38.3388 193.812C38.9492 194.079 39.5675 194.339 40.1936 194.592L40.9413 192.737C40.3332 192.491 39.7332 192.239 39.1411 191.98L38.3388 193.812ZM42.0957 195.326C42.7351 195.563 43.3824 195.792 44.0376 196.014L44.6787 194.119C44.0409 193.903 43.4112 193.68 42.7895 193.45L42.0957 195.326ZM45.9439 196.631C46.5866 196.83 47.2366 197.022 47.8939 197.207L48.4367 195.282C47.7954 195.102 47.1616 194.914 46.5353 194.72L45.9439 196.631ZM49.8879 197.743C50.5283 197.907 51.1755 198.064 51.8294 198.215L52.2803 196.267C51.641 196.119 51.0086 195.965 50.3831 195.805L49.8879 197.743ZM53.805 198.65C54.4702 198.788 55.1422 198.921 55.8209 199.047L56.1869 197.081C55.522 196.957 54.864 196.827 54.2129 196.692L53.805 198.65ZM57.8078 199.396C58.4626 199.505 59.1236 199.607 59.7907 199.705L60.0796 197.726C59.4249 197.63 58.7764 197.529 58.1343 197.423L57.8078 199.396ZM61.8104 199.98C62.4849 200.066 63.1654 200.147 63.852 200.222L64.069 198.233C63.394 198.16 62.7252 198.081 62.0627 197.996L61.8104 199.98ZM65.8282 200.421C66.4925 200.482 67.1623 200.539 67.8377 200.591L67.9904 198.596C67.3254 198.546 66.6662 198.49 66.0126 198.429L65.8282 200.421ZM69.8805 200.731C70.5505 200.772 71.2258 200.808 71.9065 200.84L71.9992 198.842C71.3281 198.811 70.6625 198.775 70.0024 198.735L69.8805 200.731ZM73.8955 200.918C74.5636 200.94 75.2366 200.957 75.9147 200.971L75.9533 198.971C75.284 198.958 74.6198 198.941 73.9608 198.919L73.8955 200.918ZM77.9642 200.997C78.3082 200.999 78.6535 201 79 201V199C78.6577 199 78.3167 198.999 77.9769 198.997L77.9642 200.997Z" fill="#1D97DC"/>
</svg>
