<svg width="24" height="24" viewBox="0 0 24 24" fill="none" xmlns="http://www.w3.org/2000/svg">
<path d="M12.293 5.29279C12.4805 5.10532 12.7348 5 13 5C13.2652 5 13.5195 5.10532 13.707 5.29279L19.707 11.2928C19.8945 11.4803 19.9998 11.7346 19.9998 11.9998C19.9998 12.265 19.8945 12.5193 19.707 12.7068L13.707 18.7068C13.5184 18.8889 13.2658 18.9897 13.0036 18.9875C12.7414 18.9852 12.4906 18.88 12.3052 18.6946C12.1198 18.5092 12.0146 18.2584 12.0123 17.9962C12.01 17.734 12.1108 17.4814 12.293 17.2928L16.586 12.9998H5C4.73478 12.9998 4.48043 12.8944 4.29289 12.7069C4.10536 12.5194 4 12.265 4 11.9998C4 11.7346 4.10536 11.4802 4.29289 11.2927C4.48043 11.1051 4.73478 10.9998 5 10.9998H16.586L12.293 6.70679C12.1055 6.51926 12.0002 6.26495 12.0002 5.99979C12.0002 5.73462 12.1055 5.48031 12.293 5.29279Z" fill="#7F99FC"/>
</svg>
