<svg width="12" height="12" viewBox="0 0 12 12" fill="none" xmlns="http://www.w3.org/2000/svg">
<path d="M6 1C3.8 1 2 2.8 2 5C2 7.7 5.5 10.75 5.65 10.9C5.75 10.95 5.9 11 6 11C6.1 11 6.25 10.95 6.35 10.9C6.5 10.75 10 7.7 10 5C10 2.8 8.2 1 6 1ZM6 9.85C4.95 8.85 3 6.7 3 5C3 3.35 4.35 2 6 2C7.65 2 9 3.35 9 5C9 6.65 7.05 8.85 6 9.85ZM6 3C4.9 3 4 3.9 4 5C4 6.1 4.9 7 6 7C7.1 7 8 6.1 8 5C8 3.9 7.1 3 6 3ZM6 6C5.45 6 5 5.55 5 5C5 4.45 5.45 4 6 4C6.55 4 7 4.45 7 5C7 5.55 6.55 6 6 6Z" fill="#BDBDBD"/>
<path fill-rule="evenodd" clip-rule="evenodd" d="M6 9.85C4.95 8.85 3 6.7 3 5C3 3.35 4.35 2 6 2C7.65 2 9 3.35 9 5C9 6.65 7.05 8.85 6 9.85ZM4 5C4 3.9 4.9 3 6 3C7.1 3 8 3.9 8 5C8 6.1 7.1 7 6 7C4.9 7 4 6.1 4 5Z" fill="#BDBDBD"/>
</svg>
