<svg width="24" height="24" viewBox="0 0 24 24" fill="none" xmlns="http://www.w3.org/2000/svg">
<g id="mi:arrow-right">
<g id="Group">
<path id="Vector" d="M11.707 18.7072C11.5195 18.8947 11.2652 19 11 19C10.7348 19 10.4805 18.8947 10.293 18.7072L4.293 12.7072C4.10553 12.5197 4.00021 12.2654 4.00021 12.0002C4.00021 11.735 4.10553 11.4807 4.293 11.2932L10.293 5.29321C10.4816 5.11105 10.7342 5.01026 10.9964 5.01254C11.2586 5.01482 11.5094 5.11999 11.6948 5.30539C11.8802 5.4908 11.9854 5.74162 11.9877 6.00381C11.99 6.26601 11.8892 6.51861 11.707 6.70721L7.414 11.0002L19 11.0002C19.2652 11.0002 19.5196 11.1056 19.7071 11.2931C19.8946 11.4806 20 11.735 20 12.0002C20 12.2654 19.8946 12.5198 19.7071 12.7073C19.5196 12.8949 19.2652 13.0002 19 13.0002L7.414 13.0002L11.707 17.2932C11.8945 17.4807 11.9998 17.735 11.9998 18.0002C11.9998 18.2654 11.8945 18.5197 11.707 18.7072Z" fill="#7F99FC"/>
</g>
</g>
</svg>
