<svg width="49" height="30" viewBox="0 0 49 30" fill="none" xmlns="http://www.w3.org/2000/svg">
<g opacity="0.25">
<rect x="3.02083" y="3.33333" width="23.9583" height="23.9583" rx="11.9792" fill="#E96D6D"/>
<rect x="3.02083" y="3.33333" width="23.9583" height="23.9583" rx="11.9792" stroke="#E96D6D" stroke-width="5.20833"/>
</g>
<g opacity="0.25">
<rect x="12.3958" y="3.33333" width="23.9583" height="23.9583" rx="11.9792" fill="#2DA861"/>
<rect x="12.3958" y="3.33333" width="23.9583" height="23.9583" rx="11.9792" stroke="#2DA861" stroke-width="5.20833"/>
</g>
<g opacity="0.25">
<rect x="21.7708" y="3.33333" width="23.9583" height="23.9583" rx="11.9792" fill="#2DA861"/>
<rect x="21.7708" y="3.33333" width="23.9583" height="23.9583" rx="11.9792" stroke="#069ED0" stroke-width="5.20833"/>
</g>
<rect x="9.53125" y="9.84375" width="10.9375" height="10.9375" rx="5.46875" fill="#E96D6D"/>
<rect x="9.53125" y="9.84375" width="10.9375" height="10.9375" rx="5.46875" stroke="white" stroke-width="1.5625"/>
<rect x="18.9062" y="9.84375" width="10.9375" height="10.9375" rx="5.46875" fill="#2DA861"/>
<rect x="18.9062" y="9.84375" width="10.9375" height="10.9375" rx="5.46875" stroke="white" stroke-width="1.5625"/>
<rect x="28.2812" y="9.84375" width="10.9375" height="10.9375" rx="5.46875" fill="#2DA861"/>
<rect x="28.2812" y="9.84375" width="10.9375" height="10.9375" rx="5.46875" stroke="white" stroke-width="1.5625"/>
</svg>
