<svg width="30" height="32" viewBox="2 5 24 24" fill="none" xmlns="http://www.w3.org/2000/svg">
<g clip-path="url(#clip0_857_14676)">
<path d="M21.1895 6.23661C21.3549 6.3211 21.4934 6.44995 21.5896 6.60872C21.6859 6.7675 21.736 6.94993 21.7344 7.13558L21.5679 27.2595C21.5661 27.4483 21.511 27.6327 21.4088 27.7915C21.3067 27.9502 21.1617 28.0768 20.9906 28.1566C20.8195 28.2364 20.6293 28.2662 20.442 28.2424C20.2548 28.2186 20.078 28.1423 19.9323 28.0224L12.9958 22.2905L4.28545 20.0364C4.1026 19.9889 3.93693 19.8907 3.80762 19.7529C3.67832 19.6152 3.59066 19.4437 3.5548 19.2582C3.51895 19.0728 3.53636 18.8809 3.60502 18.705C3.67369 18.529 3.79079 18.376 3.94278 18.2639L20.1419 6.32275C20.2913 6.21255 20.4684 6.14613 20.6535 6.13091C20.8385 6.1157 21.0241 6.1523 21.1895 6.23661ZM13.9159 20.4877L19.5858 25.142L19.6429 18.2485L19.5984 9.35404L16.7572 14.9209L13.9159 20.4877ZM19.5984 9.35404L12.3695 14.5362L6.82038 18.6267L13.9159 20.4877L19.5984 9.35404Z" fill="#2F80ED"/>
</g>
</svg>
