<svg width="33" height="32" viewBox="0 0 33 32" fill="none" xmlns="http://www.w3.org/2000/svg">
<path d="M6.52344 8C6.52344 7.46957 6.73415 6.96086 7.10922 6.58579C7.4843 6.21071 7.993 6 8.52344 6H18.5234C19.0539 6 19.5626 6.21071 19.9377 6.58579C20.3127 6.96086 20.5234 7.46957 20.5234 8V12H24.5234C25.0539 12 25.5626 12.2107 25.9377 12.5858C26.3127 12.9609 26.5234 13.4696 26.5234 14V24C26.5234 24.5304 26.3127 25.0391 25.9377 25.4142C25.5626 25.7893 25.0539 26 24.5234 26H14.5234C13.993 26 13.4843 25.7893 13.1092 25.4142C12.7342 25.0391 12.5234 24.5304 12.5234 24V20H8.52344C7.993 20 7.4843 19.7893 7.10922 19.4142C6.73415 19.0391 6.52344 18.5304 6.52344 18V8ZM14.5234 20V24H24.5234V14H20.5234V18C20.5234 18.5304 20.3127 19.0391 19.9377 19.4142C19.5626 19.7893 19.0539 20 18.5234 20H14.5234ZM18.5234 18V8H8.52344V18H18.5234Z" fill="#989693"/>
</svg>
