<svg width="10" height="8" viewBox="0 0 10 8" fill="none" xmlns="http://www.w3.org/2000/svg">
<path d="M9.64202 0.25267C9.84 0.428853 9.95996 0.676424 9.97552 0.940993C9.99108 1.20556 9.90098 1.46549 9.72502 1.66367L4.39202 7.66367C4.2982 7.76925 4.18308 7.85375 4.05424 7.91162C3.9254 7.96949 3.78576 7.99941 3.64452 7.99941C3.50328 7.99941 3.36364 7.96949 3.2348 7.91162C3.10596 7.85375 2.99084 7.76925 2.89702 7.66367L0.231017 4.66367C0.0651359 4.46413 -0.0166859 4.20792 0.00283605 3.94917C0.022358 3.69042 0.141695 3.44939 0.335638 3.27699C0.529581 3.1046 0.782941 3.01434 1.0422 3.02529C1.30145 3.03624 1.5463 3.14754 1.72502 3.33567L3.64502 5.49467L8.23102 0.33467C8.40734 0.136825 8.65498 0.0170611 8.91955 0.00168594C9.18411 -0.0136893 9.44396 0.0765821 9.64202 0.25267Z" fill="white"/>
</svg>
