<svg width="16" height="16" viewBox="2 2 12 12" fill="none" xmlns="http://www.w3.org/2000/svg">
<path d="M11.5 4H4.5C4.10218 4 3.72064 4.15804 3.43934 4.43934C3.15804 4.72064 3 5.10218 3 5.5V10.5C3 10.8978 3.15804 11.2794 3.43934 11.5607C3.72064 11.842 4.10218 12 4.5 12H11.5C11.8978 12 12.2794 11.842 12.5607 11.5607C12.842 11.2794 13 10.8978 13 10.5V5.5C13 5.10218 12.842 4.72064 12.5607 4.43934C12.2794 4.15804 11.8978 4 11.5 4ZM11.165 5L8 7.375L4.835 5H11.165ZM11.5 11H4.5C4.36739 11 4.24021 10.9473 4.14645 10.8536C4.05268 10.7598 4 10.6326 4 10.5V5.625L7.7 8.4C7.78655 8.46491 7.89181 8.5 8 8.5C8.10819 8.5 8.21345 8.46491 8.3 8.4L12 5.625V10.5C12 10.6326 11.9473 10.7598 11.8536 10.8536C11.7598 10.9473 11.6326 11 11.5 11Z" fill="#1F37F6"/>
</svg>
