<svg width="33" height="33" viewBox="0 0 33 33" fill="none" xmlns="http://www.w3.org/2000/svg">
<path d="M16.6641 8.86133C13.3641 8.86133 10.6641 11.5613 10.6641 14.8613C10.6641 18.9113 15.9141 23.4863 16.1391 23.7113C16.2891 23.7863 16.5141 23.8613 16.6641 23.8613C16.8141 23.8613 17.0391 23.7863 17.1891 23.7113C17.4141 23.4863 22.6641 18.9113 22.6641 14.8613C22.6641 11.5613 19.9641 8.86133 16.6641 8.86133ZM16.6641 22.1363C15.0891 20.6363 12.1641 17.4113 12.1641 14.8613C12.1641 12.3863 14.1891 10.3613 16.6641 10.3613C19.1391 10.3613 21.1641 12.3863 21.1641 14.8613C21.1641 17.3363 18.2391 20.6363 16.6641 22.1363ZM16.6641 11.8613C15.0141 11.8613 13.6641 13.2113 13.6641 14.8613C13.6641 16.5113 15.0141 17.8613 16.6641 17.8613C18.3141 17.8613 19.6641 16.5113 19.6641 14.8613C19.6641 13.2113 18.3141 11.8613 16.6641 11.8613ZM16.6641 16.3613C15.8391 16.3613 15.1641 15.6863 15.1641 14.8613C15.1641 14.0363 15.8391 13.3613 16.6641 13.3613C17.4891 13.3613 18.1641 14.0363 18.1641 14.8613C18.1641 15.6863 17.4891 16.3613 16.6641 16.3613Z" fill="#7F99FC"/>
<path fill-rule="evenodd" clip-rule="evenodd" d="M16.6641 22.1363C15.0891 20.6363 12.1641 17.4113 12.1641 14.8613C12.1641 12.3863 14.1891 10.3613 16.6641 10.3613C19.1391 10.3613 21.1641 12.3863 21.1641 14.8613C21.1641 17.3363 18.2391 20.6363 16.6641 22.1363ZM13.6641 14.8613C13.6641 13.2113 15.0141 11.8613 16.6641 11.8613C18.3141 11.8613 19.6641 13.2113 19.6641 14.8613C19.6641 16.5113 18.3141 17.8613 16.6641 17.8613C15.0141 17.8613 13.6641 16.5113 13.6641 14.8613Z" fill="#7F99FC"/>
</svg>
