<svg width="13" height="13" viewBox="0 0 13 13" fill="none" xmlns="http://www.w3.org/2000/svg">
<g id="majesticons:headset-line" clip-path="url(#clip0_8609_82235)">
<path id="Union" fill-rule="evenodd" clip-rule="evenodd" d="M5.97266 2C4.72703 2 3.85917 2.51337 3.29589 3.14527C2.71604 3.79577 2.47266 4.5557 2.47266 5V6.5H3.47266C3.87048 6.5 4.25201 6.65804 4.53332 6.93934C4.81462 7.22064 4.97266 7.60217 4.97266 8V9C4.97266 9.39783 4.81462 9.77936 4.53332 10.0607C4.25201 10.342 3.87048 10.5 3.47266 10.5H2.97266C2.57483 10.5 2.1933 10.342 1.912 10.0607C1.63069 9.77936 1.47266 9.39783 1.47266 9V5C1.47266 4.2778 1.82928 3.28773 2.54942 2.47986C3.28614 1.65338 4.41828 1 5.97266 1H6.97266C8.52703 1 9.65917 1.65338 10.3959 2.47986C11.116 3.28773 11.4727 4.2778 11.4727 5V9C11.4727 9.39783 11.3146 9.77936 11.0333 10.0607C10.9057 10.1882 10.7575 10.2905 10.5965 10.3641C10.582 10.3941 10.5641 10.4231 10.543 10.4506C9.72121 11.5202 8.42752 12.2112 6.97266 12.2112C6.69651 12.2112 6.47266 11.9873 6.47266 11.7112C6.47266 11.4351 6.69651 11.2112 6.97266 11.2112C7.78966 11.2112 8.54123 10.9316 9.13707 10.462C8.86466 10.3994 8.61279 10.2615 8.412 10.0607C8.13069 9.77936 7.97266 9.39783 7.97266 9V8C7.97266 7.60217 8.13069 7.22064 8.412 6.93934C8.6933 6.65804 9.07483 6.5 9.47266 6.5H10.4727V5C10.4727 4.5557 10.2293 3.79577 9.64942 3.14527C9.08614 2.51337 8.21828 2 6.97266 2H5.97266ZM2.47266 9V7.5H3.47266C3.60526 7.5 3.73244 7.55268 3.82621 7.64645C3.91998 7.74022 3.97266 7.86739 3.97266 8V9C3.97266 9.13261 3.91998 9.25978 3.82621 9.35355C3.73244 9.44732 3.60526 9.5 3.47266 9.5H2.97266C2.84005 9.5 2.71287 9.44732 2.6191 9.35355C2.52533 9.25979 2.47266 9.13261 2.47266 9ZM9.47266 7.5H10.4727V9C10.4727 9.13261 10.42 9.25978 10.3262 9.35355C10.2324 9.44732 10.1053 9.5 9.97266 9.5H9.47266C9.34005 9.5 9.21287 9.44732 9.1191 9.35355C9.02533 9.25978 8.97266 9.13261 8.97266 9V8C8.97266 7.86739 9.02533 7.74022 9.1191 7.64645C9.21287 7.55268 9.34005 7.5 9.47266 7.5Z" fill="#4764FA"/>
</g>
<defs>
<clipPath id="clip0_8609_82235">
<rect width="12" height="12" fill="white" transform="translate(0.472656 0.5)"/>
</clipPath>
</defs>
</svg>
