<svg width="16" height="16" viewBox="0 0 16 16" fill="none" xmlns="http://www.w3.org/2000/svg">
<path d="M0 8C0 3.58172 3.58172 0 8 0C12.4183 0 16 3.58172 16 8C16 12.4183 12.4183 16 8 16C3.58172 16 0 12.4183 0 8Z" fill="#E0E0E0"/>
<path d="M4.64639 4.64642C4.74016 4.55268 4.86731 4.50003 4.99989 4.50003C5.13248 4.50003 5.25963 4.55268 5.35339 4.64642L7.99989 7.29292L10.6464 4.64642C10.6925 4.59866 10.7477 4.56057 10.8087 4.53437C10.8697 4.50816 10.9353 4.49437 11.0017 4.49379C11.0681 4.49322 11.1339 4.50587 11.1954 4.53101C11.2568 4.55615 11.3126 4.59327 11.3596 4.64022C11.4065 4.68717 11.4437 4.74299 11.4688 4.80444C11.4939 4.86589 11.5066 4.93173 11.506 4.99812C11.5054 5.06451 11.4916 5.13012 11.4654 5.19112C11.4392 5.25212 11.4011 5.3073 11.3534 5.35342L8.70689 7.99992L11.3534 10.6464C11.4445 10.7407 11.4949 10.867 11.4937 10.9981C11.4926 11.1292 11.44 11.2546 11.3473 11.3473C11.2546 11.44 11.1292 11.4926 10.9981 11.4938C10.867 11.4949 10.7407 11.4445 10.6464 11.3534L7.99989 8.70692L5.35339 11.3534C5.25909 11.4445 5.13279 11.4949 5.00169 11.4938C4.87059 11.4926 4.74519 11.44 4.65248 11.3473C4.55978 11.2546 4.5072 11.1292 4.50606 10.9981C4.50492 10.867 4.55531 10.7407 4.64639 10.6464L7.29289 7.99992L4.64639 5.35342C4.55266 5.25965 4.5 5.1325 4.5 4.99992C4.5 4.86734 4.55266 4.74018 4.64639 4.64642Z" fill="#333333"/>
</svg>
