<svg width="16" height="16" viewBox="0 0 16 16" fill="none" xmlns="http://www.w3.org/2000/svg">
<path fill-rule="evenodd" clip-rule="evenodd" d="M6.383 11.1064L4.82439 9.54779L10.1878 9.55133C10.2187 9.55145 10.2495 9.54871 10.2798 9.54317L13.3839 9.54317C13.7817 9.54317 14.1633 9.38514 14.4446 9.10383C14.7259 8.82253 14.8839 8.441 14.8839 8.04317L14.8839 4.54708L14.8838 4.54708C14.8839 4.54456 14.8839 4.54204 14.8839 4.53951C14.8839 4.26337 14.66 4.03951 14.3839 4.03951C14.1078 4.03951 13.8839 4.26337 13.8839 4.53951C13.8839 4.54204 13.8839 4.54456 13.884 4.54708L13.8839 4.54708L13.8839 8.04317C13.8839 8.17578 13.8312 8.30296 13.7375 8.39673C13.6437 8.4905 13.5165 8.54317 13.3839 8.54317L9.3839 8.54317L9.3839 8.54671L4.82439 8.5437L6.383 6.98509C6.47677 6.89132 6.52945 6.76414 6.52945 6.63153C6.52945 6.49893 6.47677 6.37175 6.383 6.27798C6.28923 6.18421 6.16206 6.13153 6.02945 6.13153C5.89684 6.13153 5.76966 6.18421 5.67589 6.27798L3.26168 8.69219C3.16791 8.78596 3.11523 8.91314 3.11523 9.04575C3.11523 9.17836 3.16791 9.30553 3.26168 9.3993L5.6759 11.8135C5.76966 11.9073 5.89684 11.96 6.02945 11.96C6.16206 11.96 6.28923 11.9073 6.383 11.8135C6.47677 11.7197 6.52945 11.5926 6.52945 11.46C6.52945 11.3274 6.47677 11.2002 6.383 11.1064Z" fill="#4764FA"/>
</svg>
