<svg width="19" height="24" viewBox="0 0 19 24" fill="none" xmlns="http://www.w3.org/2000/svg">
<path d="M9.48507 24L9.32252 23.751C8.88384 23.0811 7.56558 22.707 5.40225 22.6383C5.28274 22.6324 5.20221 22.6309 5.1573 22.6264C-0.0415174 22.0378 -0.000691267 17.7216 5.09969e-05 17.6778V0H18.9679V17.683C18.9686 17.7216 19.0091 22.0375 13.811 22.6253C13.7653 22.6316 13.6863 22.6331 13.5653 22.6372C11.4023 22.707 10.083 23.0807 9.64503 23.7502L9.48507 24ZM0.393082 0.400451V17.683C0.388628 17.85 0.366356 21.6808 5.19961 22.2286C5.2345 22.233 5.30909 22.2353 5.41487 22.2371C6.218 22.2624 8.56169 22.3377 9.48433 23.3219C10.4077 22.3388 12.7514 22.2627 13.5545 22.2364C13.6596 22.2334 13.7357 22.2304 13.7705 22.2286C18.6142 21.6797 18.5778 17.7268 18.5771 17.6874V0.400451H0.393082Z" fill="#4764FA"/>
<path d="M12.1858 15.0391H10.6627V13.9023H12.1858V15.0391ZM10.728 14.9719H12.1198V13.9695H10.728V14.9719Z" fill="#4764FA"/>
<path d="M11.6814 16.6221C11.5645 16.6221 11.4554 16.5868 11.3545 16.5486L11.3652 16.484H11.3834V16.4889C11.5052 16.536 11.6373 16.5738 11.7783 16.5468C11.8225 16.539 11.8596 16.5156 11.8793 16.4833C11.9 16.4529 11.9045 16.4165 11.8963 16.3786C11.8908 16.3512 11.8726 16.3308 11.8499 16.3089C11.8377 16.2959 11.8247 16.2832 11.8132 16.2684C11.7661 16.2049 11.821 16.1318 11.8403 16.1055L11.893 16.1448C11.8544 16.199 11.8581 16.2168 11.8666 16.2287C11.8744 16.2406 11.8863 16.2521 11.8963 16.2628C11.9219 16.2899 11.9516 16.3204 11.9602 16.3668C11.9713 16.4209 11.9639 16.4766 11.9349 16.5219C11.903 16.5701 11.8514 16.6028 11.7898 16.6147C11.7531 16.6188 11.7167 16.6221 11.6814 16.6221ZM12.538 16.6087C12.4924 16.6087 12.446 16.6009 12.4048 16.5731C12.2938 16.5033 12.3213 16.3861 12.3432 16.2925C12.3525 16.2539 12.3606 16.2164 12.3621 16.1823C12.3554 16.1767 12.3469 16.1708 12.3387 16.1663L12.3684 16.1062C12.3818 16.114 12.4282 16.1396 12.4282 16.1693C12.4308 16.215 12.4185 16.2614 12.407 16.3085C12.3833 16.4102 12.3721 16.4744 12.4397 16.5174C12.4846 16.5475 12.5395 16.543 12.5978 16.5397C12.6193 16.539 12.639 16.5364 12.6601 16.5364C12.7622 16.5364 12.8991 16.474 12.9515 16.3571L13.0108 16.3853C12.9463 16.5289 12.7859 16.6035 12.6601 16.6035C12.6405 16.6035 12.6223 16.605 12.6033 16.6065C12.5814 16.6072 12.5599 16.6087 12.538 16.6087ZM11.35 16.2988C11.3044 16.2988 11.2617 16.2933 11.2201 16.2907L11.1715 16.2844L11.1774 16.2179L11.2268 16.2231C11.3096 16.2317 11.3886 16.2417 11.4877 16.2153C11.54 16.2001 11.6017 16.1611 11.6124 16.111C11.6198 16.0899 11.6232 16.0695 11.6269 16.0487C11.6399 15.9789 11.6544 15.9014 11.7297 15.8694C11.7995 15.8405 11.8544 15.8783 11.9038 15.9114C11.9435 15.9385 11.9813 15.9644 12.0262 15.9578L12.0351 16.0235C11.9668 16.0346 11.9145 15.9997 11.8674 15.9678C11.8195 15.9359 11.7898 15.9162 11.7538 15.9307C11.7145 15.9485 11.7019 15.9919 11.6892 16.0621C11.6859 16.0847 11.6814 16.107 11.6755 16.1285C11.6566 16.2083 11.5723 16.2599 11.5037 16.2803C11.448 16.2933 11.3972 16.2988 11.35 16.2988ZM12.6375 16.2684L12.5996 16.2194C12.6475 16.1374 12.6664 16.068 12.6538 16.0205C12.6471 15.9964 12.6319 15.9767 12.6067 15.9615C12.5718 15.9403 12.538 15.9537 12.4883 15.9741C12.4463 15.9912 12.4 16.0112 12.3484 16.0034L12.3565 15.9366C12.3914 15.9422 12.4259 15.9281 12.4623 15.9125C12.5157 15.8902 12.5755 15.8657 12.6386 15.9043C12.6798 15.9277 12.7073 15.9607 12.7173 16.0045C12.7306 16.0554 12.7217 16.1181 12.6891 16.1894C12.6928 16.1886 12.6958 16.1886 12.6972 16.1879C12.7466 16.179 12.793 16.1697 12.8227 16.1415C12.8379 16.1289 12.8516 16.1185 12.8654 16.1081C12.8887 16.0899 12.9103 16.0754 12.9244 16.0524L12.9786 16.0895C12.9574 16.1222 12.9292 16.1437 12.9025 16.1623C12.891 16.1704 12.8791 16.1808 12.8661 16.1908C12.8219 16.2313 12.764 16.2424 12.7087 16.2524C12.6854 16.2576 12.6605 16.2617 12.6375 16.2684Z" fill="#4764FA"/>
<path d="M13.2609 16.8971H10.882V15.6327H13.2609V16.8971ZM10.9469 16.8314H13.1956V15.6995H10.9469V16.8314Z" fill="#4764FA"/>
<path d="M11.9067 14.8666C11.8871 14.8614 11.8678 14.857 11.8481 14.8514C11.7605 14.8291 11.6703 14.8069 11.6083 14.7378L11.6031 14.7679C11.4532 14.7445 11.3081 14.7872 11.1864 14.8328L11.1637 14.7698C11.284 14.7245 11.4254 14.6829 11.5768 14.6974C11.576 14.6963 11.576 14.6948 11.5753 14.694C11.5319 14.628 11.5089 14.5404 11.5182 14.4636C11.4246 14.4387 11.3304 14.3808 11.3059 14.2906C11.2984 14.2951 11.2899 14.2984 11.2825 14.3021C11.2146 14.3333 11.1455 14.3656 11.1218 14.4317L11.0609 14.4094C11.0939 14.3166 11.1797 14.2769 11.2543 14.2413C11.2765 14.2324 11.2977 14.2208 11.3177 14.2108L11.3678 14.1823L11.3664 14.2405C11.3615 14.3259 11.4577 14.376 11.5337 14.399C11.5497 14.3574 11.5775 14.3233 11.615 14.3014C11.6837 14.2687 11.7783 14.2628 11.8358 14.3207C11.926 14.4072 11.9758 14.5731 11.8956 14.687L11.8422 14.648C11.8993 14.5664 11.8622 14.438 11.7906 14.3686C11.7557 14.3344 11.69 14.3396 11.644 14.3608C11.6158 14.3793 11.5953 14.4086 11.5861 14.4498C11.5716 14.5144 11.589 14.5972 11.6295 14.6588C11.6774 14.7386 11.7672 14.7612 11.8629 14.7865C11.8848 14.792 11.9034 14.7954 11.9238 14.8017L11.9067 14.8666ZM11.1871 14.7007C11.1819 14.7007 11.1782 14.7007 11.1719 14.7007L11.1789 14.6347C11.222 14.6376 11.2684 14.6161 11.2814 14.5868C11.2906 14.5656 11.2851 14.5586 11.2806 14.5556C11.2617 14.5359 11.2083 14.5304 11.1719 14.5482L11.1415 14.4903C11.2001 14.458 11.2851 14.4665 11.3255 14.5074C11.3545 14.5352 11.3604 14.5753 11.34 14.6157C11.3174 14.6669 11.2535 14.7007 11.1871 14.7007ZM11.7705 14.6061L11.7059 14.5983C11.7089 14.5745 11.7015 14.5552 11.6792 14.5215L11.733 14.4829C11.7598 14.5207 11.7765 14.5582 11.7705 14.6061Z" fill="#4764FA"/>
<path d="M9.01965 16.1761C9.03264 16.1902 9.03933 16.2043 9.04155 16.2147C9.09203 16.2207 9.11986 16.2459 9.14287 16.2671C9.1451 16.2689 9.14658 16.2715 9.14955 16.2719C9.16885 16.2526 9.19223 16.2396 9.21969 16.2325C9.16514 16.1843 9.09574 16.1657 9.01965 16.1761Z" fill="#4764FA"/>
<path d="M10.0548 16.2255C10.0177 16.237 10.0106 16.2738 10.0017 16.3305C9.99504 16.3647 9.99096 16.4003 9.975 16.4289C9.95125 16.4716 9.89892 16.4586 9.85698 16.4482C9.84882 16.4452 9.83731 16.4419 9.82877 16.4404C9.82803 16.4471 9.8258 16.4519 9.82506 16.459C9.81764 16.4805 9.8091 16.4994 9.79834 16.5183C9.90411 16.5903 10.0288 16.5881 10.1431 16.5102C10.1557 16.5024 10.1665 16.4972 10.178 16.4909C10.2214 16.4697 10.2589 16.4523 10.2686 16.4096C10.2823 16.3554 10.2652 16.3027 10.2244 16.2641C10.1773 16.2207 10.1112 16.2066 10.0548 16.2255Z" fill="#4764FA"/>
<path d="M5.47644 15.3047V17.2676H13.605V15.3047H5.47644ZM7.59598 16.3554C7.61973 16.3372 7.64088 16.322 7.6561 16.2997L7.71028 16.3364C7.68802 16.371 7.66092 16.3906 7.6342 16.4095C7.6227 16.4177 7.61045 16.4277 7.59672 16.4381C7.55441 16.4786 7.49577 16.4893 7.4401 16.4997C7.41598 16.5046 7.39 16.5083 7.36662 16.5161L7.32913 16.4671C7.37701 16.3843 7.39705 16.316 7.38369 16.2681C7.37627 16.2448 7.36105 16.2236 7.33507 16.2091C7.30092 16.1887 7.26678 16.2013 7.21408 16.2244C7.17474 16.2422 7.12909 16.2615 7.07862 16.2574L7.08641 16.1902C7.12018 16.1943 7.15433 16.1783 7.18996 16.1631C7.24414 16.1397 7.30501 16.1138 7.36847 16.1527C7.40819 16.1761 7.43639 16.2088 7.44752 16.2529C7.46126 16.3038 7.45161 16.3654 7.41858 16.4378C7.42192 16.4374 7.42562 16.4363 7.42711 16.4355C7.47647 16.4266 7.52361 16.4181 7.5533 16.3899C7.56777 16.3758 7.58224 16.3646 7.59598 16.3554ZM5.75999 17.1355H5.67574V15.543H7.52917V15.6279H5.7585V17.1359L5.75999 17.1355ZM5.95112 17.0034H5.86613V15.7578H7.43119V15.8428H5.95112V17.0034ZM6.84629 16.7291C6.8166 16.7785 6.76279 16.8141 6.70118 16.8263C6.66444 16.8338 6.62806 16.8364 6.59244 16.8364C6.47516 16.8364 6.36716 16.8007 6.26435 16.7625L6.27512 16.6987L6.28922 16.7013C6.41244 16.7491 6.54456 16.7885 6.68856 16.7603C6.73273 16.7525 6.76909 16.7276 6.78914 16.6935C6.80732 16.6638 6.81178 16.6281 6.80213 16.5929C6.79619 16.5658 6.77949 16.5469 6.76019 16.5239C6.74645 16.5094 6.73421 16.4949 6.72233 16.4775C6.69115 16.4415 6.69895 16.381 6.74609 16.316L6.79841 16.3554C6.77726 16.3851 6.76019 16.4225 6.77392 16.4378C6.78617 16.4548 6.7973 16.4656 6.80732 16.4778C6.83107 16.5034 6.85817 16.5331 6.8667 16.5777C6.88118 16.6296 6.8745 16.6838 6.84629 16.7291ZM6.77392 16.182C6.72604 16.1505 6.69561 16.1316 6.66073 16.1449C6.62027 16.1616 6.60913 16.2095 6.59837 16.2804C6.5954 16.3023 6.59132 16.3216 6.58835 16.3398C6.5646 16.4211 6.48036 16.4767 6.40947 16.4927C6.39203 16.4982 6.37458 16.5005 6.35788 16.5005C6.32299 16.5005 6.29033 16.4905 6.26435 16.4697C6.21351 16.4311 6.18233 16.3598 6.17936 16.2715L6.24469 16.2685C6.24766 16.3353 6.26918 16.3899 6.30332 16.4155C6.3267 16.4337 6.35751 16.4381 6.39462 16.427C6.454 16.414 6.51079 16.3684 6.52526 16.322C6.52823 16.3075 6.53194 16.2886 6.5338 16.2704C6.54419 16.2006 6.55792 16.1152 6.63549 16.0822C6.70526 16.0566 6.76019 16.0926 6.80806 16.1253C6.84851 16.152 6.88748 16.178 6.93128 16.1694L6.9413 16.2359C6.8745 16.247 6.82105 16.2132 6.77392 16.182ZM7.39 16.8508C7.37181 16.8508 7.35288 16.8516 7.33507 16.8531C7.31317 16.8553 7.29165 16.8568 7.26901 16.8568C7.22262 16.8568 7.17548 16.849 7.13429 16.8211C7.02332 16.7514 7.05079 16.6341 7.07343 16.5398C7.08196 16.5012 7.09087 16.4637 7.09235 16.4311C7.08567 16.4248 7.07713 16.4188 7.06897 16.4136L7.09792 16.3543C7.11239 16.362 7.15878 16.3877 7.15878 16.4173C7.15953 16.4615 7.14876 16.5094 7.13726 16.555C7.11388 16.656 7.10237 16.7209 7.17066 16.7644C7.21482 16.7944 7.27346 16.7896 7.3321 16.7855C7.35214 16.784 7.37218 16.7825 7.39148 16.7825C7.49614 16.7825 7.63123 16.7198 7.68802 16.6022L7.74592 16.6311C7.67429 16.7822 7.51099 16.8508 7.39 16.8508ZM8.06843 17.1021H7.98492V15.3771H10.1635V15.462H8.06806V17.1021H8.06843ZM8.26513 16.9696H8.18088V15.5908H10.0017V15.6758H8.26401V16.9688L8.26513 16.9696ZM8.93614 16.7217C8.9224 16.7105 8.90941 16.7046 8.89123 16.6975C8.86748 16.689 8.83742 16.676 8.81218 16.6434C8.80698 16.6437 8.77358 16.6571 8.7591 16.6679C8.74315 16.6794 8.72793 16.6924 8.71345 16.7065C8.66558 16.7476 8.6151 16.7914 8.5509 16.8145L8.52789 16.7521C8.58207 16.7317 8.62512 16.6942 8.67077 16.6549C8.68599 16.6411 8.7038 16.6278 8.71976 16.6152C8.73943 16.5999 8.82443 16.5513 8.86339 16.6007C8.87787 16.6196 8.89457 16.6255 8.91609 16.6348C8.93725 16.6426 8.961 16.6523 8.9829 16.6738L8.93614 16.7217ZM8.99218 16.4931C8.98253 16.4533 8.93911 16.43 8.88974 16.4018C8.85115 16.381 8.81218 16.3602 8.78175 16.3264C8.77247 16.3171 8.76579 16.3105 8.76096 16.3049C8.76245 16.3105 8.76319 16.3131 8.76467 16.3179C8.77543 16.3498 8.78694 16.3851 8.78323 16.4207L8.71828 16.4129C8.72014 16.391 8.71086 16.365 8.70344 16.3383C8.69564 16.3168 8.6897 16.2971 8.68636 16.2752L8.67894 16.2425L8.71086 16.2355C8.77098 16.2236 8.79214 16.2411 8.82814 16.2778C8.85152 16.3027 8.88678 16.322 8.92018 16.3409C8.97882 16.3728 9.03745 16.4051 9.0549 16.473L8.99218 16.4931ZM10.3308 16.4259C10.3119 16.4986 10.2525 16.5268 10.2054 16.5513C10.1954 16.5561 10.185 16.5606 10.1757 16.5658C10.0417 16.6578 9.8866 16.6608 9.75819 16.5721C9.67395 16.6634 9.52995 16.7128 9.33288 16.7191L9.33065 16.6512C9.49729 16.646 9.70772 16.6066 9.76116 16.4415C9.77044 16.4021 9.77712 16.3594 9.75745 16.3127C9.74669 16.2867 9.72256 16.2581 9.70363 16.2377C9.65019 16.1887 9.57337 16.1832 9.51176 16.2229C9.47836 16.2429 9.46388 16.2655 9.49023 16.3234L9.43123 16.3513C9.42306 16.3353 9.3544 16.2952 9.28054 16.2923C9.23341 16.2915 9.20001 16.3049 9.18145 16.3353L9.16401 16.3639L9.13618 16.3468C9.12319 16.3387 9.11019 16.3268 9.09795 16.3164C9.07753 16.2971 9.06009 16.2826 9.03337 16.2804C8.99366 16.2804 8.98327 16.25 8.97919 16.2381C8.97696 16.2303 8.97622 16.2273 8.97176 16.2225C8.95655 16.2077 8.94838 16.1947 8.94059 16.1835C8.93057 16.1657 8.92686 16.1605 8.90162 16.1568L8.88789 16.1524C8.86228 16.1331 8.83111 16.1149 8.81292 16.106C8.73053 16.08 8.64071 16.0577 8.58096 16.1186C8.49263 16.2084 8.53197 16.3546 8.58393 16.5083L8.52232 16.5294C8.47741 16.398 8.41061 16.1987 8.53531 16.0718C8.62735 15.9776 8.75948 16.0195 8.83779 16.0455C8.85931 16.0562 8.89123 16.0744 8.92018 16.0933C8.94579 16.0993 8.96174 16.1071 8.97436 16.1186C9.10277 16.0867 9.21968 16.1245 9.30133 16.2218L9.29428 16.2273C9.33436 16.231 9.37741 16.2433 9.41193 16.26C9.41824 16.2151 9.44644 16.1854 9.47688 16.1687C9.56187 16.1115 9.67209 16.1201 9.74743 16.1921C9.76264 16.2077 9.79827 16.2463 9.8172 16.2886C9.82945 16.3205 9.83464 16.3494 9.83464 16.3776C9.84689 16.3795 9.85988 16.3847 9.8725 16.3854C9.88994 16.391 9.91444 16.3969 9.9226 16.394C9.92817 16.3799 9.93188 16.3513 9.93633 16.3231C9.94487 16.263 9.95786 16.1902 10.0339 16.1642C10.1115 16.1375 10.2043 16.1568 10.2674 16.2173C10.3264 16.2707 10.3498 16.3491 10.3308 16.4259ZM13.474 17.1021H10.6296V15.4524H13.474V17.1021Z" fill="#4764FA"/>
<path d="M9.20083 10.808C9.17263 10.8158 9.11659 10.8265 9.13997 10.8696C9.16743 10.9171 9.21902 10.8885 9.24277 10.8637C9.27988 10.8321 9.20529 10.8354 9.20083 10.808Z" fill="#4764FA"/>
<path d="M9.61058 5.25793C9.60906 5.25793 9.60677 5.25831 9.60449 5.25831C9.60601 5.25869 9.64326 5.26326 9.61058 5.25793Z" fill="#4764FA"/>
<path d="M9.34436 12.9994C9.34881 12.9775 9.35216 12.956 9.35661 12.9341C9.35364 12.9248 9.34807 12.9463 9.34436 12.9994Z" fill="#4764FA"/>
<path d="M12.7904 5.37341C12.7904 5.37569 12.7888 5.37759 12.7881 5.37987C12.7888 5.40002 12.7904 5.37341 12.7904 5.37341Z" fill="#4764FA"/>
<path d="M5.09543 4.33484C5.09543 4.33531 5.09448 4.33579 5.09448 4.33626C5.09971 4.33674 5.10255 4.33579 5.09543 4.33484Z" fill="#4764FA"/>
<path d="M14.2711 3.20513C14.047 3.12422 13.8005 3.18546 13.6703 3.25301C13.5404 3.31907 13.4428 3.62339 13.573 3.75626C13.7029 3.8895 13.6331 4.23205 13.6621 4.36455C13.6884 4.48331 13.6376 4.68854 13.6376 4.68854C13.5905 4.75461 13.6658 5.00252 13.6246 5.05448C13.5404 5.14986 13.5827 5.30165 13.5827 5.30165C13.5827 5.30165 13.5593 5.36809 13.5415 5.4631C13.527 5.5633 13.527 5.7292 13.527 5.7292C13.5415 5.87691 13.4943 6.04355 13.4943 6.04355C13.4943 6.04355 13.4246 6.32412 13.35 6.50486C13.2984 6.6188 13.3734 6.67113 13.2427 6.8515C13.2427 6.8515 13.1882 7.08494 13.1544 7.1896C13.1544 7.1896 12.9774 7.36515 12.8801 7.51286C12.8801 7.51286 12.7176 7.73665 12.6474 7.85987C12.6474 7.85987 12.5873 7.9404 12.4752 8.13154C12.4752 8.13154 12.1212 8.27405 12.0655 8.42139C12.0384 8.4882 11.7311 8.5884 11.5166 8.77768C11.4839 8.80143 11.1577 8.93504 11.1024 8.93949C11.1024 8.93949 10.8278 8.9625 10.748 9.04823C10.748 9.04823 10.3568 9.12951 10.2918 9.16291C10.2918 9.16291 10.1909 9.19075 10.0981 9.21079C10.09 9.0679 10.0684 8.90164 10.0684 8.90164C10.0844 8.88011 10.0899 8.81999 10.0907 8.74391C10.0989 8.74428 10.1059 8.74428 10.1059 8.74428C10.2373 8.74947 10.6411 8.57801 10.6411 8.57801C11.0419 8.5357 11.2364 8.33084 11.2364 8.33084C11.4553 8.29743 11.4646 8.19797 11.4646 8.19797C11.5522 8.1835 11.7626 8.08403 11.7626 8.08403C11.8829 8.06436 12.0009 7.82238 12.0009 7.82238C12.0328 7.79344 12.1583 7.66057 12.1583 7.66057C12.3312 7.57966 12.4752 7.26606 12.5175 7.2089C12.6237 7.05674 12.6567 6.9428 12.6845 6.89975C12.7591 6.80474 12.8935 6.33897 12.9265 6.21019C12.9599 6.08177 13.0007 6.02944 13.0427 5.72957C13.0906 5.38256 13.1124 4.945 13.1124 4.945C13.1076 4.71193 13.1314 4.58388 13.1314 4.58388C13.1314 4.58388 13.0906 4.4269 13.0906 4.29366C13.0906 4.16042 13.1232 3.79894 13.2531 3.59964C13.3837 3.3996 13.1689 3.16727 12.9276 3.1528C12.6393 3.13833 12.5268 3.25301 12.3969 3.31907C12.2655 3.38513 12.1026 3.6902 12.234 3.82306C12.3639 3.95556 12.3602 4.23205 12.3876 4.36455C12.4114 4.48331 12.4288 4.72083 12.4288 4.72083C12.3772 4.78764 12.3772 4.92087 12.3772 4.98768C12.3772 5.05374 12.3405 5.18215 12.3405 5.18215C12.3405 5.18215 12.3116 5.31464 12.3308 5.41522C12.3505 5.53361 12.3642 5.66202 12.3642 5.66202C12.2332 5.6958 12.2997 6.0428 12.2997 6.0428C12.2997 6.0428 12.1048 6.33785 12.057 6.52342C12.025 6.64701 11.9452 6.73719 11.8517 6.91794C11.8517 6.91794 11.7396 6.96062 11.7177 6.99439C11.7177 6.99439 11.4249 7.15138 11.3314 7.37925C11.3314 7.37925 11.0705 7.48837 10.9959 7.61195C10.9959 7.61195 10.7394 7.65983 10.6507 7.75001C10.6507 7.75001 10.2369 7.96935 10.1716 7.9931C10.1456 8.00275 10.1193 8.00758 10.094 8.00943C10.0985 7.8183 10.0862 7.62902 10.0666 7.44902C10.5531 7.37368 10.9655 7.1588 11.0887 7.03224C11.2141 6.89975 11.1495 6.86635 11.246 6.8374C11.3447 6.80437 11.4568 6.50486 11.5548 6.40466C11.6431 6.31484 11.671 6.14375 11.7641 5.92961C11.9115 5.60153 11.9115 5.28273 11.9115 5.28273C12.038 5.11646 11.8796 4.85481 11.8796 4.85481C11.8796 4.85481 11.9115 4.55531 11.9115 4.42727C11.9115 4.29403 11.9259 3.92809 11.9723 3.71395C12.0276 3.48533 12.038 3.35284 11.8142 3.2723C11.5949 3.1914 11.246 3.18657 11.1158 3.25338C10.9896 3.31944 10.6968 3.63379 10.8278 3.76665C10.9588 3.89543 11.1158 4.19457 11.1488 4.32817C11.1807 4.46104 11.2134 4.83737 11.2134 4.83737C11.167 4.90343 11.2327 4.93683 11.2327 5.00364C11.2327 5.07007 11.2327 5.11794 11.2327 5.11794C11.2327 5.11794 11.1807 5.55031 11.0887 5.61675C10.9896 5.67872 11.0222 5.84536 11.0222 5.84536C10.8923 5.87839 10.8278 6.19237 10.8278 6.19237C10.8278 6.19237 10.6218 6.41579 10.5335 6.47258C10.3423 6.60581 10.2781 6.59134 10.0818 6.61954C10.0514 6.62511 10.0072 6.63439 9.95708 6.64515C9.94929 6.49818 9.95078 6.3913 9.95078 6.3913C9.95078 6.3913 9.96896 6.25806 9.96896 6.12483C9.96896 5.99196 9.90364 5.97786 9.90364 5.97786L9.96896 5.83052C9.96896 5.83052 10.0347 5.79749 10.0347 5.73068C10.0347 5.66388 9.96896 5.61675 9.96896 5.61675C10.0024 5.56479 9.96896 5.30314 9.96896 5.2033C9.96896 5.10384 9.93704 4.97135 9.93704 4.97135C9.96896 4.83811 9.95077 4.59057 9.92331 4.51003C9.88991 4.42875 9.85651 4.24356 9.9029 4.14855C9.95078 4.04834 10.1311 3.74921 10.1965 3.64974C10.2573 3.55436 10.3234 3.35469 9.83758 3.18843C9.35326 3.02179 9.12649 3.24002 8.96765 3.32129C8.80472 3.40146 8.86967 3.649 8.86967 3.74847C8.86967 3.84756 9.17697 4.08137 9.17697 4.18121C9.17697 4.27585 9.1443 4.36195 9.1443 4.46178C9.1443 4.55642 9.12501 4.64215 9.15767 4.6904C9.15767 4.6904 9.0467 4.75646 9.0467 4.80434C9.0467 4.85667 9.11053 4.9038 9.1443 4.9706C9.17696 5.03704 9.12501 5.03704 9.12501 5.03704C9.12501 5.03704 9.03148 5.15172 9.04595 5.21778C9.05969 5.28458 9.07787 5.39889 9.14319 5.41782C9.20963 5.43229 9.09235 5.49873 9.14319 5.56516C9.14319 5.56516 9.07787 5.63159 9.07787 5.73143C9.07787 5.83126 9.19069 5.94594 9.19069 5.94594C9.19069 5.94594 9.09235 5.9786 9.11053 6.0454C9.11053 6.0454 9.05969 6.15934 9.05969 6.24544C9.05969 6.30928 9.07082 6.45736 9.0827 6.65517C9.08084 6.6548 9.07935 6.6548 9.07787 6.65443C8.88266 6.62622 8.62621 6.56907 8.4978 6.37348C8.38423 6.21278 8.28773 6.17901 8.28773 6.17901C8.28773 6.17901 8.22241 5.86503 8.09215 5.83126C8.09215 5.83126 8.1248 5.66462 8.02608 5.59893C7.92885 5.53213 7.86798 5.18549 7.86798 5.18549C7.86798 5.18549 7.91512 5.11906 7.91512 5.05708C7.91512 4.99065 7.92885 4.97135 7.88246 4.90454C7.88246 4.90454 7.88246 4.4629 7.91512 4.32929C7.94777 4.19605 8.10996 3.89655 8.2354 3.76851C8.36679 3.63564 8.33413 3.40183 8.20349 3.33503C8.0773 3.27342 7.47161 3.19251 7.25264 3.27342C7.02477 3.35395 6.86073 3.52096 6.99174 3.71506C7.12312 3.91548 7.20068 4.22908 7.20068 4.36232C7.20068 4.49073 7.23372 4.78986 7.23372 4.78986C7.23372 4.78986 7.13611 5.02293 7.26712 5.18512C7.26712 5.18512 7.29978 5.60338 7.44489 5.93184C7.54213 6.14561 7.51949 6.33563 7.60745 6.42656C7.70506 6.52676 7.8164 6.77356 7.91475 6.80697C8.01198 6.84 7.9474 6.86932 8.0773 7.00181C8.202 7.13282 8.55087 7.42453 9.05598 7.46053C9.05227 7.5136 9.05226 7.55072 9.06043 7.56296C9.09309 7.61529 9.12575 7.6821 9.12575 7.7296C9.12575 7.76189 9.08084 7.84873 9.05746 7.96787C8.99882 7.95228 8.93053 7.93038 8.89156 7.91034C8.78505 7.86209 8.46476 7.70622 8.46476 7.70622C8.37643 7.61529 8.11664 7.58226 8.11664 7.58226C8.04687 7.45867 7.80377 7.36812 7.80377 7.36812C7.7058 7.21595 7.60856 7.12503 7.60856 7.12503C7.58518 7.09237 7.38959 6.88713 7.38959 6.88713C7.25858 6.70713 7.15689 6.588 7.10493 6.47406C7.02959 6.29369 6.86407 6.07955 6.86407 6.07955C6.86407 6.07955 6.89599 5.66573 6.76572 5.6327C6.76572 5.6327 6.71413 5.53732 6.73232 5.41856C6.75199 5.31836 6.72712 5.18549 6.72712 5.18549C6.72712 5.18549 6.68593 5.05708 6.68593 4.99065C6.68593 4.92384 6.70486 4.90454 6.65253 4.83848C6.65253 4.83848 6.65252 4.48591 6.67628 4.36714C6.70374 4.23465 6.60613 3.85906 6.7312 3.72546C6.86184 3.59259 6.79726 3.32129 6.67034 3.25486C6.54007 3.18843 6.2428 3.12682 6.02457 3.20698C5.79558 3.28789 5.63302 3.45453 5.76366 3.649C5.89356 3.8483 5.97298 4.16228 5.97298 4.29552C5.97298 4.42875 5.98115 4.64698 5.98115 4.64698C5.98115 4.64698 6.00453 4.78059 5.99451 5.01329C5.99451 5.01329 6.03719 5.38405 6.08803 5.73143C6.12997 6.03167 6.16671 6.08363 6.20011 6.21204C6.23351 6.34045 6.36824 6.63959 6.44098 6.73979C6.47549 6.78247 6.50741 6.89196 6.60836 7.04375C6.6503 7.10127 6.81434 7.51434 6.98172 7.59525C6.98172 7.59525 7.13537 7.70436 7.16803 7.72812C7.16803 7.72812 7.30794 7.98457 7.42745 7.99978C7.42745 7.99978 7.62006 8.15121 7.71173 8.16531C7.71173 8.16531 7.80081 8.31302 8.01977 8.34605C8.01977 8.34605 8.1133 8.49859 8.43915 8.52679C8.43915 8.52679 8.778 8.68415 8.90455 8.67896C8.90455 8.67896 8.96988 8.69529 9.09383 8.7105C9.10163 8.76172 9.11239 8.79995 9.12426 8.81665C9.12426 8.81665 9.08493 9.06865 9.07862 9.22415C8.96245 9.20782 8.76984 9.16366 8.76984 9.16366C8.70452 9.13025 8.31891 9.0486 8.31891 9.0486C8.23392 8.96361 8.0246 8.90683 8.0246 8.90683C7.9693 8.90164 7.69355 8.7543 7.66163 8.72609C7.44192 8.53607 7.12163 8.40246 7.09751 8.34123C7.03739 8.18906 6.78057 8.11743 6.78057 8.11743C6.66811 7.92741 6.44952 7.7463 6.44952 7.7463C6.37529 7.61826 6.24428 7.4943 6.24428 7.4943C6.14593 7.34733 6.03533 7.14284 6.03533 7.14284C6.01195 7.1087 5.96556 6.80511 5.96556 6.80511C5.83455 6.61954 5.87204 6.58651 5.82565 6.47221C5.75105 6.29184 5.6308 6.01163 5.6308 6.01163C5.6308 6.01163 5.5974 5.83052 5.61632 5.67835C5.61632 5.67835 5.53727 5.56479 5.51835 5.46495C5.50461 5.3692 5.52725 5.23671 5.52725 5.23671C5.52725 5.23671 5.58218 5.15097 5.50387 5.05597C5.46119 5.00364 5.48494 4.9231 5.43855 4.85592C5.43855 4.85592 5.37323 4.48516 5.39661 4.36603C5.42334 4.23316 5.32201 3.85721 5.45228 3.72434C5.58218 3.59111 5.51686 3.32018 5.38771 3.25412C5.26152 3.18731 5.00952 3.17284 4.79204 3.25412C4.56305 3.33428 4.49773 3.55325 4.62911 3.74847C4.75938 3.94814 4.69443 4.16191 4.69443 4.29514C4.69443 4.42838 4.68553 4.5991 4.68553 4.5991C4.68553 4.5991 4.69443 4.84628 4.68553 5.07898C4.68553 5.07898 4.70891 5.35027 4.75938 5.69728C4.80169 5.99716 4.79278 5.96932 4.82544 6.09217C4.8581 6.2254 4.84882 6.57278 4.92305 6.67187C4.95014 6.71455 4.98391 6.82404 5.0908 6.97657C5.13274 7.03299 5.19806 7.41414 5.38437 7.56111C5.38437 7.56111 5.47269 7.90849 5.6835 8.07438C5.6835 8.07438 5.82713 8.32156 5.89245 8.31265C5.89245 8.31265 6.03682 8.59285 6.12589 8.61215C6.12589 8.61215 6.20049 8.89236 6.41871 8.92613C6.41871 8.92613 6.55343 9.16403 6.77314 9.20671C6.77314 9.20671 6.95871 9.46316 7.19141 9.46798C7.19141 9.46798 7.12238 9.658 7.53137 9.658L7.57405 9.67767C7.57405 9.67767 7.70394 9.77677 7.81454 9.77677C7.81454 9.77677 8.20163 9.93858 8.30035 9.92448C8.30035 9.92448 8.46402 9.94637 8.69041 9.97013V10.4192C8.69041 10.4192 8.90047 10.4667 8.90047 10.5843C8.90047 10.7001 8.90047 10.7469 8.97878 10.7655C8.97878 10.7655 9.04484 10.8133 8.99845 10.9314C8.99845 10.9314 8.94686 10.9985 8.94686 11.0939C8.94686 11.0939 8.78394 11.1607 8.78394 11.3942H8.67223V11.7415H8.88117C8.88117 11.7415 8.9001 11.7757 8.9001 11.8228C8.9001 11.8751 8.94724 12.07 8.91384 12.1227C8.88118 12.1706 8.8166 12.2377 8.78394 12.2841C8.75647 12.3372 8.38311 12.4894 8.31854 13.2454C8.29961 13.425 8.07656 13.4732 7.86687 13.5397H11.2275C10.9862 13.4732 10.8883 13.425 10.8693 13.2454C10.804 12.4894 10.4366 12.3372 10.4039 12.2841C10.3705 12.237 10.3059 12.1702 10.2733 12.1227C10.2403 12.07 10.2859 11.8759 10.2859 11.8228C10.2859 11.7746 10.3059 11.7415 10.3059 11.7415H10.5149V11.3942H10.4021C10.4021 11.1615 10.2395 11.0939 10.2395 11.0939C10.2395 10.9985 10.1924 10.9314 10.1924 10.9314C10.1408 10.8133 10.2069 10.7655 10.2069 10.7655C10.2852 10.7458 10.2852 10.6994 10.2852 10.5843C10.2852 10.4667 10.5004 10.4192 10.5004 10.4192V9.96011C10.6608 9.91891 10.8927 9.85211 10.9658 9.838C11.0638 9.8239 11.1933 9.78976 11.3058 9.7571C11.4175 9.72369 11.4038 9.65689 11.524 9.65689C11.9196 9.65689 11.9293 9.5192 11.9293 9.5192C12.162 9.50955 12.27 9.25273 12.27 9.25273C12.5491 9.2004 12.7528 8.93912 12.7528 8.93912C12.9362 8.91017 13.0289 8.64407 13.0289 8.64407C13.1165 8.62551 13.3129 8.34457 13.3129 8.34457C13.3782 8.35422 13.4702 8.10704 13.4702 8.10704C13.6847 7.9404 13.7727 7.49356 13.7727 7.49356C13.959 7.34659 13.9401 7.15138 13.9816 7.0894C14.0978 6.92276 14.1089 6.70528 14.1368 6.67113C14.2065 6.5713 14.2489 6.21019 14.2808 6.07732C14.3142 5.95373 14.3042 5.97711 14.3461 5.67798C14.3932 5.3358 14.4207 5.06005 14.4207 5.06005C14.4122 4.83143 14.3698 4.5991 14.3698 4.5991C14.3698 4.5991 14.3613 4.42801 14.3613 4.29514C14.3613 4.16265 14.2952 3.94814 14.4266 3.74847C14.5599 3.55177 14.4938 3.28604 14.2711 3.20513ZM12.6222 6.85633C12.581 6.93278 12.5112 7.02779 12.4452 6.95134C12.3988 6.89901 12.319 6.90383 12.2967 6.85633C12.2692 6.79435 12.3665 6.79954 12.385 6.73274C12.4032 6.64181 12.4878 6.77505 12.5476 6.78025C12.5851 6.78062 12.6411 6.81847 12.6222 6.85633ZM12.8786 5.69617C12.8512 5.72512 12.7714 5.72029 12.7302 5.69617C12.5836 5.61229 12.7469 5.48759 12.7881 5.37959C12.7844 5.32058 12.7795 5.26083 12.8003 5.21184C12.8048 5.19774 12.8048 5.16879 12.823 5.16434C12.8556 5.14504 12.8976 5.16434 12.9113 5.18363C13.0375 5.33988 13.0085 5.5633 12.8786 5.69617ZM12.4967 3.67572C12.5955 3.65605 12.6882 3.65605 12.7673 3.62785C12.7907 3.61857 12.8337 3.61857 12.8556 3.58962C12.8927 3.54212 12.9072 3.47568 12.9543 3.44711C13.0007 3.4189 13.0557 3.44711 13.0753 3.49535C13.0983 3.55177 13.0891 3.62785 13.0753 3.6902C13.0557 3.76108 12.9955 3.81861 12.9729 3.8895C12.9495 3.95185 12.9673 4.01865 12.964 4.08991C12.9373 4.31778 12.9729 4.54566 13.0019 4.78355C13.0063 4.81696 12.9941 4.89823 12.9373 4.92644C12.8437 4.97432 12.7447 4.98879 12.6482 4.98879C12.6148 4.98879 12.6062 4.94611 12.6148 4.91271C12.6018 4.9231 12.6148 4.91271 12.6148 4.91271C12.6359 4.89526 12.6641 4.88636 12.6764 4.86038C12.6901 4.82586 12.6998 4.78355 12.7031 4.74644C12.7372 4.59873 12.6983 4.46549 12.6482 4.33671C12.709 4.35081 12.751 4.30331 12.7692 4.25098C12.8163 4.10401 12.8248 3.90397 12.6856 3.81861C12.63 3.78521 12.5402 3.78966 12.4704 3.76628C12.4132 3.75144 12.4414 3.68575 12.4967 3.67572ZM12.4359 5.88656C12.4418 5.88173 12.4548 5.88656 12.4641 5.88656C12.4641 5.88656 12.5012 5.91031 12.4967 5.88656C12.6281 5.87728 12.7673 5.90066 12.8694 5.98714C12.823 6.11518 12.8367 6.27179 12.7439 6.37163C12.7012 6.41468 12.604 6.38091 12.5524 6.3386C12.5198 6.31039 12.4967 6.24804 12.5387 6.22948C12.6315 6.18161 12.6968 6.11555 12.6504 6.02017C12.6085 5.93443 12.4967 6.04355 12.4414 5.97674C12.427 5.96227 12.4084 5.91514 12.4359 5.88656ZM12.2922 6.51897C12.427 6.44771 12.5721 6.55719 12.7068 6.59987C12.7205 6.60507 12.7439 6.63365 12.7335 6.64293C12.696 6.68523 12.6214 6.67633 12.5851 6.6522C12.5008 6.59987 12.404 6.60915 12.3249 6.55682C12.3149 6.54792 12.2692 6.53344 12.2922 6.51897ZM11.9712 7.24602C12.0039 7.22746 12.0555 7.24156 12.0974 7.20853L12.12 7.19109C12.1757 7.19109 12.1345 7.19443 12.1675 7.16585C12.2047 7.13245 12.1293 7.02816 12.2084 7.01851C12.3067 7.00404 12.3861 7.07529 12.4466 7.14692C12.4849 7.1896 12.4849 7.26086 12.4548 7.29872C12.4273 7.34659 12.3539 7.34214 12.3112 7.37962C12.283 7.40338 12.283 7.46016 12.2503 7.48391C12.2314 7.49319 12.1887 7.51768 12.1842 7.50358C12.1713 7.47055 12.1334 7.47055 12.1197 7.4416C12.0963 7.40783 12.0306 7.3941 12.008 7.36515C11.9757 7.32247 11.9059 7.28907 11.9712 7.24602ZM11.6639 7.57447C11.6821 7.55109 11.7189 7.54107 11.7515 7.53179C11.7979 7.51212 11.7463 7.475 11.7567 7.43678C11.7704 7.44086 11.7626 7.41303 11.7704 7.40783C11.8547 7.3748 11.8914 7.48874 11.9285 7.55517C11.9371 7.5741 11.9241 7.60267 11.9371 7.61715C11.9653 7.655 11.9927 7.68803 11.979 7.73554C11.9746 7.74482 11.9601 7.75892 11.9471 7.76374C11.8536 7.79269 11.8072 7.68358 11.7378 7.63608C11.7233 7.63088 11.7044 7.64053 11.6899 7.63088C11.6732 7.61752 11.645 7.5934 11.6639 7.57447ZM11.4123 7.94486C11.4405 7.90737 11.436 7.97232 11.4965 7.95302L11.5292 7.93038C11.6602 7.9211 11.5704 7.8209 11.5938 7.73591C11.6691 7.81645 11.7567 7.92148 11.7155 8.02502C11.6884 8.09145 11.5893 8.09145 11.524 8.11595C11.4312 8.15455 11.3566 8.01166 11.4123 7.94486ZM7.25005 3.77036C7.20292 3.71358 7.24077 3.63787 7.29718 3.61857C7.44155 3.56179 7.60374 3.57069 7.76258 3.6041C7.80897 3.60892 7.85982 3.61337 7.90621 3.62748C7.98526 3.65123 8.04612 3.72249 8.01272 3.80339C7.96707 3.91251 7.87949 3.99861 7.83161 4.10735C7.77223 4.24987 7.85128 4.40723 7.82642 4.56347C7.80378 4.71044 7.70617 4.81028 7.56551 4.84368C7.51986 4.85333 7.46828 4.85333 7.44527 4.81028C7.35248 4.65366 7.57145 4.6351 7.62637 4.53007C7.64011 4.50186 7.6453 4.45399 7.62637 4.43951C7.54732 4.35378 7.51021 4.25914 7.45454 4.16822C7.40295 4.07803 7.47829 3.973 7.41743 3.89321C7.37475 3.83754 7.29162 3.82306 7.25005 3.77036ZM7.3291 5.09234C7.31982 5.08343 7.31982 5.05003 7.3291 5.05003C7.41743 5.01254 7.51986 5.02702 7.61747 5.02702H7.55141C7.65384 5.04075 7.7611 4.99324 7.85388 5.05003C7.86279 5.05522 7.86279 5.08343 7.85388 5.09234C7.77854 5.17324 7.67648 5.11201 7.57924 5.13576C7.49648 5.15432 7.39961 5.17844 7.3291 5.09234ZM7.78002 5.49242C7.78596 5.5633 7.64085 5.57221 7.56625 5.58743C7.56625 5.57778 7.56625 5.53473 7.56625 5.52545C7.65013 5.52953 7.76629 5.39258 7.78002 5.49242ZM7.59446 5.88211C7.59149 5.88507 7.56551 5.89695 7.54732 5.88507C7.54732 5.89658 7.54139 5.8821 7.54732 5.88507C7.55104 5.84611 7.51689 5.80899 7.53953 5.77225C7.55326 5.74367 7.58963 5.73402 7.61784 5.72475C7.7251 5.68689 7.842 5.69134 7.9526 5.71027C7.99454 5.71992 8.05132 5.75332 8.01272 5.77707C7.88283 5.86318 7.7147 5.7485 7.59446 5.88211ZM7.87355 6.34305C7.84163 6.35233 7.82716 6.39501 7.81268 6.39018C7.76258 6.37089 7.81862 6.3334 7.80489 6.29072C7.83235 6.29518 7.82827 6.22392 7.85982 6.23357C7.85128 6.10478 7.96262 6.01015 8.06506 6.048C8.10328 6.05691 8.14967 6.10998 8.13037 6.16231C8.08361 6.26771 7.98526 6.3193 7.87355 6.34305ZM8.04538 6.58985C8.00827 6.54235 8.05986 6.47146 8.11553 6.42841C8.18085 6.37126 8.23169 6.31447 8.30629 6.37126C8.32002 6.38054 8.31557 6.4195 8.31075 6.44771C8.28811 6.53307 8.19458 6.51897 8.14411 6.57649C8.12072 6.60433 8.0606 6.60915 8.04538 6.58985ZM9.07528 7.26828C9.07305 7.26865 9.0723 7.27051 9.07008 7.27051C8.84591 7.28016 8.62806 7.20371 8.42802 7.09942C8.27511 7.02296 8.10254 6.89492 8.20051 6.72346C8.24171 6.64738 8.2933 6.77579 8.33524 6.8374C8.51078 7.10721 8.82439 7.09014 9.07973 7.22486C9.0775 7.23934 9.07602 7.25381 9.07528 7.26828ZM6.04387 3.73696C6.01641 3.68574 6.04832 3.6375 6.07727 3.59964C6.08172 3.58999 6.10474 3.59964 6.09991 3.60447C6.25504 3.61375 6.32407 3.58109 6.47327 3.57626C6.49257 3.57626 6.57088 3.61894 6.58535 3.61894C6.55158 3.71358 6.54712 3.84645 6.53784 3.94183C6.51966 4.11292 6.52448 4.27956 6.55158 4.4551C6.57088 4.59316 6.53265 4.72603 6.53784 4.86446C6.53339 4.86446 6.52449 4.86446 6.52449 4.86966C6.50593 4.97432 6.52448 4.86966 6.46919 4.9643C6.45545 4.99287 6.41426 4.9977 6.38531 4.98842C6.34263 4.96912 6.3044 4.91716 6.31888 4.86966C6.37381 4.66516 6.4124 4.67889 6.38865 4.47032C6.38086 4.39386 6.33409 4.31815 6.27249 4.27028C6.25504 4.2558 6.23166 4.23688 6.2209 4.2135C6.17376 4.10884 6.2209 3.98488 6.1797 3.88096C6.15113 3.81861 6.07653 3.79523 6.04387 3.73696ZM6.37009 5.16842C6.28585 5.18772 6.18379 5.2111 6.11439 5.125C6.10919 5.11609 6.10919 5.08232 6.11439 5.08232C6.20717 5.04483 6.3044 5.05893 6.40275 5.05893H6.33744C6.4395 5.07341 6.54638 5.0259 6.64473 5.08232C6.64918 5.08714 6.65252 5.11609 6.64473 5.125C6.56939 5.20664 6.46362 5.14467 6.37009 5.16842ZM6.43987 5.67687C6.52449 5.65349 6.50964 5.55848 6.54638 5.52062C6.61652 5.44936 6.66737 5.57221 6.6811 5.63938C6.70931 5.77188 6.56085 5.80083 6.4536 5.76297C6.42613 5.75332 6.39756 5.69171 6.43987 5.67687ZM6.63991 6.44289C6.62098 6.46218 6.56531 6.45179 6.55232 6.41431C6.54341 6.38536 6.56531 6.35233 6.57904 6.35753C6.62618 6.35753 6.67739 6.39501 6.63991 6.44289ZM6.57904 6.72346C6.54638 6.73794 6.51372 6.70936 6.48626 6.69043C6.4781 6.68561 6.48106 6.65703 6.48626 6.64701C6.54713 6.60915 6.61244 6.5854 6.67813 6.56202C6.6915 6.56202 6.70523 6.56202 6.71079 6.56684C6.76609 6.64701 6.64473 6.69971 6.57904 6.72346ZM6.67739 7.03224C6.65847 7.03224 6.61207 6.99921 6.63545 6.96099C6.65883 6.92758 6.70523 6.92758 6.74197 6.90866C6.74716 6.90383 6.74197 6.88082 6.74197 6.88082C6.78465 6.86635 6.83104 6.88082 6.87261 6.89455C6.84477 6.97546 6.75644 7.03707 6.67739 7.03224ZM9.94076 9.21933C9.93222 9.22489 9.92331 9.22638 9.91403 9.23009C9.85317 9.23269 9.80307 9.23788 9.75519 9.24234C9.73181 9.23825 9.71028 9.23231 9.68987 9.22415C9.57816 9.1811 9.59634 9.02003 9.54995 8.90943C9.54067 8.8764 9.49799 8.8623 9.4709 8.84782C9.39185 8.80997 9.28905 8.80997 9.23264 8.72423C9.25602 8.72423 9.2742 8.73871 9.29721 8.73871C9.53993 8.76209 9.78339 8.78658 10.0235 8.77656C10.0016 8.92019 10.0996 9.12988 9.94076 9.21933ZM10.0807 8.45962C10.149 8.45702 10.2154 8.44923 10.2807 8.4251C10.3598 8.3969 10.4344 8.38688 10.5082 8.35384C10.9873 8.16345 11.0571 8.04952 11.1599 8.02094C11.1926 8.01166 11.3462 8.1924 11.3043 8.21616C11.0898 8.32081 10.9317 8.3969 10.5873 8.53013C10.3772 8.61067 10.2458 8.6385 10.0851 8.64259C9.62826 8.66894 9.89882 8.6244 9.46385 8.5576C9.59078 8.39912 10.0814 8.4945 10.0807 8.45962ZM11.426 6.50969C11.3986 6.54755 11.3325 6.54755 11.3099 6.50969C11.3006 6.50004 11.2861 6.48074 11.2861 6.46181C11.2817 6.43843 11.2534 6.40948 11.2586 6.40429C11.3288 6.34268 11.416 6.33823 11.4828 6.2666C11.5377 6.36235 11.4776 6.43843 11.426 6.50969ZM11.5058 6.04392C11.468 6.02944 11.3841 5.99159 11.328 5.96264C11.3006 5.95373 11.3332 5.90066 11.347 5.89138C11.4078 5.8346 11.4776 5.84907 11.5144 5.77745C11.5377 5.72512 11.5288 5.65386 11.5752 5.63938C11.6268 5.67687 11.7233 5.65386 11.7233 5.70545C11.7285 5.83868 11.6175 6.08623 11.5058 6.04392ZM11.7894 5.50615C11.7704 5.50132 11.7619 5.52062 11.756 5.52062C11.6587 5.52062 11.5797 5.44936 11.4828 5.43526C11.4683 5.43007 11.413 5.43007 11.4349 5.39258C11.4732 5.33543 11.5422 5.32615 11.5886 5.28755C11.6305 5.2445 11.7378 5.3113 11.7467 5.40631C11.7467 5.41151 11.7749 5.42969 11.7849 5.44417C11.7949 5.45864 11.7894 5.48202 11.7894 5.50615ZM11.8595 5.03073C11.887 5.09234 11.8502 5.23968 11.8176 5.23522C11.6691 5.17844 11.4639 5.14429 11.5155 5.07786C11.6138 5.06858 11.6602 5.10161 11.7567 5.09196C11.7842 5.0452 11.8176 4.95019 11.8595 5.03073ZM11.1425 3.81861C11.1143 3.78521 11.1187 3.7236 11.1744 3.70913C11.3804 3.66608 11.5697 3.7043 11.7697 3.67572C11.8443 3.66608 11.8209 3.72323 11.8209 3.73288C11.8124 3.85684 11.6817 3.98488 11.7463 4.11292C11.848 4.31741 11.789 4.51671 11.8346 4.7316C11.848 4.80285 11.8109 4.86929 11.779 4.90194C11.6769 5.00215 11.5136 4.94982 11.4071 4.86891C11.3544 4.83069 11.3926 4.76834 11.4617 4.75423C11.508 4.7457 11.5544 4.75423 11.5882 4.74013C11.6899 4.68335 11.7007 4.54529 11.6754 4.45473C11.6524 4.3742 11.55 4.3742 11.4624 4.38347C11.5363 4.35564 11.6435 4.25061 11.5689 4.19791C11.5136 4.16042 11.429 4.1504 11.3744 4.10698C11.337 4.08842 11.3403 4.01679 11.3099 3.97411C11.2679 3.91325 11.1926 3.88096 11.1425 3.81861ZM10.788 6.63253C10.8289 6.6188 10.8897 6.64218 10.9228 6.62363C10.9744 6.58985 11.0107 6.5327 11.0542 6.49076C11.1091 6.43843 11.1978 6.50524 11.2353 6.58095C11.2542 6.61917 11.2353 6.66631 11.2163 6.69043C11.1833 6.72829 11.1651 6.78507 11.1236 6.80882C11.0824 6.82812 11.0434 6.85187 11.007 6.87117C10.8909 6.91831 10.7932 6.79027 10.7658 6.68078C10.7606 6.65703 10.7795 6.63773 10.788 6.63253ZM10.0235 7.14804C10.1241 7.11797 10.2243 7.08049 10.3271 7.03224C10.3828 7.00404 10.4433 6.95171 10.4997 6.9235C10.5409 6.90012 10.5839 6.83777 10.6389 6.86152C10.7238 6.89975 10.7461 7.02259 10.6945 7.06156C10.509 7.21336 10.29 7.26531 10.0573 7.32284C10.0532 7.32358 10.0502 7.32395 10.0488 7.32432C10.0807 7.31727 9.36587 7.49356 9.32097 7.19814C9.50431 7.25566 10.0272 7.1755 10.0235 7.14804ZM9.71696 5.77225C9.78673 5.70099 9.67651 5.65386 9.71251 5.62009C9.81049 5.53955 9.89808 5.78153 9.84723 5.85761C9.76818 5.97637 9.5956 5.92479 9.46014 5.91031C9.41895 5.90512 9.38554 5.82903 9.42822 5.81567C9.51581 5.7819 9.61898 5.80973 9.71585 5.8012C9.71696 5.8012 9.71325 5.77745 9.71696 5.77225ZM9.82904 5.37365C9.67094 5.41633 9.50801 5.39704 9.3436 5.38256C9.33098 5.37811 9.29276 5.32095 9.31725 5.2972C9.38777 5.23522 9.50356 5.24339 9.61082 5.25897C9.70026 5.25378 9.86616 5.23708 9.82904 5.37365ZM9.58633 6.30037C9.58633 6.30037 9.56814 6.14821 9.629 6.05728C9.65164 6.02388 9.72179 6.01942 9.76298 6.02388C9.78636 6.02944 9.80455 6.07658 9.80455 6.1007C9.81828 6.26252 9.89251 6.44771 9.79638 6.56128C9.69729 6.67967 9.46459 6.62771 9.29721 6.5854C9.24191 6.5713 9.22744 6.46181 9.26938 6.44251C9.37329 6.40021 9.48501 6.35753 9.58633 6.30037ZM9.18624 3.71358C9.17251 3.70913 9.13466 3.6761 9.15358 3.64232C9.15878 3.6375 9.17251 3.64232 9.18624 3.64232L9.21297 3.65049C9.34992 3.60892 9.39482 3.67127 9.50802 3.62822C9.54921 3.60892 9.56814 3.55696 9.61898 3.55696C9.61119 3.51391 9.66166 3.50946 9.66612 3.47643C9.67985 3.4189 9.65758 3.3662 9.65164 3.30942C9.85688 3.31461 10.0432 3.54212 9.97787 3.73251C9.95523 3.79894 9.91329 3.85647 9.85168 3.91325C9.78265 3.98005 9.76336 4.08954 9.74146 4.189C9.68505 4.41762 9.85688 4.61654 9.82496 4.84479C9.81123 4.9257 9.79675 5.00215 9.73143 5.0593C9.69024 5.09271 9.6342 5.09271 9.59152 5.06858C9.49874 5.02627 9.3681 5.09196 9.31169 4.95947C9.44307 4.93126 9.56814 4.87893 9.61527 4.74607C9.66538 4.61246 9.65721 4.46995 9.62381 4.33671C9.58261 4.16525 9.64719 3.98042 9.55403 3.85201C9.47981 3.75626 9.31243 3.76591 9.18624 3.71358ZM9.13985 7.49319C9.15358 7.47909 9.19144 7.49319 9.21445 7.48428C9.23115 7.47909 9.24785 7.47797 9.26307 7.47612C9.37849 7.48502 9.48909 7.49282 9.53771 7.49356C9.55367 7.49356 9.57482 7.49319 9.59783 7.49208C9.72179 7.511 9.84352 7.52511 9.95968 7.47092C9.99234 7.61344 9.99754 7.76152 9.96488 7.89847C9.95672 7.93892 9.92925 7.97343 9.89511 8.00016C9.8888 7.99941 9.88694 7.99941 9.88212 7.99904C9.85243 7.99904 9.72773 8.00275 9.63272 8.00275C9.50319 7.88548 9.48352 7.68061 9.3269 7.58003C9.28868 7.55628 9.23412 7.55628 9.18773 7.547C9.1636 7.54626 9.11165 7.52177 9.13985 7.49319ZM7.11904 7.49319C7.11087 7.48874 7.07339 7.48428 7.06819 7.45533C7.05891 7.38408 7.10085 7.30354 7.1799 7.30837C7.17137 7.29872 7.15726 7.29426 7.14724 7.2887C7.21182 7.27422 7.28197 7.22709 7.32502 7.24639C7.37994 7.27979 7.18918 7.52659 7.11904 7.49319ZM7.59446 7.69805C7.58926 7.70733 7.5618 7.72663 7.5566 7.73628C7.53322 7.81682 7.49128 7.85987 7.43636 7.88882C7.38069 7.91702 7.32465 7.83129 7.34283 7.77005C7.35211 7.75113 7.37104 7.73739 7.38997 7.7181C7.47347 7.65166 7.54807 7.4802 7.64159 7.58003C7.65532 7.59822 7.60819 7.65537 7.59446 7.69805ZM7.65532 8.01166C7.6364 7.95933 7.67871 7.9263 7.72918 7.91702H7.68279C7.77112 7.83649 7.84089 7.6743 7.97041 7.68469C7.90472 7.82684 7.87763 7.9842 7.78485 8.10741C7.73437 8.17385 7.67351 8.07327 7.65532 8.01166ZM9.07528 8.53681C8.52526 8.48337 8.33895 8.38428 7.99454 8.22098C7.96262 8.20651 7.90621 8.159 7.91549 8.11632C7.92403 8.08255 7.99008 8.06399 8.0272 8.08255C8.1352 8.14898 8.4425 8.37685 8.98175 8.45888C8.99994 8.46073 9.03482 8.46222 9.06859 8.46593C9.21668 8.49302 9.17177 8.50712 9.17251 8.52048C9.17474 8.53125 9.1354 8.555 9.07528 8.53681ZM4.88482 4.86446C5.06185 4.75498 5.01954 4.51263 5.08041 4.33671C5.08189 4.33411 5.08783 4.33411 5.09488 4.3356C5.10861 4.29329 5.13571 4.27028 5.15427 4.23168C5.22033 4.12257 5.1602 4.01828 5.10305 3.92809C5.06482 3.86611 4.97686 3.86129 4.93492 3.80451C4.8941 3.74253 4.96313 3.69985 5.00062 3.69057C5.10787 3.65234 5.17319 3.59964 5.24779 3.51948C5.27971 3.49053 5.31311 3.56216 5.30309 3.60966C5.30309 3.60484 5.30309 3.59556 5.30309 3.59036C5.27043 3.70467 5.2374 3.81379 5.25596 3.93737C5.32128 4.28958 5.24779 4.62248 5.22404 4.95984C5.11307 4.98359 4.88928 5.04928 4.88482 4.86446ZM5.02919 5.66277C5.07039 5.60116 5.16392 5.56887 5.23443 5.51097C5.31348 5.44899 5.27266 5.3113 5.34095 5.23077C5.35468 5.20702 5.37954 5.24487 5.40181 5.24005C5.39661 5.37811 5.44375 5.5299 5.38808 5.64941C5.35245 5.71769 5.17134 5.7485 5.17505 5.75406L5.11344 5.73959C5.12903 5.74033 4.98577 5.7292 5.02919 5.66277ZM5.17356 6.61398C5.20622 6.62363 5.20103 6.55682 5.23888 6.58058C5.23072 6.45699 5.33167 6.50004 5.35096 6.42841C5.36989 6.36198 5.30457 6.32375 5.25818 6.29555C5.24927 6.29035 5.26264 6.27142 5.27191 6.26771C5.31905 6.25695 5.36989 6.26771 5.39736 6.30037C5.41183 6.31967 5.44449 6.33377 5.43484 6.3668C5.49571 6.3668 5.49088 6.43286 5.50461 6.46664C5.55546 6.59022 5.50461 6.77097 5.35096 6.79027C5.35096 6.79027 5.3454 6.75723 5.33723 6.74721C5.26672 6.69971 5.15872 6.72346 5.17356 6.61398ZM5.30383 7.22226C5.31756 7.20816 5.29455 7.18404 5.30902 7.17513C5.44375 7.09385 5.58812 7.05154 5.72729 6.96581C5.75104 6.95208 5.79744 6.9376 5.82082 6.97546C5.83455 7.00404 5.82082 7.03707 5.80263 7.056C5.6809 7.18997 5.47121 7.33694 5.30383 7.22226ZM5.64824 7.81682C5.63005 7.81236 5.57364 7.78379 5.55101 7.75001C5.52725 7.71253 5.55954 7.68395 5.5974 7.67393C5.64379 7.65983 5.69463 7.6795 5.74176 7.66428C5.78296 7.64535 5.80263 7.61752 5.84383 7.59377C5.88094 7.57447 5.91843 7.54144 5.97001 7.53661C5.97001 7.55591 5.99822 7.56519 5.98375 7.58412C5.88577 7.69805 5.79743 7.86432 5.64824 7.81682ZM5.76923 8.04061C5.73657 7.9931 5.83455 7.9597 5.88094 7.93595C5.95108 7.90737 6.02086 7.85467 6.09545 7.81719C6.10473 7.86952 6.08173 7.92222 6.05834 7.96416C6.02569 8.02613 5.97001 8.04952 5.91397 8.0922C5.85273 8.13525 5.79744 8.07846 5.76923 8.04061ZM6.37455 8.38762C6.32296 8.41582 6.32296 8.51158 6.25801 8.53978C6.199 8.56391 6.18824 8.49265 6.1515 8.45999C6.14259 8.45405 6.15632 8.43104 6.16003 8.41211C6.09916 8.43104 6.06205 8.39244 6.03385 8.34494C6.01566 8.30745 6.04387 8.28296 6.06725 8.26848C6.10918 8.2503 6.17971 8.27813 6.20717 8.2258C6.21645 8.20762 6.20271 8.16383 6.21645 8.15492C6.24391 8.12152 6.30923 8.10704 6.33298 8.14972C6.36564 8.21244 6.42094 8.2258 6.46362 8.26848C6.47735 8.28296 6.47735 8.32638 6.46362 8.34048C6.44395 8.36387 6.40275 8.37723 6.37455 8.38762ZM6.67739 8.93467C6.59315 8.93912 6.51001 8.87232 6.47215 8.79141C6.45323 8.7491 6.47735 8.72052 6.51298 8.68675C6.52671 8.67228 6.51298 8.63925 6.51929 8.6103C6.52374 8.58209 6.5564 8.60102 6.56494 8.57727C6.57384 8.55351 6.57385 8.52939 6.59314 8.50638C6.64473 8.45888 6.69558 8.47706 6.72378 8.51529C6.74717 8.54906 6.69186 8.61549 6.73306 8.63405C6.85294 8.68193 6.9138 8.52011 7.00658 8.45331C7.03405 8.43364 7.0912 8.49599 7.05854 8.5383C6.94275 8.69158 6.89116 8.92019 6.67739 8.93467ZM7.1517 9.25236C7.15801 9.29578 7.08192 9.27166 7.05446 9.26238C6.97021 9.2338 6.85368 9.17182 6.85962 9.07161C6.89154 9.07161 6.91083 9.03821 6.91454 9.01966C6.93347 8.92019 6.97022 8.82481 7.04927 8.82481C7.17545 8.82481 7.40296 8.63516 7.38922 8.82481C7.37475 8.98663 7.13834 9.05306 7.1517 9.25236ZM7.62267 9.57598C7.51095 9.51957 7.48423 9.48654 7.38217 9.42011L7.35805 9.39969C7.34432 9.37149 7.27862 9.36629 7.30238 9.34291C7.37215 9.25161 7.37215 9.13322 7.46085 9.06234C7.46976 9.05306 7.50242 9.02485 7.51615 9.04341C7.58592 9.12394 7.59075 9.22898 7.65124 9.31842C7.68427 9.35664 7.72139 9.38968 7.76332 9.41417C8.02349 9.57116 8.2985 9.63759 8.59132 9.70365C8.73606 9.73594 8.88117 9.70588 9.02963 9.72629C9.11165 9.74633 9.29499 9.73408 9.30538 9.81017C9.31317 9.86843 9.01107 9.83763 9.00588 9.85879C8.93128 9.86435 8.85742 9.86658 8.78171 9.85582C8.38089 9.78975 7.98526 9.76118 7.62267 9.57598ZM9.35882 12.9997C9.35882 13.0142 9.33618 13.0331 9.33136 13.0271C9.28422 13.0142 9.22967 13.0142 9.18699 13.0038C9.11239 12.9804 9.15878 12.8416 9.15433 12.751C9.15433 12.7321 9.1688 12.7124 9.18699 12.7031C9.24266 12.6697 9.30798 12.6749 9.33989 12.7228C9.38332 12.7892 9.37181 12.8627 9.35734 12.9336C9.35956 12.9403 9.3603 12.9626 9.35882 12.9997ZM9.70323 13.2316C9.59672 13.2316 9.59152 13.117 9.54068 13.0516C9.52694 13.0375 9.49873 13.075 9.48909 13.0323C9.47016 12.9136 9.45643 12.7996 9.49799 12.6902C9.5262 12.6271 9.62381 12.6089 9.66055 12.6757C9.75964 12.8434 9.68431 13.0461 9.70323 13.2316ZM10.0291 13.3608C9.97712 13.2895 9.90364 13.2561 9.84797 13.199V13.2513C9.8387 13.0424 9.81976 12.9091 9.83869 12.738C9.84389 12.6953 9.8669 12.656 9.91329 12.6423C9.97861 12.6233 10.0584 12.6482 10.0669 12.7102C10.1148 12.9618 10.1278 13.1563 10.1697 13.3801C10.1323 13.389 10.0532 13.3849 10.0291 13.3608ZM10.3976 12.4756C10.4433 12.4849 10.4674 12.5321 10.4897 12.5762C10.6433 12.8434 10.7094 13.1277 10.8022 13.4135C10.6678 13.4465 10.5323 13.4465 10.3976 13.4413C10.3694 13.4361 10.342 13.3986 10.336 13.3656C10.2948 13.1938 10.2432 12.9422 10.1786 12.6716C10.1694 12.6378 10.2198 12.5194 10.2629 12.5001C10.3082 12.4756 10.3468 12.4671 10.3976 12.4756ZM10.2852 12.2908C10.1735 12.2711 10.0243 12.3431 9.95115 12.2522C9.92369 12.2192 10.0061 12.1717 9.97416 12.1283C9.94669 12.1012 9.89028 12.0674 9.87581 12.1012C9.84315 12.1535 9.88509 12.2522 9.85243 12.3012C9.81123 12.3535 9.66166 12.3535 9.63865 12.2585C9.71325 12.2389 9.80603 12.2199 9.77412 12.129C9.75036 12.073 9.67131 12.0344 9.58707 12.044C9.59709 12.129 9.59709 12.2203 9.56332 12.2867C9.5314 12.3491 9.45235 12.2867 9.39593 12.2923C9.39593 12.2641 9.39593 12.2396 9.39593 12.2107C9.4516 12.2251 9.51247 12.2025 9.4902 12.1257C9.46162 12.0299 9.39148 11.926 9.30872 11.9928C9.22039 12.0596 9.30872 12.2262 9.21037 12.3023C9.1688 12.3302 9.09791 12.3257 9.05672 12.2734C9.05152 12.2648 9.05152 12.24 9.05672 12.2314C9.09049 12.1888 9.14505 12.2077 9.18328 12.1888C9.25231 12.1502 9.22336 12.0451 9.22336 11.9794C9.22336 11.9408 9.14505 11.9126 9.10794 11.9368C9.08901 11.9512 9.04781 11.9561 9.05635 11.9991C8.99103 11.9141 9.01441 11.7757 9.07008 11.7382C9.18995 11.6532 9.36364 11.7048 9.51173 11.7467C9.73997 11.8083 9.98344 11.7467 10.2191 11.7801C10.2154 11.9527 10.2113 12.1338 10.2852 12.2908ZM10.2807 11.3971C10.3972 11.4161 10.5323 11.5393 10.4633 11.6528C10.4429 11.6877 10.369 11.6391 10.3171 11.6339C10.2332 11.6339 10.1545 11.681 10.0707 11.687C10.0495 11.6896 10.0406 11.6632 10.0261 11.6406C10.0261 11.6406 9.99865 11.6142 10.0053 11.618C9.9222 11.5434 9.84797 11.4276 9.7589 11.4817C9.69878 11.5151 9.63272 11.5344 9.57259 11.5107C9.5596 11.5044 9.53993 11.4673 9.5596 11.4535C9.60525 11.4201 9.61082 11.3493 9.67094 11.3355C9.8116 11.2969 9.9415 11.35 10.0617 11.4209C10.1271 11.4628 10.2113 11.383 10.2807 11.3971ZM10.2302 10.476C10.2158 10.5279 10.1968 10.6044 10.1367 10.6074C10.0387 10.6163 10.0896 10.7874 10.0343 10.826C9.90847 10.9024 9.74962 10.8686 9.60599 10.8738C9.60599 10.8545 9.60228 10.8319 9.60599 10.826C9.69506 10.7729 9.69507 10.6975 9.66241 10.6267C9.64793 10.5925 9.58299 10.5981 9.56332 10.6267C9.51247 10.7024 9.56851 10.8167 9.51247 10.879C9.4928 10.9069 9.42822 10.898 9.37701 10.8842C9.33656 10.8749 9.30389 10.8271 9.33655 10.7992C9.35511 10.7755 9.41041 10.8037 9.43787 10.7848C9.45234 10.7755 9.44381 10.7365 9.44381 10.7087C9.44381 10.7176 9.38851 10.5936 9.31763 10.6129C9.27977 10.6226 9.25676 10.6753 9.21519 10.6894C9.21037 10.6181 9.15024 10.5751 9.08938 10.561C9.08121 10.6178 9.01515 10.5992 8.99771 10.5843C8.9413 10.5498 9.01033 10.4938 8.99066 10.4411C9.27977 10.3932 9.56962 10.4756 9.86207 10.4029C9.87581 10.398 9.88546 10.3606 9.9003 10.3461C9.93333 10.3179 9.96117 10.2797 10.0124 10.2797C10.0038 10.2258 10.0495 10.2173 10.0777 10.198C10.1111 10.1746 10.166 10.198 10.1805 10.218C10.2302 10.2904 10.2533 10.3847 10.2302 10.476ZM11.8176 9.31916C11.7942 9.49062 11.5893 9.52848 11.445 9.57079C11.0868 9.68547 10.7324 9.76118 10.3605 9.85693C10.3056 9.86881 10.2503 9.88031 10.1946 9.89107C10.0532 9.92559 9.6394 9.95268 9.6175 9.86398C9.6008 9.79124 10.1772 9.80163 10.1735 9.78159C10.4132 9.73854 10.6351 9.66394 10.8634 9.58563C10.9833 9.54852 11.0868 9.45314 11.2078 9.39079C11.2353 9.37706 11.2776 9.38633 11.3006 9.36741C11.4078 9.26275 11.5478 9.24902 11.6777 9.19594C11.7615 9.15809 11.8261 9.27128 11.8176 9.31916ZM12.2032 9.16737C12.1798 9.23825 12.1249 9.32436 12.0495 9.29615C11.9018 9.24308 11.864 9.07755 11.7704 8.95397C11.7619 8.94469 11.7764 8.93021 11.7901 8.92539C11.8038 8.92056 11.822 8.92056 11.8358 8.92539C11.8744 8.94914 11.8692 9.01594 11.9345 9.02522C12.0228 9.0397 11.9727 8.94432 12.0043 8.91574C12.0276 8.89718 12.0499 8.95397 12.0918 8.96807C12.1668 8.99108 12.2314 9.08646 12.2032 9.16737ZM12.6133 8.85821L12.5866 8.85116C12.5814 8.93689 12.5342 8.95322 12.5198 9.03858C12.5112 9.08163 12.4314 9.06234 12.408 9.04786C12.2822 8.9432 12.2269 8.78696 12.1234 8.6578C12.156 8.6578 12.198 8.64852 12.2162 8.663C12.3242 8.76803 12.4544 8.69158 12.5569 8.73945C12.5903 8.75318 12.6315 8.79586 12.6133 8.85821ZM12.925 8.57764C12.9113 8.6437 12.823 8.70605 12.7621 8.66819C12.6649 8.60176 12.4786 8.5498 12.5353 8.43995C12.5576 8.39244 12.6563 8.47149 12.7409 8.43438L12.7632 8.39319C12.7647 8.3943 12.7532 8.34939 12.7539 8.35013C12.7409 8.30337 12.728 8.30931 12.7135 8.26366C12.6946 8.21133 12.7692 8.19314 12.7833 8.20651C12.8838 8.29706 12.9532 8.43067 12.925 8.57764ZM13.2323 8.26811C13.2004 8.30671 13.1774 8.41508 13.1162 8.38688C13.0275 8.33974 12.9852 8.24956 12.9072 8.17756C12.889 8.159 12.9261 8.1397 12.9354 8.13525C12.9948 8.12115 13.0661 8.18758 13.1073 8.1256C13.1399 8.07846 13.069 8.00238 13.1162 7.95488C13.1347 7.93632 13.1666 7.9597 13.1937 7.96453C13.1937 7.95896 13.1937 7.95488 13.1937 7.95042C13.2635 7.9931 13.3626 8.05471 13.357 8.1308C13.3537 8.18312 13.2795 8.22543 13.2323 8.26811ZM13.5441 7.81236C13.5355 7.81682 13.5303 7.86432 13.5029 7.83574C13.4754 7.89253 13.4977 7.96898 13.4376 8.01574C13.4231 7.98308 13.3956 7.96898 13.3819 7.93595C13.3637 7.90218 13.3273 7.87397 13.2746 7.8595C13.2201 7.84502 13.2145 7.76857 13.1637 7.73591C13.2427 7.63645 13.4153 7.68395 13.5311 7.70696C13.5819 7.71253 13.5767 7.79306 13.5441 7.81236ZM13.7218 7.30354C13.661 7.39855 13.5493 7.42193 13.455 7.36552C13.4283 7.34622 13.3715 7.34177 13.3715 7.28907C13.3715 7.26569 13.363 7.23674 13.3767 7.22746C13.4368 7.16511 13.5303 7.24639 13.5949 7.18923C13.6035 7.17958 13.6035 7.15063 13.5949 7.14136C13.5545 7.09348 13.4231 7.02705 13.4929 6.99847C13.6246 6.94688 13.8102 7.15101 13.7218 7.30354ZM14.0147 6.8708C13.982 6.95579 13.861 6.98511 13.7408 6.95134C13.671 6.92796 13.6138 6.86078 13.6558 6.81847C13.7022 6.78062 13.795 6.73756 13.7538 6.66631C13.7408 6.64293 13.7449 6.60433 13.7118 6.59468C13.6799 6.58985 13.6383 6.61806 13.6138 6.57575C13.6094 6.56647 13.6094 6.5379 13.6138 6.53307C13.763 6.49447 13.8989 6.55645 13.9957 6.66631C14.0473 6.72346 14.0343 6.8233 14.0147 6.8708ZM14.1546 6.14784C14.1075 6.23876 14.0343 6.29518 14.0102 6.41431C14.005 6.43398 13.9586 6.46627 13.926 6.44289C13.8414 6.38091 13.7304 6.40021 13.6658 6.32895C13.6565 6.31485 13.6331 6.27625 13.6461 6.27105C13.7449 6.25212 13.8551 6.29517 13.9275 6.23839C13.982 6.19608 13.9776 6.09105 14.0392 6.03835C14.0522 6.02907 14.0755 6.03316 14.0993 6.03316C14.1182 6.03316 14.1371 6.0287 14.1457 6.03835C14.1873 6.06693 14.1683 6.11963 14.1546 6.14784ZM14.1828 5.76297C14.0618 5.75778 13.9545 5.68244 13.8239 5.67687C13.7964 5.67687 13.7356 5.65831 13.7441 5.60598C13.7501 5.5967 13.7593 5.57741 13.7638 5.57741C13.8618 5.52545 13.9586 5.59151 14.0659 5.57184C14.1412 5.55811 14.1776 5.61971 14.2058 5.67242C14.224 5.70619 14.2103 5.76297 14.1828 5.76297ZM14.224 5.46792C14.2058 5.50169 14.1639 5.45419 14.1542 5.44936C14.0748 5.37811 13.9631 5.40149 13.874 5.33988C13.8358 5.31613 13.795 5.24487 13.8414 5.24005C13.943 5.23077 14.0087 5.16879 14.116 5.15988C14.1067 5.16879 14.103 5.18326 14.0967 5.19328C14.1576 5.16434 14.172 5.10273 14.1995 5.04594C14.2184 5.00772 14.2648 5.03184 14.2648 5.04594C14.2901 5.18772 14.2901 5.33988 14.224 5.46792ZM14.3364 3.6568C14.2667 3.87539 14.1037 4.09919 14.1873 4.33263C14.2388 4.46512 14.3227 4.63213 14.2429 4.75089C14.1872 4.83663 14.0659 4.86483 13.9546 4.7932C13.9271 4.7791 13.9312 4.74125 13.9408 4.71712C13.9928 4.61729 14.1264 4.55085 14.0711 4.41762C14.0095 4.27436 14.0429 4.11811 13.9965 3.99416C13.9508 3.86612 13.7638 3.79931 13.7259 3.65234C13.6706 3.4048 14.0251 3.44302 14.1976 3.47123C14.2711 3.48088 14.3736 3.55177 14.3364 3.6568Z" fill="#4764FA"/>
<path d="M5.20108 19.1517V19.0667C5.20108 19.0667 5.20109 18.2016 5.20628 18.1593C5.24748 17.9496 5.26715 17.7403 5.37923 17.6646C5.42562 17.6304 5.43379 17.535 5.31354 17.5502C5.24822 17.5592 4.74088 17.5926 4.64216 17.5079L4.53564 18.0776C4.53564 18.0776 4.87561 18.0446 4.60097 18.2784C4.60097 18.2784 4.61989 18.3586 4.61989 18.6581C4.61989 18.9531 4.6199 19.6468 4.55458 19.7793H5.92813C5.99345 19.793 6.00645 19.8275 6.00645 19.9411C6.00645 20.0591 6.09143 20.34 5.86281 20.4217C5.63531 20.5067 5.50913 20.5219 5.41115 20.5219L5.31317 21.0845C5.31317 21.0845 5.92776 20.8838 6.09106 20.7698C6.24917 20.6559 6.47741 20.5694 6.47741 20.228C6.47741 19.8802 6.47741 19.2675 6.55646 19.1532H5.20183L5.20108 19.1517ZM6.32821 20.0973C6.32821 20.3879 6.32376 20.4636 6.23989 20.5308C6.11444 20.6395 5.60636 20.8388 5.60636 20.8388L5.65832 20.6633C5.74294 20.6351 5.86282 20.5783 6.06805 20.4974C6.25362 20.4165 6.1805 19.8509 6.1805 19.7499C6.1805 19.6564 6.16677 19.6267 6.11519 19.6145H4.86262C4.91495 19.4983 4.91494 18.9472 4.91494 18.6952C4.91494 18.4428 4.92868 18.1478 4.92868 18.1478C5.16138 17.9529 4.80769 18.0008 4.80769 18.0008L4.78393 17.6493C4.80769 17.7102 5.0723 17.702 5.12463 17.6913C5.22669 17.6768 5.22187 17.7618 5.17956 17.7919C5.08678 17.8535 5.11869 17.9206 5.08678 18.1006C5.07676 18.1392 5.06711 19.3751 5.06711 19.3751V19.446H6.35679C6.28702 19.5406 6.32821 19.8034 6.32821 20.0973Z" fill="#4764FA"/>
<path d="M8.72611 20.3552C8.66005 20.3214 8.72611 20.2082 8.72611 20.2082C8.72611 20.2082 8.87976 20.1076 8.92541 20.0605C8.97254 20.0082 9.01374 19.9703 9.01374 19.8475C9.01374 19.7803 9.01374 19.3476 9.01374 19.2674C9.01374 19.1858 9.03267 19.1516 8.93543 19.1357C8.83671 19.1204 8.60921 19.1204 8.51123 19.1204C8.4177 19.1204 8.31935 19.087 8.31935 19.087C8.30005 19.2013 8.1104 19.6957 8.1104 19.6957C8.15754 19.7298 8.25478 19.7298 8.33383 19.7488C8.41808 19.7629 8.36649 19.7629 8.39915 19.8145C8.43255 19.8627 8.39915 20.1091 8.39915 20.1091C8.09185 19.9766 7.28649 19.2355 7.22117 19.188C7.1566 19.1357 7.09127 19.1531 7.07272 19.2017C7.05824 19.2544 6.81738 19.6003 6.81738 19.6003C6.81738 19.6003 6.91462 20.0613 6.92909 20.2576C6.94728 20.4573 6.83037 21.0696 6.83037 21.0696H7.6502L7.85915 20.5326H7.41267C7.41267 20.5326 7.41267 20.2286 7.41267 20.1615C7.41267 20.0954 7.44534 20.0954 7.44534 20.0954C7.44534 20.0954 8.60958 20.9846 8.69345 21.037C8.7725 21.0863 8.78624 21.0511 8.78624 21.0511L9.03267 20.5378C8.94916 20.5066 8.78623 20.389 8.72611 20.3552ZM8.53015 19.3275C8.53015 19.3275 8.60401 19.3513 8.67824 19.3513C8.75358 19.3513 8.7302 19.3453 8.80479 19.3453C8.88384 19.3453 8.87011 19.4459 8.87011 19.5072C8.87011 19.574 8.87011 19.574 8.87011 19.6259C8.87011 19.7261 8.86084 19.8449 8.83152 19.8783C8.79478 19.9213 8.67861 19.9974 8.67861 19.9974C8.67861 19.9974 8.72055 19.6831 8.69791 19.6448C8.67119 19.607 8.70682 19.607 8.64595 19.5929C8.58137 19.5784 8.48339 19.6122 8.44665 19.5873C8.44628 19.5892 8.51642 19.4177 8.53015 19.3275ZM8.73019 20.8302C8.73019 20.8302 8.69197 20.7916 8.63184 20.7545C8.56578 20.7159 7.29132 19.8081 7.29132 19.8081C7.29132 19.8081 7.28278 19.9032 7.28278 19.9551C7.28278 20.0067 7.29651 20.6677 7.29651 20.6677H7.65985L7.5474 20.8533H7.10946C7.10946 20.8533 7.16513 20.4265 7.15734 20.2732C7.14361 20.1017 7.10575 19.6593 7.10575 19.6593C7.10575 19.6593 7.16513 19.5884 7.17923 19.5513C7.19371 19.5086 7.24567 19.4942 7.29132 19.5368C7.39932 19.6371 8.18055 20.3964 8.84265 20.6206L8.73019 20.8302Z" fill="#4764FA"/>
<path d="M10.728 19.1612C10.5736 19.1612 9.70809 19.1612 9.67098 19.1612C9.62904 19.1612 9.46463 19.1092 9.40042 19.0194L9.22266 19.6318C9.22266 19.6318 9.23267 19.8029 9.42863 19.8029C9.61976 19.8029 10.2997 19.8029 10.2997 19.8029V21.0814C10.2997 21.0814 10.7933 20.8814 10.817 20.8669C10.8404 20.848 10.8579 20.8439 10.8579 20.7344C10.8579 20.6309 10.8579 19.323 10.8579 19.323C10.8579 19.323 10.8816 19.1612 10.728 19.1612ZM10.6946 19.5241C10.6946 19.5241 10.6946 20.4984 10.6946 20.5834C10.6946 20.6683 10.6808 20.6791 10.6612 20.6876C10.6426 20.7021 10.5083 20.7303 10.5083 20.7303V19.6088C10.5083 19.6088 9.87548 19.6088 9.71663 19.6088C9.56298 19.6088 9.5589 19.4648 9.5589 19.4648L9.59638 19.2996C9.64723 19.3757 9.77638 19.415 9.81016 19.415C9.83725 19.415 10.457 19.415 10.5821 19.415C10.705 19.4147 10.6946 19.5241 10.6946 19.5241Z" fill="#4764FA"/>
<path d="M13.1303 19.1608L12.9674 19.7256L13.1452 19.7605C13.1452 19.7605 13.1686 20.007 13.1315 20.1072C13.0899 20.2077 13.0476 20.2835 12.9771 20.3165C12.9036 20.3495 12.5261 20.4119 12.5261 20.4119C12.5261 20.4119 12.8572 19.2231 12.8605 19.1608H12.2741L12.0789 19.6945L12.2645 19.7468C12.2645 19.7468 11.9991 20.407 11.9438 20.4653C11.9438 20.4653 11.7482 20.2089 11.86 19.8188C11.9064 19.6666 11.9854 19.333 12.0311 19.2532C12.0637 19.1968 11.9709 19.1626 11.9101 19.1626C11.8455 19.1626 11.6729 19.2012 11.3764 19.068L11.1437 19.6162C11.1437 19.6162 11.1982 19.7249 11.3619 19.7583C11.5207 19.7924 11.3901 19.916 11.3619 19.9383C11.3292 19.9617 11.2973 20.0389 11.2973 20.1187C11.2973 20.1996 11.2773 21.0851 11.2773 21.0851C11.2773 21.0851 12.9073 20.8609 13.0235 20.8372C13.1081 20.8242 13.1081 20.803 13.1545 20.7611C13.2016 20.7225 13.461 20.3992 13.4851 20.3666C13.5085 20.3336 13.5085 20.3235 13.5186 20.243C13.5271 20.1625 13.5839 19.1634 13.5839 19.1634H13.1315V19.1611H13.1303V19.1608ZM13.4232 20.0879C13.4187 20.1547 13.3905 20.2786 13.3723 20.302C13.3534 20.331 13.107 20.5629 13.0695 20.5978C13.0275 20.6308 13.0275 20.6397 12.9622 20.6542C12.8694 20.6735 11.5104 20.8535 11.5104 20.8535C11.5104 20.8535 11.5241 20.1454 11.5241 20.0786C11.5241 20.0114 11.543 19.9127 11.566 19.8923C11.5935 19.8726 11.7379 19.6785 11.6495 19.6544C11.5189 19.6258 11.458 19.5928 11.458 19.5928L11.5705 19.3452C11.6907 19.3541 11.7197 19.3883 11.7705 19.3883C11.8254 19.3883 11.896 19.4117 11.8678 19.4588C11.8351 19.5252 11.7705 19.7913 11.7338 19.9149C11.7019 20.0296 11.6922 20.5336 11.7286 20.6186C11.7523 20.6713 12.1201 20.6104 12.1201 20.6104C12.1676 20.5666 12.5258 19.6258 12.5258 19.6258H12.3057L12.4048 19.4313H12.6983C12.6928 19.4837 12.3387 20.6049 12.3387 20.6049C12.3387 20.6049 12.973 20.5199 13.0327 20.4909C13.0877 20.4675 13.261 20.3009 13.2884 20.2204C13.3211 20.1435 13.3437 19.6971 13.3437 19.6971L13.1853 19.6885L13.2599 19.4213L13.4788 19.4276C13.4788 19.4284 13.4284 20.0207 13.4232 20.0879Z" fill="#4764FA"/>
<path d="M14.6248 19.0656C14.5261 19.0656 14.2986 19.0994 14.2058 19.0846C14.1067 19.0656 13.9776 19.0037 13.9776 19.0037L13.7167 19.7467C13.782 19.8124 14.1082 19.7797 14.1082 19.7797L14.0429 20.3212L14.5777 20.1742C14.5261 19.9938 14.6894 19.4806 14.7365 19.3176C14.7874 19.1517 14.7221 19.0656 14.6248 19.0656ZM14.5076 19.5314C14.4756 19.6468 14.43 19.8695 14.43 20.0068L14.2986 20.0447L14.3465 19.6409C14.3465 19.6409 14.2203 19.6947 14.0718 19.6409L14.1646 19.3941C14.1646 19.3941 14.2392 19.3893 14.3083 19.403C14.3743 19.4123 14.3881 19.4082 14.4526 19.4082C14.522 19.4082 14.545 19.4141 14.5076 19.5314Z" fill="#4764FA"/>
<path d="M4.08849 19.1609C4.08849 19.1609 3.22746 18.9371 3.15769 18.4761C3.15769 18.4761 3.11649 18.1584 3.27868 17.8493C3.27868 17.8493 3.53031 17.7962 3.55332 17.6979C3.57225 17.5973 3.5626 17.4596 3.42268 17.4073C3.2887 17.3546 3.23154 17.3791 3.14247 17.4885C3.05897 17.598 3.10536 17.6741 3.10536 17.6741C3.10536 17.6741 3.26421 17.8831 2.9892 18.0779C2.9892 18.0779 2.81662 17.5784 2.81662 17.2462C2.81662 17.2462 3.04116 16.5618 3.34289 16.0578C3.46907 15.8489 3.74371 15.4395 3.74371 15.4395C3.74371 16.3481 3.12911 17.156 3.12911 17.156C3.98606 16.6427 4.05174 15.4395 4.05174 15.2547C4.05174 15.0743 3.9482 14.5841 3.9482 14.5841C3.9482 14.5841 3.36329 15.3876 3.18552 15.749C3.00849 16.1064 2.93909 16.2965 2.80846 16.685C2.80846 16.685 2.78507 15.9491 2.80846 15.8634C2.84965 15.7205 3.16734 15.3493 3.16734 15.3493C3.16734 15.3493 3.31097 15.3683 3.36664 15.2588C3.42231 15.1545 3.43641 14.9882 3.30206 14.9363C3.16734 14.8839 3.01815 15.0317 3.01815 15.0317C2.96582 15.1545 3.03113 15.2978 3.03113 15.2978L2.80734 15.5019L2.81588 14.7548C2.81588 14.7548 3.04004 14.1369 3.34214 13.6336C3.46759 13.4235 3.74222 13.0094 3.74222 13.0094C3.74222 13.9175 3.12837 14.7258 3.12837 14.7258C3.98532 14.2174 4.00313 12.9759 4.00313 12.7963C4.00313 12.6152 3.94746 12.1583 3.94746 12.1583C3.94746 12.1583 3.32841 12.9151 3.15138 13.2706C2.97361 13.6269 2.93687 13.8039 2.80697 14.1888C2.80697 14.1888 2.78322 13.5234 2.80697 13.438C2.84705 13.2951 3.16511 12.9247 3.16511 12.9247C3.16511 12.9247 3.30948 12.9385 3.36515 12.8342C3.42045 12.7295 3.43493 12.5633 3.29984 12.5109C3.16437 12.4586 3.01592 12.6063 3.01592 12.6063C2.96396 12.7299 3.02965 12.872 3.02965 12.872L2.80586 13.0773L2.81365 12.3116C2.81365 12.3116 3.03781 11.6933 3.33991 11.1897C3.46536 10.9807 3.74074 10.5666 3.74074 10.5666C3.74074 11.4747 3.12615 12.2827 3.12615 12.2827C3.98309 11.7742 4.04804 10.5666 4.04804 10.3866C4.04804 10.2066 3.94523 9.71555 3.94523 9.71555C3.94523 9.71555 3.35884 10.4381 3.18181 10.7952C3.00478 11.1515 2.93538 11.3604 2.80549 11.7464C2.80549 11.7464 2.78174 11.0802 2.80549 10.9952C2.84631 10.852 3.16437 10.4812 3.16437 10.4812C3.16437 10.4812 3.30874 10.4957 3.36367 10.391C3.41897 10.2864 3.43344 10.1205 3.29909 10.0681C3.16437 10.0151 3.01443 10.1628 3.01443 10.1628C2.96247 10.2867 3.02816 10.4292 3.02816 10.4292L2.80437 10.6341L2.81216 9.98314C2.81216 9.98314 2.98994 9.34702 3.29204 8.84636C3.41822 8.63742 3.59489 8.34274 3.59489 8.34274C3.59489 9.24533 3.092 9.87291 3.092 9.87291C3.94894 9.36409 3.91629 8.42253 3.91629 8.24179C3.91629 8.05659 3.8929 7.45313 3.8929 7.45313C3.8929 7.45313 3.29761 8.09519 3.11538 8.45148C2.93835 8.80776 2.93464 9.03119 2.80363 9.42199C2.80363 9.42199 2.78025 8.77102 2.80363 8.68529C2.84557 8.54203 3.03188 8.21915 3.03188 8.21915C3.03188 8.21915 3.18998 8.27593 3.25085 8.18129C3.3299 8.05771 3.3529 7.9627 3.19851 7.87214C3.07233 7.79532 2.93316 7.92002 2.93316 7.92002C2.88157 8.0436 2.94243 8.15235 2.94243 8.15235L2.80252 8.32344L2.81031 7.79123C2.81031 7.79123 2.92276 7.154 3.22524 6.64963C3.35179 6.44031 3.59265 6.0458 3.59265 6.0458C3.59265 6.95433 3.12132 7.51511 3.12132 7.51511C3.86655 6.96843 3.99682 5.99347 3.99682 5.81273C3.99682 5.63273 3.94115 5.08568 3.94115 5.08568C3.94115 5.08568 3.26049 5.8183 3.08086 6.17421C2.90309 6.53124 2.84742 6.84002 2.80103 7.22526C2.80103 7.22526 2.77728 6.49301 2.80103 6.4084C2.84148 6.26551 2.97806 6.00832 2.97806 6.00832C2.97806 6.00832 3.09459 6.04209 3.15026 5.93706C3.20556 5.8324 3.15472 5.71364 3.05117 5.66205C2.92128 5.59116 2.86561 5.69063 2.86561 5.69063C2.81402 5.81384 2.87489 5.95673 2.87489 5.95673L2.76763 6.04728L2.75835 5.50988C2.75835 5.50988 2.93093 4.91088 3.23229 4.40688C3.35847 4.19793 3.68024 3.78449 3.68024 3.78449C3.68024 4.69265 3.19517 5.2204 3.19517 5.2204C4.05137 4.71121 3.98606 3.89917 3.98606 3.71843C3.98606 3.23373 3.93113 3.09047 3.93113 3.09047C3.93113 3.09047 3.19963 3.76074 3.02371 4.12259C2.84594 4.47925 2.78136 4.84073 2.65592 5.23042L2.64776 1.92141C2.99291 2.52969 2.87118 2.55827 2.92128 2.76277C2.96841 2.96726 2.93019 3.77521 2.93019 3.77521C2.93019 3.77521 3.08866 3.26639 3.12948 2.83848C3.17216 2.40611 2.92054 1.98784 2.85559 1.88764C2.79027 1.78817 2.62771 1.28455 2.62771 1.28455C2.62771 1.28455 2.60433 1.5217 2.40392 1.90248C2.19869 2.28252 2.16603 2.63955 2.16232 2.8767C2.14784 3.24338 2.4967 4.1174 2.52565 4.16564C2.56276 4.24618 2.53938 5.32024 2.53938 5.32024C2.16639 5.00663 1.99939 4.84519 1.8784 4.64997C1.66908 4.32189 1.58483 3.71361 1.58483 3.71361C1.58483 3.71361 1.80454 3.9656 1.93295 4.09884C2.06396 4.23171 2.37534 4.76911 2.37534 4.76911C2.43955 4.04169 1.34211 3.10977 1.34211 3.10977C1.34211 3.10977 1.25378 4.34564 1.63493 4.9402C1.89176 5.34436 2.57093 5.63459 2.57093 5.63459V6.09516L2.40837 5.99087C2.40837 5.99087 2.45922 5.83834 2.3939 5.7244C2.3939 5.7244 2.23134 5.59191 2.10033 5.6576C1.97489 5.7244 2.00755 5.89067 2.06768 5.9905C2.13299 6.08996 2.28182 6.05693 2.28182 6.05693C2.28182 6.05693 2.50116 6.25697 2.55646 6.39466C2.58912 6.47557 2.57019 7.64983 2.57019 7.64983C2.19683 7.33585 2.07658 7.13136 1.95559 6.93652C1.74665 6.60881 1.61638 6.06176 1.61638 6.06176C1.61638 6.06176 1.8758 6.2759 2.00681 6.40877C2.13225 6.54163 2.3746 7.02225 2.3746 7.02225C2.43881 6.29483 1.34025 5.25343 1.34025 5.25343C1.34025 5.25343 1.27568 6.4752 1.63382 7.08905C1.92738 7.59268 2.57019 7.87363 2.57019 7.87363V8.32492L2.32747 8.14455C2.32747 8.14455 2.37534 7.99758 2.31448 7.87808C2.31448 7.87808 2.15192 7.74967 2.02203 7.81202C1.89064 7.87808 1.92367 8.04472 1.98751 8.14455C2.05394 8.24439 2.19683 8.21136 2.19683 8.21136C2.19683 8.21136 2.49967 8.53461 2.55646 8.6723C2.58912 8.75321 2.57019 9.92747 2.57019 9.92747C2.19683 9.61349 2.07658 9.40937 1.95559 9.21935C1.74665 8.88644 1.61489 8.34459 1.61489 8.34459C1.61489 8.34459 1.8758 8.55874 2.00681 8.68678C2.13225 8.81964 2.37386 9.30026 2.37386 9.30026C2.43955 8.57284 1.34025 7.53181 1.34025 7.53181C1.34025 7.53181 1.27568 8.75358 1.63382 9.36706C1.92738 9.87588 2.57872 10.1561 2.57872 10.1561L2.57093 10.6356L2.32895 10.4552C2.32895 10.4552 2.37534 10.3083 2.31448 10.1895C2.31448 10.1895 2.15192 10.0611 2.02203 10.1271C1.89176 10.1895 1.92367 10.3558 1.98825 10.4552C2.05394 10.5558 2.19757 10.5224 2.19757 10.5224C2.19757 10.5224 2.50042 10.8453 2.5572 10.983C2.58986 11.065 2.57093 12.2389 2.57093 12.2389C2.19757 11.9245 2.07732 11.7204 1.95559 11.5304C1.74665 11.1979 1.61638 10.6564 1.61638 10.6564C1.61638 10.6564 1.87654 10.8701 2.00755 11.0045C2.13299 11.1329 2.3746 11.6128 2.3746 11.6128C2.43955 10.885 1.341 9.84434 1.341 9.84434C1.341 9.84434 1.27568 11.0661 1.63382 11.6796C1.92813 12.188 2.57093 12.4734 2.57093 12.4734V13.081L2.32821 12.9006C2.32821 12.9006 2.37534 12.7536 2.31448 12.6345C2.31448 12.6345 2.15192 12.5054 2.02166 12.5677C1.89102 12.6345 1.92367 12.7997 1.98825 12.9002C2.05394 13.0008 2.19757 12.9678 2.19757 12.9678C2.19757 12.9678 2.50042 13.2907 2.5572 13.4276C2.58912 13.51 2.57093 14.6843 2.57093 14.6843C2.19757 14.3688 2.07732 14.1658 1.95559 13.9754C1.74665 13.6429 1.61564 13.1018 1.61564 13.1018C1.61564 13.1018 1.8758 13.3148 2.00755 13.4436C2.13299 13.5768 2.3746 14.0571 2.3746 14.0571C2.43918 13.3289 1.341 12.2879 1.341 12.2879C1.341 12.2879 1.27568 13.51 1.63456 14.1231C1.92813 14.6319 2.57093 14.898 2.57093 14.898V15.5071L2.32895 15.3267C2.32895 15.3267 2.37534 15.1797 2.31448 15.0654C2.31448 15.0654 2.15192 14.9333 2.02166 14.9982C1.89176 15.0654 1.92367 15.2272 1.98825 15.3267C2.05394 15.4273 2.1972 15.3939 2.1972 15.3939C2.1972 15.3939 2.50041 15.722 2.55794 15.8548C2.5906 15.9406 2.57167 17.1104 2.57167 17.1104C2.1972 16.7964 2.07807 16.5923 1.95633 16.4026C1.74702 16.0742 1.61638 15.5279 1.61638 15.5279C1.61638 15.5279 1.87654 15.7416 2.00792 15.876C2.13337 16.0088 2.37534 16.4843 2.37534 16.4843C2.43992 15.7617 1.34174 14.7206 1.34174 14.7206C1.34174 14.7206 1.27642 15.942 1.63456 16.5507C1.92887 17.0599 2.60359 17.3449 2.60359 17.3449C2.63625 17.6734 2.70157 18.1069 2.70157 18.1069C2.408 17.9398 2.47407 17.8062 2.47407 17.8062C2.47407 17.8062 2.50672 17.6734 2.408 17.5739C2.31522 17.4785 2.21724 17.4114 2.08697 17.4785C1.95708 17.545 2.0224 17.673 2.05432 17.7739C2.08698 17.8734 2.2499 17.9402 2.2499 17.9402C2.34788 18.0723 2.81328 18.4342 2.81328 18.4342C3.21781 19.6085 4.28482 19.889 4.28482 19.889L4.08849 19.1609ZM3.95414 19.3798C3.93966 19.4804 3.92074 19.4986 3.82276 19.4333C3.72998 19.3661 3.52103 19.2332 3.38928 18.9853C3.38928 18.9853 3.76189 19.2659 3.85579 19.2856C3.95414 19.2989 3.97232 19.2845 3.95414 19.3798Z" fill="#4764FA"/>
<path d="M17.4229 7.08492C17.7765 6.47106 17.7112 5.24967 17.7112 5.24967C17.7112 5.24967 16.6112 6.29032 16.6776 7.01774C16.6776 7.01774 16.9185 6.5375 17.0502 6.40426C17.1809 6.27139 17.4373 6.05725 17.4373 6.05725C17.4373 6.05725 17.3063 6.60467 17.0974 6.93238C16.9764 7.12685 16.8547 7.33098 16.4828 7.64533C16.4828 7.64533 16.4691 6.47106 16.501 6.39016C16.5526 6.2521 16.7756 6.05243 16.7756 6.05243C16.7756 6.05243 16.9207 6.08583 16.9857 5.98637C17.0502 5.88616 17.0836 5.71989 16.9511 5.65346C16.8209 5.58666 16.6591 5.71952 16.6591 5.71952C16.5978 5.8342 16.645 5.98562 16.645 5.98562L16.4824 6.09028V5.62971C16.4824 5.62971 17.1612 5.33948 17.4214 4.93532C17.7996 4.34151 17.7097 3.1049 17.7097 3.1049C17.7097 3.1049 16.6108 4.03681 16.6761 4.76423C16.6761 4.76423 16.9931 4.22646 17.1189 4.09396C17.2495 3.96036 17.4674 3.70836 17.4674 3.70836C17.4674 3.70836 17.3883 4.31701 17.1798 4.64472C17.0536 4.83994 16.8855 5.00175 16.5128 5.31536C16.5128 5.31536 16.4895 4.2413 16.5325 4.16114C16.5559 4.11289 16.9051 3.2385 16.8959 2.87182C16.8869 2.6343 16.8543 2.27801 16.6542 1.8976C16.4494 1.51682 16.4267 1.2793 16.4267 1.2793C16.4267 1.2793 16.2642 1.78367 16.1989 1.88313C16.1387 1.98259 15.8871 2.40123 15.9242 2.8336C15.9662 3.26188 16.1295 3.77071 16.1295 3.77071C16.1295 3.77071 16.0875 2.96238 16.1387 2.75789C16.1851 2.55414 16.0634 2.52556 16.4123 1.91653L16.4034 5.22592C16.2731 4.83623 16.2126 4.47474 16.0307 4.11772C15.8533 3.75623 15.1233 3.08634 15.1233 3.08634C15.1233 3.08634 15.0669 3.22885 15.0669 3.71355C15.0669 3.89429 15.0068 4.70707 15.8634 5.21552C15.8634 5.21552 15.375 4.68815 15.375 3.77961C15.375 3.77961 15.7004 4.19306 15.8266 4.40237C16.1284 4.90637 16.2976 5.50538 16.2976 5.50538L16.292 6.04278L16.1803 5.95222C16.1803 5.95222 16.2456 5.80859 16.1888 5.68612C16.1888 5.68612 16.1332 5.58591 16.0033 5.65754C15.9005 5.70987 15.8541 5.82826 15.9046 5.93292C15.9599 6.03795 16.0771 6.00418 16.0771 6.00418C16.0771 6.00418 16.2171 6.261 16.2542 6.40315C16.2779 6.48888 16.2542 7.22075 16.2542 7.22075C16.2085 6.83589 16.1569 6.5271 15.9751 6.17008C15.7988 5.81416 15.1181 5.0808 15.1181 5.0808C15.1181 5.0808 15.0625 5.62822 15.0625 5.80785C15.0625 5.98896 15.1879 6.96356 15.9331 7.50986C15.9331 7.50986 15.4625 6.94908 15.4625 6.04129C15.4625 6.04129 15.7097 6.43581 15.8307 6.64475C16.138 7.14838 16.249 7.78598 16.249 7.78598L16.2571 8.31893L16.1128 8.14747C16.1128 8.14747 16.1781 8.03835 16.1224 7.91477C16.1224 7.91477 15.9825 7.79118 15.8563 7.86726C15.7079 7.95745 15.7301 8.05246 15.8099 8.17567C15.87 8.27105 16.023 8.2139 16.023 8.2139C16.023 8.2139 16.2145 8.53716 16.2505 8.67967C16.2749 8.76577 16.2505 9.41674 16.2505 9.41674C16.125 9.02705 16.1213 8.80326 15.9394 8.4466C15.7617 8.09031 15.1608 7.44825 15.1608 7.44825C15.1608 7.44825 15.1374 8.05246 15.1374 8.23691C15.1374 8.41802 15.1044 9.35996 15.9625 9.86841C15.9625 9.86841 15.4599 9.24119 15.4599 8.33786C15.4599 8.33786 15.6418 8.63291 15.768 8.84186C16.066 9.34066 16.2471 9.97826 16.2471 9.97826L16.2553 10.6303L16.0322 10.4251C16.0322 10.4251 16.0916 10.2826 16.04 10.1583C16.04 10.1583 15.8923 10.0113 15.7557 10.064C15.621 10.116 15.6396 10.2826 15.6912 10.3872C15.7457 10.4915 15.8957 10.4778 15.8957 10.4778C15.8957 10.4778 16.2126 10.8478 16.2493 10.9915C16.2727 11.0764 16.2493 11.7415 16.2493 11.7415C16.1232 11.3566 16.0538 11.147 15.8723 10.7903C15.6949 10.4348 15.1129 9.71142 15.1129 9.71142C15.1129 9.71142 15.0053 10.2002 15.0053 10.3817C15.0053 10.5632 15.0721 11.7705 15.9276 12.2785C15.9276 12.2785 15.3122 11.4702 15.3122 10.5624C15.3122 10.5624 15.5869 10.9759 15.7131 11.1848C16.0163 11.6888 16.2441 12.3067 16.2441 12.3067L16.2538 13.0735L16.0307 12.8694C16.0307 12.8694 16.0909 12.7272 16.0393 12.6029C16.0393 12.6029 15.8908 12.4559 15.755 12.5072C15.6203 12.5606 15.6388 12.7265 15.6897 12.8304C15.7442 12.9347 15.8949 12.921 15.8949 12.921C15.8949 12.921 16.2119 13.2914 16.2486 13.435C16.272 13.52 16.2486 14.185 16.2486 14.185C16.1224 13.8009 16.0857 13.6243 15.9042 13.2676C15.7264 12.9117 15.1122 12.1557 15.1122 12.1557C15.1122 12.1557 15.0569 12.6118 15.0569 12.7926C15.0569 12.9726 15.0706 14.2136 15.9276 14.7228C15.9276 14.7228 15.3137 13.9152 15.3137 13.006C15.3137 13.006 15.5876 13.4194 15.7131 13.6298C16.0159 14.1331 16.2445 14.751 16.2445 14.751L16.2531 15.4985L16.0296 15.294C16.0296 15.294 16.0905 15.1504 16.0374 15.0271C16.0374 15.0271 15.8901 14.8802 15.7535 14.9321C15.6192 14.9848 15.6373 15.1504 15.6882 15.2546C15.7431 15.3641 15.8934 15.3459 15.8934 15.3459C15.8934 15.3459 16.2104 15.716 16.2471 15.8592C16.2705 15.9442 16.2471 16.6813 16.2471 16.6813C16.1202 16.2912 16.0519 16.1016 15.8693 15.7457C15.6923 15.3842 15.1103 14.5803 15.1103 14.5803C15.1103 14.5803 15.0038 15.0691 15.0038 15.2513C15.0038 15.4369 15.0691 16.6386 15.925 17.1526C15.925 17.1526 15.3111 16.3447 15.3111 15.4361C15.3111 15.4361 15.585 15.8459 15.7112 16.0537C16.014 16.5573 16.2427 17.2428 16.2427 17.2428C16.2367 17.5753 16.0649 18.0738 16.0649 18.0738C15.7943 17.8797 15.9539 17.67 15.9539 17.67C15.9539 17.67 15.9951 17.5939 15.912 17.4844C15.8236 17.3749 15.7669 17.3523 15.6321 17.4039C15.4974 17.4566 15.4837 17.5939 15.506 17.6934C15.5249 17.7932 15.7765 17.8455 15.7765 17.8455C15.9439 18.1547 15.8968 18.4727 15.8968 18.4727C15.827 18.9337 14.9712 19.1571 14.9712 19.1571L14.7618 19.8752C14.7618 19.8752 15.8281 19.5947 16.2326 18.4211C16.2326 18.4211 16.7036 18.0597 16.8008 17.9268C16.8008 17.9268 16.9589 17.86 16.9916 17.7605C17.0246 17.6603 17.0907 17.5323 16.9589 17.4655C16.8328 17.3983 16.7348 17.4655 16.6383 17.5612C16.5407 17.6614 16.5726 17.7932 16.5726 17.7932C16.5726 17.7932 16.6383 17.9253 16.3447 18.0938C16.3447 18.0938 16.41 17.6614 16.4438 17.3322C16.4438 17.3322 17.1182 17.0472 17.4162 16.5384C17.7706 15.9297 17.7045 14.7072 17.7045 14.7072C17.7045 14.7072 16.6053 15.7483 16.6709 16.472C16.6709 16.472 16.9126 15.9969 17.0436 15.8633C17.1746 15.7297 17.4307 15.5152 17.4307 15.5152C17.4307 15.5152 17.2996 16.0626 17.0914 16.3899C16.9708 16.58 16.8491 16.7845 16.4772 17.0973C16.4772 17.0973 16.4627 15.929 16.4954 15.8425C16.5462 15.71 16.8491 15.3808 16.8491 15.3808C16.8491 15.3808 16.9935 15.4153 17.058 15.3148C17.1241 15.2142 17.1568 15.0531 17.0261 14.9859C16.9007 14.9195 16.7378 15.0531 16.7378 15.0531C16.6724 15.1674 16.7188 15.3148 16.7188 15.3148L16.4776 15.494V14.8854C16.4776 14.8854 17.1193 14.6185 17.4169 14.1112C17.7714 13.4981 17.7053 12.2752 17.7053 12.2752C17.7053 12.2752 16.6064 13.3159 16.6717 14.0444C16.6717 14.0444 16.9137 13.5638 17.0443 13.4309C17.1749 13.3014 17.4314 13.0887 17.4314 13.0887C17.4314 13.0887 17.3008 13.6302 17.0914 13.9631C16.9705 14.1524 16.8495 14.3576 16.4776 14.6712C16.4776 14.6712 16.4631 13.4973 16.4958 13.4153C16.547 13.2776 16.8495 12.9547 16.8495 12.9547C16.8495 12.9547 16.9942 12.9889 17.0584 12.8876C17.1248 12.7877 17.1575 12.6215 17.0257 12.5554C16.9003 12.4923 16.7385 12.6215 16.7385 12.6215C16.6721 12.7399 16.7192 12.8876 16.7192 12.8876L16.4783 13.0679V12.4597C16.4783 12.4597 17.12 12.1735 17.4173 11.6651C17.7717 11.0519 17.7057 9.83018 17.7057 9.83018C17.7057 9.83018 16.6067 10.8712 16.6721 11.599C16.6721 11.599 16.9137 11.1191 17.0447 10.9903C17.1757 10.8575 17.4318 10.6422 17.4318 10.6422C17.4318 10.6422 17.3008 11.1848 17.0926 11.5166C16.9719 11.707 16.8502 11.9115 16.4783 12.2247C16.4783 12.2247 16.4639 11.0505 16.4965 10.9692C16.5474 10.8315 16.8502 10.509 16.8502 10.509C16.8502 10.509 16.9946 10.542 17.0591 10.4418C17.1252 10.3412 17.1579 10.1746 17.0272 10.113C16.9018 10.0466 16.7389 10.1746 16.7389 10.1746C16.6735 10.2934 16.7199 10.4418 16.7199 10.4418L16.4787 10.6218L16.4691 10.1416C16.4691 10.1416 17.1215 9.86098 17.4203 9.3529C17.7728 8.73942 17.7075 7.51729 17.7075 7.51729C17.7075 7.51729 16.6086 8.55794 16.6739 9.28573C16.6739 9.28573 16.9159 8.80548 17.0465 8.67262C17.1775 8.54384 17.434 8.33044 17.434 8.33044C17.434 8.33044 17.303 8.87229 17.0948 9.20557C16.973 9.39521 16.8521 9.60008 16.4802 9.91369C16.4802 9.91369 16.4665 8.73942 16.4984 8.65852C16.55 8.5212 16.8521 8.19794 16.8521 8.19794C16.8521 8.19794 16.9964 8.23097 17.061 8.13114C17.1271 8.03167 17.1597 7.86467 17.0291 7.7986C16.9029 7.73625 16.7415 7.86467 16.7415 7.86467C16.6747 7.9838 16.7218 8.13114 16.7218 8.13114L16.4806 8.31188V7.85984C16.4828 7.86912 17.1245 7.58891 17.4229 7.08492ZM15.2391 19.4325C15.1411 19.4993 15.1274 19.4811 15.1085 19.3794C15.0947 19.2844 15.1085 19.2992 15.2072 19.2844C15.3052 19.2647 15.6782 18.9842 15.6782 18.9842C15.5464 19.2321 15.3367 19.366 15.2391 19.4325Z" fill="#4764FA"/>
<path d="M6.55566 13.5367V15.3059H12.5394V13.5367H6.55566ZM6.83995 15.1389H6.7557V13.6752H7.96188V13.7602H6.83995V15.1389ZM7.03628 15.0072H6.95203V13.8938H7.80378V13.9788H7.03628V15.0072ZM7.81417 14.6813C7.83013 14.7151 7.87207 14.7355 7.9244 14.7355V14.8027C7.84609 14.8027 7.78374 14.7689 7.75553 14.7129C7.73586 14.675 7.7418 14.6375 7.76778 14.6101C7.80897 14.5696 7.89545 14.5607 7.95409 14.5919L7.92291 14.6513C7.88728 14.6312 7.83236 14.6383 7.81417 14.6572C7.8112 14.6598 7.80526 14.6654 7.81417 14.6813ZM7.97339 14.5306C7.95038 14.4594 7.87281 14.426 7.79747 14.3922C7.7945 14.3907 7.79153 14.3892 7.78968 14.3885C7.7663 14.4772 7.67352 14.5355 7.57888 14.5588C7.58741 14.6357 7.56811 14.724 7.52395 14.7953C7.67017 14.7786 7.80712 14.822 7.93553 14.8699L7.91364 14.9322C7.7804 14.8836 7.63826 14.8394 7.49314 14.8669L7.48758 14.8402C7.42152 14.9066 7.33318 14.9285 7.24782 14.9519C7.22741 14.9563 7.20811 14.9604 7.18844 14.9675L7.171 14.9033C7.19142 14.8966 7.21145 14.8921 7.23186 14.8866C7.32762 14.8628 7.41817 14.8394 7.46976 14.7596C7.50947 14.695 7.52543 14.6097 7.50947 14.5451C7.50093 14.5065 7.47904 14.4772 7.44786 14.4597C7.41298 14.4379 7.34135 14.4327 7.3035 14.4675C7.24263 14.5299 7.19141 14.6613 7.25154 14.7489L7.19809 14.7875C7.12127 14.6769 7.1684 14.5125 7.25673 14.4212C7.31314 14.3633 7.4178 14.3647 7.47941 14.4019C7.51615 14.4226 7.54436 14.4553 7.56032 14.4946C7.63937 14.475 7.73141 14.4249 7.72844 14.3421L7.72584 14.2872L7.77483 14.3106C7.79005 14.3183 7.80601 14.3258 7.82271 14.3325C7.90733 14.3688 8.00197 14.4115 8.03314 14.5106L7.97339 14.5306ZM7.3239 14.7006C7.3239 14.6527 7.33764 14.6138 7.36325 14.5811L7.41372 14.623C7.39591 14.6446 7.38997 14.6694 7.38997 14.7006H7.3239ZM8.22056 15.153H8.13594V13.6889H10.3093V13.7739H8.21945V15.153H8.22056ZM8.41207 15.0198H8.32856V13.9079H10.1475V13.9936H8.41058V15.0198H8.41207ZM9.02666 14.7626C9.00143 14.7058 8.9361 14.6754 8.86633 14.6865C8.84295 14.6921 8.83108 14.7084 8.81215 14.7374C8.79396 14.7656 8.77095 14.8016 8.72456 14.8142L8.70786 14.7503C8.72901 14.7437 8.74126 14.727 8.75796 14.7002C8.77837 14.6691 8.80287 14.6305 8.8552 14.6212C8.95578 14.6045 9.0493 14.6498 9.08716 14.7362L9.02666 14.7626ZM9.81457 14.7615L9.75148 14.7752C9.7422 14.7366 9.74777 14.7006 9.76039 14.6694C9.56369 14.7381 9.33322 14.7203 9.16546 14.534C9.14951 14.5158 9.11759 14.5006 9.10237 14.505C9.10089 14.5058 9.09717 14.5065 9.09495 14.5143C9.08196 14.5852 9.17846 14.6654 9.27532 14.7036L9.25156 14.7659C9.13058 14.7188 9.01033 14.6164 9.03037 14.5006C9.03817 14.4687 9.05783 14.4464 9.0853 14.4397C9.13021 14.4282 9.18551 14.4564 9.21297 14.4894C9.39854 14.6973 9.67911 14.6642 9.87395 14.5403L9.91107 14.5948C9.83425 14.6535 9.80307 14.7062 9.81457 14.7615ZM10.2458 14.7199C10.2147 14.7121 10.1879 14.698 10.1634 14.6858C10.1371 14.672 10.1126 14.6587 10.09 14.6587C10.054 14.6587 10.0335 14.6947 10.0053 14.7496C9.99754 14.7611 9.99235 14.773 9.98641 14.7845L9.93 14.7503C9.93705 14.7411 9.94076 14.7292 9.94781 14.7177C9.97565 14.662 10.0124 14.5908 10.09 14.5908C10.1286 14.5908 10.1612 14.6082 10.1939 14.6256C10.2169 14.6372 10.2366 14.649 10.2588 14.6539L10.2458 14.7199ZM10.3178 14.5347C10.2744 14.5347 10.1408 14.5347 10.1193 14.443L10.1163 14.4327C10.0989 14.3751 10.0866 14.328 10.0417 14.3028C10.0113 14.289 9.96637 14.2972 9.9222 14.3106C9.88732 14.3228 9.8554 14.3469 9.822 14.3729C9.79936 14.3911 9.77486 14.4108 9.74665 14.4263C9.53845 14.5425 9.31466 14.4245 9.16472 14.3258C9.11833 14.2976 9.06823 14.2868 9.03334 14.2968C9.00699 14.3042 8.98546 14.3302 8.96282 14.3577C8.94204 14.3826 8.92237 14.4093 8.89268 14.4271C8.86522 14.439 8.83775 14.4412 8.80992 14.4419C8.78394 14.443 8.75573 14.4438 8.74052 14.4542C8.72085 14.4664 8.71936 14.4891 8.71713 14.524C8.71416 14.5585 8.7112 14.5963 8.68225 14.623C8.66926 14.6334 8.65404 14.6457 8.63883 14.6572C8.62361 14.6672 8.60913 14.6776 8.598 14.6861C8.57796 14.7006 8.58427 14.7559 8.58724 14.7797L8.52267 14.7875C8.51784 14.7433 8.50968 14.6698 8.55941 14.6331C8.5698 14.6242 8.58576 14.6123 8.60172 14.6012C8.61619 14.5922 8.6314 14.5804 8.64217 14.5722C8.64996 14.5644 8.64996 14.5425 8.65256 14.5202C8.65478 14.4816 8.65887 14.4286 8.706 14.3989C8.73643 14.3774 8.77466 14.3759 8.80658 14.3755C8.82885 14.3748 8.85 14.374 8.86299 14.3677C8.87821 14.3595 8.89565 14.338 8.91235 14.3165C8.93981 14.2831 8.96876 14.2467 9.01664 14.233C9.09272 14.2111 9.17029 14.2519 9.19998 14.2701C9.33767 14.3592 9.53994 14.4664 9.71771 14.3692C9.74109 14.3555 9.76113 14.3391 9.78451 14.3209C9.81977 14.2931 9.85688 14.2653 9.90476 14.2482C9.96192 14.233 10.0209 14.2219 10.0721 14.2449C10.143 14.2835 10.162 14.3514 10.1801 14.4163L10.1839 14.4275C10.1883 14.4442 10.2098 14.4694 10.3193 14.4694V14.5358H10.3186V14.5347H10.3178ZM12.3947 15.1586H10.4852V13.7171H12.3947V15.1586Z" fill="#4764FA"/>
</svg>
