<svg width="32" height="32" viewBox="0 0 32 32" fill="none" xmlns="http://www.w3.org/2000/svg">
<path d="M16 6C11.6 6 8 9.6 8 14C8 19.4 15 25.5 15.3 25.8C15.5 25.9 15.8 26 16 26C16.2 26 16.5 25.9 16.7 25.8C17 25.5 24 19.4 24 14C24 9.6 20.4 6 16 6ZM16 23.7C13.9 21.7 10 17.4 10 14C10 10.7 12.7 8 16 8C19.3 8 22 10.7 22 14C22 17.3 18.1 21.7 16 23.7ZM16 10C13.8 10 12 11.8 12 14C12 16.2 13.8 18 16 18C18.2 18 20 16.2 20 14C20 11.8 18.2 10 16 10ZM16 16C14.9 16 14 15.1 14 14C14 12.9 14.9 12 16 12C17.1 12 18 12.9 18 14C18 15.1 17.1 16 16 16Z" fill="#BBCDFE"/>
</svg>
