<svg width="16" height="16" viewBox="0 0 16 16" fill="none" xmlns="http://www.w3.org/2000/svg">
<path d="M4.8254 6.62037C4.61573 6.44066 4.30008 6.46494 4.12037 6.6746C3.94066 6.88427 3.96494 7.19992 4.1746 7.37963L4.8254 6.62037ZM11.8254 7.37963C12.0351 7.19992 12.0593 6.88427 11.8796 6.6746C11.6999 6.46494 11.3843 6.44066 11.1746 6.62037L11.8254 7.37963ZM8 10L7.6746 10.3796C7.86185 10.5401 8.13815 10.5401 8.3254 10.3796L8 10ZM4.1746 7.37963L7.6746 10.3796L8.3254 9.62037L4.8254 6.62037L4.1746 7.37963ZM8.3254 10.3796L11.8254 7.37963L11.1746 6.62037L7.6746 9.62037L8.3254 10.3796Z" fill="#333333"/>
</svg>
