<svg width="33" height="32" viewBox="0 0 33 32" fill="none" xmlns="http://www.w3.org/2000/svg">
<g id="icon-after">
<path id="Union" fill-rule="evenodd" clip-rule="evenodd" d="M21.2439 10H19.6639C19.3987 10 19.1444 9.89464 18.9568 9.70711C18.7693 9.51957 18.6639 9.26522 18.6639 9C18.6639 8.73478 18.7693 8.48043 18.9568 8.29289C19.1444 8.10536 19.3987 8 19.6639 8H23.6639C23.9292 8 24.1835 8.10536 24.371 8.29289C24.5586 8.48043 24.6639 8.73478 24.6639 9V13C24.6639 13.2652 24.5586 13.5196 24.371 13.7071C24.1835 13.8946 23.9292 14 23.6639 14C23.3987 14 23.1444 13.8946 22.9568 13.7071C22.7693 13.5196 22.6639 13.2652 22.6639 13V11.42L19.3739 14.7C19.281 14.7937 19.1704 14.8681 19.0485 14.9189C18.9267 14.9697 18.796 14.9958 18.6639 14.9958C18.5319 14.9958 18.4012 14.9697 18.2794 14.9189C18.1575 14.8681 18.0469 14.7937 17.9539 14.7C17.8602 14.607 17.7858 14.4964 17.735 14.3746C17.6843 14.2527 17.6581 14.122 17.6581 13.99C17.6581 13.858 17.6843 13.7273 17.735 13.6054C17.7858 13.4836 17.8602 13.373 17.9539 13.28L21.2439 10ZM12.0841 22H13.6641C13.9293 22 14.1836 22.1054 14.3712 22.2929C14.5587 22.4804 14.6641 22.7348 14.6641 23C14.6641 23.2652 14.5587 23.5196 14.3712 23.7071C14.1836 23.8946 13.9293 24 13.6641 24L9.66406 24C9.39885 24 9.14449 23.8946 8.95695 23.7071C8.76942 23.5196 8.66406 23.2652 8.66406 23V19C8.66406 18.7348 8.76942 18.4804 8.95696 18.2929C9.14449 18.1054 9.39885 18 9.66406 18C9.92928 18 10.1836 18.1054 10.3712 18.2929C10.5587 18.4804 10.6641 18.7348 10.6641 19L10.6641 20.58L13.9541 17.3C14.047 17.2063 14.1576 17.1319 14.2795 17.0811C14.4013 17.0303 14.5321 17.0042 14.6641 17.0042C14.7961 17.0042 14.9268 17.0303 15.0486 17.0811C15.1705 17.1319 15.2811 17.2063 15.3741 17.3C15.4678 17.393 15.5422 17.5036 15.593 17.6254C15.6437 17.7473 15.6699 17.878 15.6699 18.01C15.6699 18.142 15.6437 18.2727 15.593 18.3946C15.5422 18.5164 15.4678 18.627 15.3741 18.72L12.0841 22Z" fill="#0012F0"/>
</g>
</svg>
