<svg width="8" height="7" viewBox="0 0 8 7" fill="none" xmlns="http://www.w3.org/2000/svg">
<path d="M7.64202 0.25267C7.84 0.428853 7.95996 0.676424 7.97552 0.940993C7.99108 1.20556 7.90098 1.46549 7.72502 1.66367L3.39202 6.66367C3.2982 6.76925 3.18308 6.85375 3.05424 6.91162C2.9254 6.96949 2.78576 6.99941 2.64452 6.99941C2.50328 6.99941 2.36364 6.96949 2.2348 6.91162C2.10596 6.85375 1.99084 6.76925 1.89702 6.66367L0.231017 4.66367C0.0651359 4.46413 -0.0166859 4.20792 0.00283605 3.94917C0.022358 3.69042 0.141695 3.44939 0.335638 3.27699C0.529581 3.1046 0.782941 3.01434 1.0422 3.02529C1.30145 3.03624 1.5463 3.14754 1.72502 3.33567L2.64502 4.49467L6.23102 0.33467C6.40734 0.136825 6.65498 0.0170611 6.91955 0.00168594C7.18411 -0.0136893 7.44397 0.0765821 7.64202 0.25267Z" fill="white"/>
</svg>
