<svg width="33" height="32" viewBox="0 0 33 32" fill="none" xmlns="http://www.w3.org/2000/svg">
<g id="icon-after">
<path id="Vector" d="M25.0724 9.89L21.0724 8.09H20.2524L16.6624 9.7L13.0724 8.09H13.0224L12.9024 8H12.3024L8.30235 9.8C8.10284 9.87645 7.93306 10.0148 7.81789 10.1947C7.70271 10.3747 7.64821 10.5868 7.66235 10.8V23C7.66263 23.1673 7.70489 23.3319 7.78525 23.4786C7.86562 23.6254 7.98152 23.7496 8.12235 23.84C8.2833 23.944 8.47074 23.9995 8.66235 24C8.80385 23.9993 8.94359 23.9687 9.07235 23.91L12.6624 22.3L16.2524 23.91H16.3024C16.4151 23.9627 16.5379 23.99 16.6624 23.99C16.7868 23.99 16.9097 23.9627 17.0224 23.91H17.0724L20.6624 22.3L24.2524 23.91C24.3811 23.9687 24.5209 23.9993 24.6624 24C24.854 23.9995 25.0414 23.944 25.2024 23.84C25.3432 23.7496 25.4591 23.6254 25.5394 23.4786C25.6198 23.3319 25.6621 23.1673 25.6624 23V10.8C25.662 10.6076 25.6061 10.4195 25.5014 10.2581C25.3968 10.0967 25.2478 9.96887 25.0724 9.89ZM9.66235 11.44L11.6624 10.55V20.55L9.66235 21.44V11.44ZM13.6624 10.55L15.6624 11.44V21.44L13.6624 20.55V10.55ZM17.6624 11.44L19.6624 10.55V20.55L17.6624 21.44V11.44ZM23.6624 21.44L21.6624 20.55V10.55L23.6624 11.44V21.44Z" fill="#4764FA"/>
</g>
</svg>
