<svg width="31" height="30" viewBox="0 0 31 30" fill="none" xmlns="http://www.w3.org/2000/svg">
<g id="mi:arrow-right">
<g id="Group">
<path id="Vector" d="M16.0303 6.61598C16.2647 6.38164 16.5826 6.25 16.9141 6.25C17.2455 6.25 17.5634 6.38164 17.7978 6.61598L25.2978 14.116C25.5322 14.3504 25.6638 14.6683 25.6638 14.9997C25.6638 15.3312 25.5322 15.6491 25.2978 15.8835L17.7978 23.3835C17.5621 23.6112 17.2463 23.7372 16.9186 23.7343C16.5908 23.7315 16.2773 23.6 16.0455 23.3683C15.8138 23.1365 15.6823 22.823 15.6795 22.4952C15.6766 22.1675 15.8026 21.8517 16.0303 21.616L21.3966 16.2497H6.91406C6.58254 16.2497 6.2646 16.118 6.03018 15.8836C5.79576 15.6492 5.66406 15.3313 5.66406 14.9997C5.66406 14.6682 5.79576 14.3503 6.03018 14.1159C6.2646 13.8814 6.58254 13.7497 6.91406 13.7497H21.3966L16.0303 8.38348C15.796 8.14907 15.6643 7.83119 15.6643 7.49973C15.6643 7.16828 15.796 6.85039 16.0303 6.61598Z" fill="#1F37F6"/>
</g>
</g>
</svg>
