<svg width="24" height="24" viewBox="0 0 24 24" fill="none" xmlns="http://www.w3.org/2000/svg">
<path d="M20.1671 4H15.6771L14.2301 7.618L16.5551 9.168C16.692 9.25935 16.8043 9.38308 16.8819 9.52822C16.9595 9.67335 17.0001 9.83541 17.0001 10C16.9971 10.094 17.0001 10.001 17.0001 10.001V10.022C16.9995 10.0667 16.9975 10.1114 16.9941 10.156C16.9881 10.238 16.9781 10.349 16.9591 10.486C16.9201 10.756 16.8451 11.128 16.6991 11.566C16.4051 12.446 15.8291 13.585 14.7071 14.707C13.5851 15.829 12.4461 16.405 11.5671 16.699C11.1281 16.845 10.7571 16.919 10.4851 16.959C10.3316 16.9804 10.177 16.9938 10.0221 16.999L10.0091 17H10.0011C10.0011 17 9.88911 16.994 10.0001 17C9.81445 16.9999 9.63248 16.9481 9.47458 16.8504C9.31669 16.7528 9.1891 16.6131 9.10611 16.447L8.43611 15.107L4.00011 15.847V20.167C6.11111 20.472 11.8131 20.773 16.2931 16.293C20.7731 11.813 20.4731 6.11 20.1671 4ZM14.9271 10.486L13.1201 9.282C12.7384 9.02737 12.4558 8.64922 12.3198 8.21096C12.1838 7.77271 12.2026 7.30102 12.3731 6.875L13.8201 3.257C13.9686 2.88591 14.2249 2.56781 14.5559 2.34376C14.8869 2.11971 15.2774 1.99997 15.6771 2H20.2191C21.1281 2 21.9831 2.631 22.1321 3.617C22.4721 5.859 22.9331 12.481 17.7071 17.707C12.4811 22.933 5.85911 22.471 3.61711 22.132C2.63111 21.982 2.00011 21.128 2.00011 20.219V15.847C2.00005 15.3736 2.16795 14.9155 2.47392 14.5542C2.7799 14.1929 3.20412 13.9519 3.67111 13.874L8.10711 13.135C8.52901 13.0646 8.96238 13.1313 9.34359 13.3253C9.7248 13.5193 10.0338 13.8304 10.2251 14.213L10.5711 14.906C10.6935 14.8759 10.8146 14.8408 10.9341 14.801C11.5541 14.595 12.4151 14.171 13.2931 13.293C14.1711 12.415 14.5951 11.554 14.8011 10.933C14.8503 10.7862 14.892 10.637 14.9261 10.486H14.9271Z" fill="#FFFFFF"/>
</svg>
