<svg width="24" height="24" viewBox="2 2 28 28" fill="none" xmlns="http://www.w3.org/2000/svg">
<path fill-rule="evenodd" clip-rule="evenodd" d="M15.2929 8.70711C15.1054 8.51957 15 8.26522 15 8C15 7.73478 15.1054 7.48043 15.2929 7.29289C15.4804 7.10536 15.7348 7 16 7L22 7C22.7956 7 23.5587 7.31607 24.1213 7.87868C24.6839 8.44129 25 9.20435 25 10L25 22C25 22.7956 24.6839 23.5587 24.1213 24.1213C23.5587 24.6839 22.7956 25 22 25L10 25C9.20435 25 8.44129 24.6839 7.87868 24.1213C7.31607 23.5587 7 22.7956 7 22L7 16C7 15.7348 7.10536 15.4804 7.29289 15.2929C7.48043 15.1054 7.73478 15 8 15C8.26522 15 8.51957 15.1054 8.70711 15.2929C8.89464 15.4804 9 15.7348 9 16L9 22C9 22.2652 9.10536 22.5196 9.29289 22.7071C9.48043 22.8946 9.73478 23 10 23L22 23C22.2652 23 22.5196 22.8946 22.7071 22.7071C22.8946 22.5196 23 22.2652 23 22L23 10C23 9.73478 22.8946 9.48043 22.7071 9.29289C22.5196 9.10536 22.2652 9 22 9L16 9C15.7348 9 15.4804 8.89464 15.2929 8.70711ZM9 10.4201L9 12.0001C9 12.2653 8.89464 12.5196 8.70711 12.7072C8.51957 12.8947 8.26522 13.0001 8 13.0001C7.73478 13.0001 7.48043 12.8947 7.29289 12.7072C7.10536 12.5196 7 12.2653 7 12.0001L7 8.00006C7 7.73484 7.10536 7.48049 7.29289 7.29295C7.48043 7.10542 7.73478 7.00006 8 7.00006L12 7.00006C12.2652 7.00006 12.5196 7.10542 12.7071 7.29295C12.8946 7.48049 13 7.73484 13 8.00006C13 8.26528 12.8946 8.51963 12.7071 8.70717C12.5196 8.8947 12.2652 9.00006 12 9.00006L10.42 9.00006L16.7 15.2901C16.7937 15.383 16.8681 15.4936 16.9189 15.6155C16.9697 15.7373 16.9958 15.868 16.9958 16.0001C16.9958 16.1321 16.9697 16.2628 16.9189 16.3846C16.8681 16.5065 16.7937 16.6171 16.7 16.7101C16.607 16.8038 16.4964 16.8782 16.3746 16.929C16.2527 16.9797 16.122 17.0059 15.99 17.0059C15.858 17.0059 15.7273 16.9797 15.6054 16.929C15.4836 16.8782 15.373 16.8038 15.28 16.7101L9 10.4201Z" fill="#1F37F6"/>
</svg>
