<svg width="32" height="32" viewBox="0 0 32 32" fill="none" xmlns="http://www.w3.org/2000/svg">
<mask id="path-1-inside-1_4367_188790" fill="white">
<path fill-rule="evenodd" clip-rule="evenodd" d="M12 13C12 13.5523 11.5523 14 11 14C10.4477 14 10 13.5523 10 13C10 12.4477 10.4477 12 11 12C11.5523 12 12 12.4477 12 13ZM13.8293 12C13.4175 10.8348 12.3062 10 11 10C9.34315 10 8 11.3431 8 13C8 14.6569 9.34315 16 11 16C12.3062 16 13.4175 15.1652 13.8293 14H23C23.5523 14 24 13.5523 24 13C24 12.4477 23.5523 12 23 12H13.8293Z"/>
</mask>
<path fill-rule="evenodd" clip-rule="evenodd" d="M12 13C12 13.5523 11.5523 14 11 14C10.4477 14 10 13.5523 10 13C10 12.4477 10.4477 12 11 12C11.5523 12 12 12.4477 12 13ZM13.8293 12C13.4175 10.8348 12.3062 10 11 10C9.34315 10 8 11.3431 8 13C8 14.6569 9.34315 16 11 16C12.3062 16 13.4175 15.1652 13.8293 14H23C23.5523 14 24 13.5523 24 13C24 12.4477 23.5523 12 23 12H13.8293Z" fill="white"/>
<path d="M13.8293 12L11.9436 12.6665L12.4149 14H13.8293V12ZM13.8293 14V12H12.4149L11.9436 13.3335L13.8293 14ZM11 16C12.6569 16 14 14.6569 14 13H10C10 12.4477 10.4477 12 11 12V16ZM8 13C8 14.6569 9.34315 16 11 16V12C11.5523 12 12 12.4477 12 13H8ZM11 10C9.34315 10 8 11.3431 8 13H12C12 13.5523 11.5523 14 11 14V10ZM14 13C14 11.3431 12.6569 10 11 10V14C10.4477 14 10 13.5523 10 13H14ZM15.715 11.3335C15.0295 9.39422 13.1802 8 11 8V12C11.4323 12 11.8054 12.2754 11.9436 12.6665L15.715 11.3335ZM11 8C8.23858 8 6 10.2386 6 13H10C10 12.4477 10.4477 12 11 12V8ZM6 13C6 15.7614 8.23858 18 11 18V14C10.4477 14 10 13.5523 10 13H6ZM11 18C13.1802 18 15.0295 16.6058 15.715 14.6665L11.9436 13.3335C11.8054 13.7246 11.4323 14 11 14V18ZM23 12H13.8293V16H23V12ZM22 13C22 12.4477 22.4477 12 23 12V16C24.6569 16 26 14.6569 26 13H22ZM23 14C22.4477 14 22 13.5523 22 13H26C26 11.3431 24.6569 10 23 10V14ZM13.8293 14H23V10H13.8293V14Z" fill="white" mask="url(#path-1-inside-1_4367_188790)"/>
<mask id="path-3-inside-2_4367_188790" fill="white">
<path fill-rule="evenodd" clip-rule="evenodd" d="M20 19C20 19.5523 20.4477 20 21 20C21.5523 20 22 19.5523 22 19C22 18.4477 21.5523 18 21 18C20.4477 18 20 18.4477 20 19ZM18.1707 18C18.5825 16.8348 19.6938 16 21 16C22.6569 16 24 17.3431 24 19C24 20.6569 22.6569 22 21 22C19.6938 22 18.5825 21.1652 18.1707 20H9C8.44772 20 8 19.5523 8 19C8 18.4477 8.44771 18 9 18H18.1707Z"/>
</mask>
<path d="M18.1707 18L20.0564 18.6665L19.5851 20H18.1707V18ZM18.1707 20V18H19.5851L20.0564 19.3335L18.1707 20ZM21 22C19.3431 22 18 20.6569 18 19H22C22 18.4477 21.5523 18 21 18V22ZM24 19C24 20.6569 22.6569 22 21 22V18C20.4477 18 20 18.4477 20 19H24ZM21 16C22.6569 16 24 17.3431 24 19H20C20 19.5523 20.4477 20 21 20V16ZM18 19C18 17.3431 19.3431 16 21 16V20C21.5523 20 22 19.5523 22 19H18ZM16.285 17.3335C16.9705 15.3942 18.8198 14 21 14V18C20.5677 18 20.1946 18.2754 20.0564 18.6665L16.285 17.3335ZM21 14C23.7614 14 26 16.2386 26 19H22C22 18.4477 21.5523 18 21 18V14ZM26 19C26 21.7614 23.7614 24 21 24V20C21.5523 20 22 19.5523 22 19H26ZM21 24C18.8198 24 16.9705 22.6058 16.285 20.6665L20.0564 19.3335C20.1946 19.7246 20.5677 20 21 20V24ZM9 18H18.1707V22H9V18ZM10 19C10 18.4477 9.55228 18 9 18V22C7.34315 22 6 20.6569 6 19H10ZM9 20C9.55229 20 10 19.5523 10 19H6C6 17.3431 7.34315 16 9 16V20ZM18.1707 20H9V16H18.1707V20Z" fill="#FBFAF8" mask="url(#path-3-inside-2_4367_188790)"/>
</svg>
