<svg width="33" height="33" viewBox="0 0 33 33" fill="none" xmlns="http://www.w3.org/2000/svg">
<g id="icon">
<path id="Vector" d="M25.6641 15.3613H24.5941C24.3709 13.6013 23.569 11.9654 22.3145 10.7109C21.06 9.45642 19.4241 8.65452 17.6641 8.43133V7.36133C17.6641 7.09611 17.5587 6.84176 17.3712 6.65422C17.1836 6.46668 16.9293 6.36133 16.6641 6.36133C16.3988 6.36133 16.1445 6.46668 15.957 6.65422C15.7694 6.84176 15.6641 7.09611 15.6641 7.36133V8.43133C13.904 8.65452 12.2681 9.45642 11.0136 10.7109C9.75916 11.9654 8.95726 13.6013 8.73406 15.3613H7.66406C7.39885 15.3613 7.14449 15.4667 6.95696 15.6542C6.76942 15.8418 6.66406 16.0961 6.66406 16.3613C6.66406 16.6265 6.76942 16.8809 6.95696 17.0684C7.14449 17.256 7.39885 17.3613 7.66406 17.3613H8.73406C8.95726 19.1213 9.75916 20.7573 11.0136 22.0117C12.2681 23.2662 13.904 24.0681 15.6641 24.2913V25.3613C15.6641 25.6265 15.7694 25.8809 15.957 26.0684C16.1445 26.256 16.3988 26.3613 16.6641 26.3613C16.9293 26.3613 17.1836 26.256 17.3712 26.0684C17.5587 25.8809 17.6641 25.6265 17.6641 25.3613V24.2913C19.4241 24.0681 21.06 23.2662 22.3145 22.0117C23.569 20.7573 24.3709 19.1213 24.5941 17.3613H25.6641C25.9293 17.3613 26.1836 17.256 26.3712 17.0684C26.5587 16.8809 26.6641 16.6265 26.6641 16.3613C26.6641 16.0961 26.5587 15.8418 26.3712 15.6542C26.1836 15.4667 25.9293 15.3613 25.6641 15.3613ZM21.6641 17.3613H22.5741C22.3656 18.5878 21.7812 19.7191 20.9015 20.5988C20.0218 21.4784 18.8905 22.0629 17.6641 22.2713V21.3613C17.6641 21.0961 17.5587 20.8418 17.3712 20.6542C17.1836 20.4667 16.9293 20.3613 16.6641 20.3613C16.3988 20.3613 16.1445 20.4667 15.957 20.6542C15.7694 20.8418 15.6641 21.0961 15.6641 21.3613V22.2713C14.4376 22.0629 13.3063 21.4784 12.4266 20.5988C11.547 19.7191 10.9625 18.5878 10.7541 17.3613H11.6641C11.9293 17.3613 12.1836 17.256 12.3712 17.0684C12.5587 16.8809 12.6641 16.6265 12.6641 16.3613C12.6641 16.0961 12.5587 15.8418 12.3712 15.6542C12.1836 15.4667 11.9293 15.3613 11.6641 15.3613H10.7541C10.9625 14.1349 11.547 13.0035 12.4266 12.1239C13.3063 11.2442 14.4376 10.6597 15.6641 10.4513V11.3613C15.6641 11.6265 15.7694 11.8809 15.957 12.0684C16.1445 12.256 16.3988 12.3613 16.6641 12.3613C16.9293 12.3613 17.1836 12.256 17.3712 12.0684C17.5587 11.8809 17.6641 11.6265 17.6641 11.3613V10.4513C18.8905 10.6597 20.0218 11.2442 20.9015 12.1239C21.7812 13.0035 22.3656 14.1349 22.5741 15.3613H21.6641C21.3988 15.3613 21.1445 15.4667 20.957 15.6542C20.7694 15.8418 20.6641 16.0961 20.6641 16.3613C20.6641 16.6265 20.7694 16.8809 20.957 17.0684C21.1445 17.256 21.3988 17.3613 21.6641 17.3613ZM16.6641 15.3613C16.4663 15.3613 16.2729 15.42 16.1085 15.5299C15.944 15.6397 15.8159 15.7959 15.7402 15.9786C15.6645 16.1614 15.6447 16.3624 15.6833 16.5564C15.7219 16.7504 15.8171 16.9286 15.957 17.0684C16.0968 17.2083 16.275 17.3035 16.469 17.3421C16.663 17.3807 16.864 17.3609 17.0467 17.2852C17.2295 17.2095 17.3857 17.0813 17.4955 16.9169C17.6054 16.7524 17.6641 16.5591 17.6641 16.3613C17.6641 16.0961 17.5587 15.8418 17.3712 15.6542C17.1836 15.4667 16.9293 15.3613 16.6641 15.3613Z" fill="#9DB4FD"/>
</g>
</svg>
