<svg width="12" height="12" viewBox="0 0 12 12" fill="none" xmlns="http://www.w3.org/2000/svg">
<path d="M2.64639 2.64678C2.74016 2.55305 2.86731 2.50039 2.99989 2.50039C3.13248 2.50039 3.25963 2.55305 3.35339 2.64678L5.99989 5.29328L8.64639 2.64678C8.69252 2.59903 8.74769 2.56094 8.80869 2.53473C8.86969 2.50853 8.9353 2.49474 9.00169 2.49416C9.06808 2.49358 9.13392 2.50623 9.19537 2.53137C9.25682 2.55651 9.31264 2.59364 9.35959 2.64059C9.40654 2.68753 9.44366 2.74336 9.4688 2.80481C9.49394 2.86626 9.5066 2.9321 9.50602 2.99849C9.50544 3.06488 9.49165 3.13048 9.46544 3.19149C9.43924 3.25249 9.40115 3.30766 9.35339 3.35378L6.70689 6.00028L9.35339 8.64678C9.44447 8.74109 9.49487 8.86739 9.49373 8.99849C9.49259 9.12958 9.44001 9.25499 9.3473 9.34769C9.2546 9.4404 9.12919 9.49298 8.99809 9.49412C8.867 9.49526 8.74069 9.44486 8.64639 9.35379L5.99989 6.70728L3.35339 9.35379C3.25909 9.44486 3.13279 9.49526 3.00169 9.49412C2.87059 9.49298 2.74519 9.4404 2.65248 9.34769C2.55978 9.25499 2.5072 9.12958 2.50606 8.99849C2.50492 8.86739 2.55531 8.74109 2.64639 8.64678L5.29289 6.00028L2.64639 3.35378C2.55266 3.26002 2.5 3.13287 2.5 3.00028C2.5 2.8677 2.55266 2.74055 2.64639 2.64678Z" fill="#7F99FC"/>
</svg>
