<svg width="17" height="16" viewBox="0 0 17 16" fill="none" xmlns="http://www.w3.org/2000/svg">
<g id="icon-before">
<path id="Vector" d="M8.22656 7.44445C8.67863 7.44445 9.12055 7.31411 9.49644 7.06993C9.87232 6.82575 10.1653 6.47869 10.3383 6.07263C10.5113 5.66657 10.5566 5.21976 10.4684 4.78869C10.3802 4.35762 10.1625 3.96166 9.84281 3.65087C9.52314 3.34009 9.11587 3.12845 8.67248 3.0427C8.2291 2.95696 7.76952 3.00096 7.35186 3.16916C6.9342 3.33735 6.57722 3.62218 6.32606 3.98762C6.0749 4.35307 5.94085 4.78271 5.94085 5.22222C5.94085 5.81159 6.18166 6.37682 6.61032 6.79357C7.03897 7.21032 7.62035 7.44445 8.22656 7.44445ZM11.6551 13C11.8067 13 11.952 12.9415 12.0592 12.8373C12.1664 12.7331 12.2266 12.5918 12.2266 12.4444C12.2266 11.413 11.8051 10.4239 11.055 9.69459C10.3048 8.96528 9.28743 8.55556 8.22656 8.55556C7.1657 8.55556 6.14828 8.96528 5.39814 9.69459C4.64799 10.4239 4.22656 11.413 4.22656 12.4444C4.22656 12.5918 4.28677 12.7331 4.39393 12.8373C4.50109 12.9415 4.64644 13 4.79799 13H11.6551Z" fill="#BBCDFE"/>
</g>
</svg>
