<svg width="32" height="16" viewBox="0 0 32 16" fill="none" xmlns="http://www.w3.org/2000/svg">
<g clip-path="url(#clip0_8199_241692)">
<g clip-path="url(#clip1_8199_241692)">
<path d="M12.887 9.06196C12.961 8.71971 13 8.36441 13 8C13 5.23858 10.7614 3 8 3C5.23858 3 3 5.23858 3 8C3 10.7614 5.23858 13 8 13C8.41346 13 8.8152 12.9498 9.19947 12.8552" stroke="#4764FA" stroke-linecap="round" stroke-linejoin="round"/>
<path d="M10 8C10 5.23858 9.10457 3 8 3C6.89543 3 6 5.23858 6 8C6 10.7614 6.89543 13 8 13C8.36292 13 8.70327 12.7583 8.9967 12.3359" stroke="#4764FA" stroke-linecap="round" stroke-linejoin="round"/>
<path d="M3 8H13" stroke="#4764FA" stroke-linecap="round" stroke-linejoin="round"/>
</g>
<path d="M12.9396 10.9578C13.1866 11.1098 13.1711 11.4793 12.9171 11.5083L11.6336 11.6538L11.0581 12.8098C10.9441 13.0393 10.5916 12.9268 10.5331 12.6428L9.9056 9.58484C9.8561 9.34484 10.0721 9.19384 10.2806 9.32234L12.9396 10.9578Z" stroke="#4764FA" stroke-width="0.75"/>
</g>
<path fill-rule="evenodd" clip-rule="evenodd" d="M23.5 3.5C22.2544 3.5 21.3865 4.01337 20.8232 4.64527C20.2434 5.29577 20 6.0557 20 6.5V8H21C21.3978 8 21.7794 8.15804 22.0607 8.43934C22.342 8.72064 22.5 9.10217 22.5 9.5V10.5C22.5 10.8978 22.342 11.2794 22.0607 11.5607C21.7794 11.842 21.3978 12 21 12H20.5C20.1022 12 19.7206 11.842 19.4393 11.5607C19.158 11.2794 19 10.8978 19 10.5V6.5C19 5.7778 19.3566 4.78773 20.0768 3.97986C20.8135 3.15338 21.9456 2.5 23.5 2.5H24.5C26.0544 2.5 27.1865 3.15338 27.9232 3.97986C28.6434 4.78773 29 5.7778 29 6.5V10.5C29 10.8978 28.842 11.2794 28.5607 11.5607C28.4331 11.6882 28.2849 11.7905 28.1239 11.8641C28.1093 11.8941 28.0915 11.9231 28.0703 11.9506C27.2486 13.0202 25.9549 13.7112 24.5 13.7112C24.2239 13.7112 24 13.4873 24 13.2112C24 12.9351 24.2239 12.7112 24.5 12.7112C25.317 12.7112 26.0686 12.4316 26.6644 11.962C26.392 11.8994 26.1401 11.7615 25.9393 11.5607C25.658 11.2794 25.5 10.8978 25.5 10.5V9.5C25.5 9.10217 25.658 8.72064 25.9393 8.43934C26.2206 8.15804 26.6022 8 27 8H28V6.5C28 6.0557 27.7566 5.29577 27.1768 4.64527C26.6135 4.01337 25.7456 3.5 24.5 3.5H23.5ZM20 10.5V9H21C21.1326 9 21.2598 9.05268 21.3536 9.14645C21.4473 9.24022 21.5 9.36739 21.5 9.5V10.5C21.5 10.6326 21.4473 10.7598 21.3536 10.8536C21.2598 10.9473 21.1326 11 21 11H20.5C20.3674 11 20.2402 10.9473 20.1464 10.8536C20.0527 10.7598 20 10.6326 20 10.5ZM27 9H28V10.5C28 10.6326 27.9473 10.7598 27.8536 10.8536C27.7598 10.9473 27.6326 11 27.5 11H27C26.8674 11 26.7402 10.9473 26.6464 10.8536C26.5527 10.7598 26.5 10.6326 26.5 10.5V9.5C26.5 9.36739 26.5527 9.24022 26.6464 9.14645C26.7402 9.05268 26.8674 9 27 9Z" fill="#4764FA"/>
<defs>
<clipPath id="clip0_8199_241692">
<rect width="12" height="12" fill="white" transform="translate(2 2)"/>
</clipPath>
<clipPath id="clip1_8199_241692">
<rect width="12" height="12" fill="white" transform="translate(2 2)"/>
</clipPath>
</defs>
</svg>
