<svg width="33" height="33" viewBox="0 0 33 33" fill="none" xmlns="http://www.w3.org/2000/svg">
<g id="icon">
<path id="Union" fill-rule="evenodd" clip-rule="evenodd" d="M21.2439 10.3613H19.6639C19.3987 10.3613 19.1444 10.256 18.9568 10.0684C18.7693 9.8809 18.6639 9.62654 18.6639 9.36133C18.6639 9.09611 18.7693 8.84176 18.9568 8.65422C19.1444 8.46668 19.3987 8.36133 19.6639 8.36133H23.6639C23.9292 8.36133 24.1835 8.46668 24.371 8.65422C24.5586 8.84176 24.6639 9.09611 24.6639 9.36133V13.3613C24.6639 13.6265 24.5586 13.8809 24.371 14.0684C24.1835 14.256 23.9292 14.3613 23.6639 14.3613C23.3987 14.3613 23.1444 14.256 22.9568 14.0684C22.7693 13.8809 22.6639 13.6265 22.6639 13.3613V11.7813L19.3739 15.0613C19.281 15.1551 19.1704 15.2295 19.0485 15.2802C18.9267 15.331 18.796 15.3571 18.6639 15.3571C18.5319 15.3571 18.4012 15.331 18.2794 15.2802C18.1575 15.2295 18.0469 15.1551 17.9539 15.0613C17.8602 14.9684 17.7858 14.8578 17.7351 14.7359C17.6843 14.614 17.6581 14.4833 17.6581 14.3513C17.6581 14.2193 17.6843 14.0886 17.7351 13.9668C17.7858 13.8449 17.8602 13.7343 17.9539 13.6413L21.2439 10.3613ZM12.0841 22.3613H13.6641C13.9293 22.3613 14.1836 22.4667 14.3712 22.6542C14.5587 22.8418 14.6641 23.0961 14.6641 23.3613C14.6641 23.6265 14.5587 23.8809 14.3712 24.0684C14.1836 24.256 13.9293 24.3613 13.6641 24.3613H9.66406C9.39885 24.3613 9.14449 24.256 8.95695 24.0684C8.76942 23.8809 8.66406 23.6265 8.66406 23.3613L8.66406 19.3613C8.66406 19.0961 8.76942 18.8418 8.95696 18.6542C9.14449 18.4667 9.39885 18.3613 9.66406 18.3613C9.92928 18.3613 10.1836 18.4667 10.3712 18.6542C10.5587 18.8418 10.6641 19.0961 10.6641 19.3613L10.6641 20.9413L13.9541 17.6613C14.047 17.5676 14.1576 17.4932 14.2795 17.4424C14.4013 17.3917 14.5321 17.3655 14.6641 17.3655C14.7961 17.3655 14.9268 17.3917 15.0486 17.4424C15.1705 17.4932 15.2811 17.5676 15.3741 17.6613C15.4678 17.7543 15.5422 17.8649 15.593 17.9867C15.6437 18.1086 15.6699 18.2393 15.6699 18.3713C15.6699 18.5033 15.6437 18.634 15.593 18.7559C15.5422 18.8778 15.4678 18.9884 15.3741 19.0813L12.0841 22.3613Z" fill="#9DB4FD"/>
</g>
</svg>
