<svg width="22" height="22" viewBox="-2 -2 28 28" fill="none" xmlns="http://www.w3.org/2000/svg">
<path fill-rule="evenodd" clip-rule="evenodd" d="M2.50754 9.62837L9.62837 2.50753C10.3858 1.75012 11.6138 1.75012 12.3712 2.50754L19.492 9.62837C20.2494 10.3858 20.2494 11.6138 19.492 12.3712L12.3712 19.492C11.6138 20.2494 10.3858 20.2494 9.62837 19.492L2.50753 12.3712C1.75012 11.6138 1.75012 10.3858 2.50754 9.62837ZM1.13612 13.7426C-0.378707 12.2278 -0.378705 9.77177 1.13612 8.25695L8.25695 1.13612C9.77178 -0.378708 12.2278 -0.378705 13.7426 1.13612L20.8634 8.25695C22.3783 9.77178 22.3783 12.2278 20.8634 13.7426L13.7426 20.8634C12.2278 22.3783 9.77177 22.3783 8.25695 20.8634L1.13612 13.7426ZM5.99976 9.86704C5.99976 9.6099 6.10188 9.36329 6.28368 9.18143L9.1929 6.27222C9.37579 6.09557 9.62075 5.99783 9.87501 6.00004C10.1293 6.00225 10.3725 6.10423 10.5523 6.28403C10.7321 6.46383 10.8341 6.70705 10.8363 6.96131C10.8385 7.21557 10.7408 7.46053 10.5641 7.64343L9.31024 8.8973H11.7877C11.8391 8.8973 11.89 8.90137 11.94 8.90933H13.0605C13.5749 8.90933 14.0682 9.11367 14.4319 9.47739C14.7957 9.84111 15 10.3344 15 10.8488V14.0303C15 14.2875 14.8978 14.5341 14.716 14.716C14.5341 14.8978 14.2875 15 14.0303 15C13.7731 15 13.5264 14.8978 13.3446 14.716C13.1627 14.5341 13.0605 14.2875 13.0605 14.0303V10.8488H11.121V10.8368L9.31024 10.8368L10.5641 12.0906C10.7408 12.2735 10.8385 12.5185 10.8363 12.7728C10.8341 13.027 10.7321 13.2702 10.5523 13.45C10.3725 13.6298 10.1293 13.7318 9.87501 13.734C9.62075 13.7362 9.37579 13.6385 9.1929 13.4619L6.28368 10.5526C6.10188 10.3708 5.99976 10.1242 5.99976 9.86704Z" fill="#1F37F6"/>
</svg>
