<svg width="12" height="12" viewBox="0 0 12 12" fill="none" xmlns="http://www.w3.org/2000/svg">
<path d="M6 1C8.2 1 10 2.8 10 5C10 7.7 6.5 10.75 6.35 10.9C6.25 10.95 6.1 11 6 11C5.9 11 5.75 10.95 5.65 10.9C5.5 10.75 2 7.7 2 5C2 2.8 3.8 1 6 1ZM6 9.85C7.05 8.85 9 6.7 9 5C9 3.35 7.65 2 6 2C4.35 2 3 3.35 3 5C3 6.65 4.95 8.85 6 9.85ZM6 3C7.1 3 8 3.9 8 5C8 6.1 7.1 7 6 7C4.9 7 4 6.1 4 5C4 3.9 4.9 3 6 3ZM6 6C6.55 6 7 5.55 7 5C7 4.45 6.55 4 6 4C5.45 4 5 4.45 5 5C5 5.55 5.45 6 6 6Z" fill="#333333"/>
<path fill-rule="evenodd" clip-rule="evenodd" d="M6 9.85C7.05 8.85 9 6.7 9 5C9 3.35 7.65 2 6 2C4.35 2 3 3.35 3 5C3 6.65 4.95 8.85 6 9.85ZM8 5C8 3.9 7.1 3 6 3C4.9 3 4 3.9 4 5C4 6.1 4.9 7 6 7C7.1 7 8 6.1 8 5Z" fill="#333333"/>
</svg>
