<svg width="16" height="16" viewBox="0 0 16 16" fill="none" xmlns="http://www.w3.org/2000/svg">
<path d="M8 7.44445C8.45207 7.44445 8.89399 7.31411 9.26987 7.06993C9.64576 6.82575 9.93872 6.47869 10.1117 6.07263C10.2847 5.66657 10.33 5.21976 10.2418 4.78869C10.1536 4.35762 9.93591 3.96166 9.61624 3.65087C9.29658 3.34009 8.88931 3.12845 8.44592 3.0427C8.00254 2.95696 7.54295 3.00096 7.12529 3.16916C6.70764 3.33735 6.35066 3.62218 6.0995 3.98762C5.84834 4.35307 5.71429 4.78271 5.71429 5.22222C5.71429 5.81159 5.9551 6.37682 6.38376 6.79357C6.81241 7.21032 7.39379 7.44445 8 7.44445ZM11.4286 13C11.5801 13 11.7255 12.9415 11.8326 12.8373C11.9398 12.7331 12 12.5918 12 12.4444C12 11.413 11.5786 10.4239 10.8284 9.69459C10.0783 8.96528 9.06087 8.55556 8 8.55556C6.93913 8.55556 5.92172 8.96528 5.17157 9.69459C4.42143 10.4239 4 11.413 4 12.4444C4 12.5918 4.0602 12.7331 4.16737 12.8373C4.27453 12.9415 4.41988 13 4.57143 13H11.4286Z" fill="#BDBDBD"/>
</svg>
