<svg width="32" height="32" viewBox="0 0 32 32" fill="none" xmlns="http://www.w3.org/2000/svg">
<path d="M16 18C15.7348 18 15.4804 17.8946 15.2929 17.7071C15.1054 17.5196 15 17.2652 15 17V14C15 13.7348 15.1054 13.4804 15.2929 13.2929C15.4804 13.1054 15.7348 13 16 13C16.2652 13 16.5196 13.1054 16.7071 13.2929C16.8946 13.4804 17 13.7348 17 14V17C17 17.2652 16.8946 17.5196 16.7071 17.7071C16.5196 17.8946 16.2652 18 16 18ZM14.5 20.5C14.5 20.1022 14.658 19.7206 14.9393 19.4393C15.2206 19.158 15.6022 19 16 19C16.3978 19 16.7794 19.158 17.0607 19.4393C17.342 19.7206 17.5 20.1022 17.5 20.5C17.5 20.8978 17.342 21.2794 17.0607 21.5607C16.7794 21.842 16.3978 22 16 22C15.6022 22 15.2206 21.842 14.9393 21.5607C14.658 21.2794 14.5 20.8978 14.5 20.5Z" fill="#333231"/>
<path d="M14.2317 7.21523C14.9817 5.79023 17.0217 5.79023 17.7717 7.21523L26.1147 23.0672C26.8157 24.3992 25.8517 25.9992 24.3447 25.9992H7.65872C6.15372 25.9992 5.18872 24.3992 5.88872 23.0682L14.2317 7.21523ZM24.3457 23.9992L16.0017 8.14623L7.65772 23.9992H24.3457Z" fill="#333231"/>
</svg>
