<svg width="24" height="24" viewBox="4 4 24 24" fill="none" xmlns="http://www.w3.org/2000/svg">
<mask id="path-1-inside-1_11_1084" fill="white">
<path fill-rule="evenodd" clip-rule="evenodd" d="M8 12C8 11.4477 8.44772 11 9 11H23C23.5523 11 24 11.4477 24 12C24 12.5523 23.5523 13 23 13H9C8.44772 13 8 12.5523 8 12ZM11 16C11 15.4477 11.4477 15 12 15H20C20.5523 15 21 15.4477 21 16C21 16.5523 20.5523 17 20 17H12C11.4477 17 11 16.5523 11 16ZM17 19C17.5523 19 18 19.4477 18 20C18 20.5523 17.5523 21 17 21H15C14.4477 21 14 20.5523 14 20C14 19.4477 14.4477 19 15 19H17Z"/>
</mask>
<path fill-rule="evenodd" clip-rule="evenodd" d="M8 12C8 11.4477 8.44772 11 9 11H23C23.5523 11 24 11.4477 24 12C24 12.5523 23.5523 13 23 13H9C8.44772 13 8 12.5523 8 12ZM11 16C11 15.4477 11.4477 15 12 15H20C20.5523 15 21 15.4477 21 16C21 16.5523 20.5523 17 20 17H12C11.4477 17 11 16.5523 11 16ZM17 19C17.5523 19 18 19.4477 18 20C18 20.5523 17.5523 21 17 21H15C14.4477 21 14 20.5523 14 20C14 19.4477 14.4477 19 15 19H17Z" fill="#828282"/>
<path d="M9 9C7.34315 9 6 10.3431 6 12H10C10 12.5523 9.55228 13 9 13V9ZM23 9H9V13H23V9ZM26 12C26 10.3431 24.6569 9 23 9V13C22.4477 13 22 12.5523 22 12H26ZM23 15C24.6569 15 26 13.6569 26 12H22C22 11.4477 22.4477 11 23 11V15ZM9 15H23V11H9V15ZM6 12C6 13.6569 7.34315 15 9 15V11C9.55228 11 10 11.4477 10 12H6ZM12 13C10.3431 13 9 14.3431 9 16H13C13 16.5523 12.5523 17 12 17V13ZM20 13H12V17H20V13ZM23 16C23 14.3431 21.6569 13 20 13V17C19.4477 17 19 16.5523 19 16H23ZM20 19C21.6569 19 23 17.6569 23 16H19C19 15.4477 19.4477 15 20 15V19ZM12 19H20V15H12V19ZM9 16C9 17.6569 10.3431 19 12 19V15C12.5523 15 13 15.4477 13 16H9ZM20 20C20 18.3431 18.6569 17 17 17V21C16.4477 21 16 20.5523 16 20H20ZM17 23C18.6569 23 20 21.6569 20 20H16C16 19.4477 16.4477 19 17 19V23ZM15 23H17V19H15V23ZM12 20C12 21.6569 13.3431 23 15 23V19C15.5523 19 16 19.4477 16 20H12ZM15 17C13.3431 17 12 18.3431 12 20H16C16 20.5523 15.5523 21 15 21V17ZM17 17H15V21H17V17Z" fill="#828282" mask="url(#path-1-inside-1_11_1084)"/>
</svg>
