<svg width="8" height="10" viewBox="0 0 8 10" fill="none" xmlns="http://www.w3.org/2000/svg">
<path d="M4 4.44445C4.45207 4.44445 4.89399 4.31411 5.26987 4.06993C5.64576 3.82575 5.93872 3.47869 6.11173 3.07263C6.28473 2.66657 6.32999 2.21976 6.2418 1.78869C6.1536 1.35762 5.93591 0.961658 5.61624 0.650875C5.29658 0.340091 4.88931 0.128445 4.44592 0.0427004C4.00254 -0.0430446 3.54295 0.000962847 3.12529 0.169158C2.70764 0.337352 2.35066 0.62218 2.0995 0.987623C1.84834 1.35307 1.71429 1.78271 1.71429 2.22222C1.71429 2.81159 1.9551 3.37682 2.38376 3.79357C2.81241 4.21032 3.39379 4.44445 4 4.44445ZM7.42857 10C7.58012 10 7.72547 9.94147 7.83263 9.83728C7.9398 9.7331 8 9.59179 8 9.44444C8 8.41305 7.57857 7.42389 6.82843 6.69459C6.07828 5.96528 5.06087 5.55556 4 5.55556C2.93913 5.55556 1.92172 5.96528 1.17157 6.69459C0.421427 7.42389 1.58081e-08 8.41305 0 9.44444C0 9.59179 0.060204 9.7331 0.167368 9.83728C0.274531 9.94147 0.419876 10 0.571429 10H7.42857Z" fill="#BDBDBD"/>
</svg>
