<svg width="24" height="24" viewBox="0 0 24 24" fill="none" xmlns="http://www.w3.org/2000/svg">
<path d="M6 2C7.27578 1.99965 8.5274 2.34796 9.6196 3.0073C10.7118 3.66664 11.603 4.61192 12.197 5.741C12.7971 4.89308 13.5919 4.20158 14.5147 3.72461C15.4374 3.24764 16.4612 2.99914 17.5 3H21V5.5C21 7.22391 20.3152 8.87721 19.0962 10.0962C17.8772 11.3152 16.2239 12 14.5 12H13V13H18V20C18 20.5304 17.7893 21.0391 17.4142 21.4142C17.0391 21.7893 16.5304 22 16 22H8C7.46957 22 6.96086 21.7893 6.58579 21.4142C6.21071 21.0391 6 20.5304 6 20V13H11V11H9C7.14348 11 5.36301 10.2625 4.05025 8.94975C2.7375 7.63699 2 5.85652 2 4V2H6ZM16 15H8V20H16V15ZM19 5H17.5C16.3065 5 15.1619 5.47411 14.318 6.31802C13.4741 7.16193 13 8.30653 13 9.5V10H14.5C15.0909 10 15.6761 9.88361 16.2221 9.65746C16.768 9.43131 17.2641 9.09984 17.682 8.68198C18.0998 8.26412 18.4313 7.76804 18.6575 7.22208C18.8836 6.67611 19 6.09095 19 5.5V5ZM6 4H4C4 5.32608 4.52678 6.59785 5.46447 7.53553C6.40215 8.47322 7.67392 9 9 9H11C11 7.67392 10.4732 6.40215 9.53553 5.46447C8.59785 4.52678 7.32608 4 6 4Z" fill="#27AE60"/>
</svg>
