<svg width="32" height="32" viewBox="0 0 32 32" fill="none" xmlns="http://www.w3.org/2000/svg">
<path d="M12.8254 14.6204C12.6157 14.4407 12.3001 14.4649 12.1204 14.6746C11.9407 14.8843 11.9649 15.1999 12.1746 15.3796L12.8254 14.6204ZM19.8254 15.3796C20.0351 15.1999 20.0593 14.8843 19.8796 14.6746C19.6999 14.4649 19.3843 14.4407 19.1746 14.6204L19.8254 15.3796ZM16 18L15.6746 18.3796C15.8618 18.5401 16.1382 18.5401 16.3254 18.3796L16 18ZM12.1746 15.3796L15.6746 18.3796L16.3254 17.6204L12.8254 14.6204L12.1746 15.3796ZM16.3254 18.3796L19.8254 15.3796L19.1746 14.6204L15.6746 17.6204L16.3254 18.3796Z" fill="#333333"/>
</svg>
