<svg width="24" height="24" viewBox="0 0 24 24" fill="none" xmlns="http://www.w3.org/2000/svg">
<path d="M7.46902 7.05979C7.46906 6.79463 7.57441 6.54034 7.76191 6.35284C7.94941 6.16534 8.2037 6.05998 8.46887 6.05994L16.9541 6.05994C17.2193 6.05998 17.4736 6.16534 17.6611 6.35284C17.8486 6.54034 17.954 6.79463 17.954 7.05979V15.5451C17.9494 15.8072 17.8421 16.0571 17.6551 16.2409C17.4681 16.4247 17.2164 16.5277 16.9541 16.5277C16.6919 16.5277 16.4402 16.4247 16.2532 16.2409C16.0662 16.0571 15.9589 15.8072 15.9543 15.5451L15.9543 9.47385L7.76176 17.6664C7.57422 17.8539 7.31987 17.9593 7.05465 17.9593C6.78944 17.9593 6.53508 17.8539 6.34755 17.6664C6.16001 17.4789 6.05465 17.2245 6.05465 16.9593C6.05465 16.6941 6.16001 16.4397 6.34755 16.2522L14.5401 8.05964H8.46887C8.2037 8.0596 7.94941 7.95425 7.76191 7.76675C7.57441 7.57925 7.46906 7.32496 7.46902 7.05979Z" fill="#BDBDBD"/>
</svg>
