<svg width="16" height="16" viewBox="0 0 16 16" fill="none" xmlns="http://www.w3.org/2000/svg">
<rect width="16" height="16" rx="8" fill="#F1EEEA"/>
<path d="M4.64652 4.64654C4.74028 4.55281 4.86743 4.50015 5.00002 4.50015C5.1326 4.50015 5.25975 4.55281 5.35352 4.64654L8.00002 7.29304L10.6465 4.64654C10.6926 4.59879 10.7478 4.56069 10.8088 4.53449C10.8698 4.50829 10.9354 4.49449 11.0018 4.49392C11.0682 4.49334 11.134 4.50599 11.1955 4.53113C11.2569 4.55627 11.3128 4.5934 11.3597 4.64034C11.4067 4.68729 11.4438 4.74312 11.4689 4.80456C11.4941 4.86601 11.5067 4.93185 11.5061 4.99824C11.5056 5.06463 11.4918 5.13024 11.4656 5.19124C11.4394 5.25224 11.4013 5.30742 11.3535 5.35354L8.70702 8.00004L11.3535 10.6465C11.4446 10.7408 11.495 10.8671 11.4939 10.9982C11.4927 11.1293 11.4401 11.2547 11.3474 11.3474C11.2547 11.4402 11.1293 11.4927 10.9982 11.4939C10.8671 11.495 10.7408 11.4446 10.6465 11.3535L8.00002 8.70704L5.35352 11.3535C5.25921 11.4446 5.13291 11.495 5.00181 11.4939C4.87072 11.4927 4.74531 11.4402 4.65261 11.3474C4.5599 11.2547 4.50732 11.1293 4.50618 10.9982C4.50504 10.8671 4.55544 10.7408 4.64652 10.6465L7.29302 8.00004L4.64652 5.35354C4.55278 5.25978 4.50012 5.13262 4.50012 5.00004C4.50012 4.86746 4.55278 4.7403 4.64652 4.64654Z" fill="#767573"/>
</svg>
