<svg width="32" height="32" viewBox="0 0 32 32" fill="none" xmlns="http://www.w3.org/2000/svg">
<path fill-rule="evenodd" clip-rule="evenodd" d="M8 12C8 11.4477 8.44772 11 9 11H23C23.5523 11 24 11.4477 24 12C24 12.5523 23.5523 13 23 13H9C8.44772 13 8 12.5523 8 12ZM11 16C11 15.4477 11.4477 15 12 15H20C20.5523 15 21 15.4477 21 16C21 16.5523 20.5523 17 20 17H12C11.4477 17 11 16.5523 11 16ZM17 19C17.5523 19 18 19.4477 18 20C18 20.5523 17.5523 21 17 21H15C14.4477 21 14 20.5523 14 20C14 19.4477 14.4477 19 15 19H17Z" fill="#333333"/>
</svg>
