<svg width="24" height="24" viewBox="0 0 24 24" fill="none" xmlns="http://www.w3.org/2000/svg">
<path d="M16.293 2.29279C16.4805 2.10532 16.7348 2 17 2C17.2652 2 17.5195 2.10532 17.707 2.29279L21.707 6.29279C21.8945 6.48031 21.9998 6.73462 21.9998 6.99979C21.9998 7.26495 21.8945 7.51926 21.707 7.70679L8.707 20.7068C8.51951 20.8943 8.26519 20.9997 8 20.9998H4C3.73478 20.9998 3.48043 20.8944 3.29289 20.7069C3.10536 20.5194 3 20.265 3 19.9998V15.9998C3.00006 15.7346 3.10545 15.4803 3.293 15.2928L13.293 5.29279L16.293 2.29279ZM14 7.41379L5 16.4138V18.9998H7.586L16.586 9.99979L14 7.41379ZM18 8.58579L19.586 6.99979L17 4.41379L15.414 5.99979L18 8.58579Z" fill="#333333"/>
</svg>
