<svg width="16" height="16" viewBox="0 0 16 16" fill="none" xmlns="http://www.w3.org/2000/svg">
<path fill-rule="evenodd" clip-rule="evenodd" d="M8 15.5625C12.1767 15.5625 15.5625 12.1767 15.5625 8C15.5625 3.82335 12.1767 0.4375 8 0.4375C3.82335 0.4375 0.4375 3.82335 0.4375 8C0.4375 12.1767 3.82335 15.5625 8 15.5625ZM4.61182 3.63715L11.6644 6.96621C11.7197 6.99073 11.766 7.03193 11.7968 7.08407C11.8277 7.13621 11.8415 7.1967 11.8365 7.25711C11.8314 7.31752 11.8077 7.37486 11.7686 7.42115C11.7295 7.46744 11.677 7.50037 11.6184 7.51536L9.05236 8.08177L11.4713 10.8766C11.5207 10.9356 11.5449 11.0118 11.5384 11.0885C11.532 11.1653 11.4956 11.2364 11.437 11.2863L10.6988 11.9121C10.64 11.9617 10.564 11.9859 10.4874 11.9795C10.4108 11.9731 10.3399 11.9366 10.2901 11.8779L7.86346 9.07069L6.87103 11.5478C6.84804 11.6039 6.80817 11.6515 6.75696 11.6839C6.70574 11.7162 6.64574 11.7318 6.58532 11.7283C6.52489 11.7249 6.46706 11.7026 6.41986 11.6646C6.37267 11.6267 6.33848 11.5749 6.32205 11.5165L4.20682 3.97777C4.19214 3.92398 4.19316 3.86708 4.20976 3.81384C4.22636 3.7606 4.25785 3.71324 4.30048 3.67738C4.34311 3.64153 4.39511 3.61868 4.45029 3.61155C4.50547 3.60442 4.56153 3.61331 4.61182 3.63715Z" fill="#9DC364"/>
</svg>
