<svg width="58" height="38" viewBox="0 0 58 38" fill="none" xmlns="http://www.w3.org/2000/svg">
<path d="M41.7239 16.9453H44.6839L47.8239 7.96531V6.60531H41.8439V4.34531H39.1039V9.30531H44.5239L41.7239 16.5253V16.9453ZM51.1505 17.0853C55.6305 17.0853 57.2705 14.8453 57.2705 11.5453C57.2705 8.24531 55.7505 6.60531 52.3105 6.60531H48.9305V9.22531H51.9105C53.8305 9.22531 54.5505 10.0253 54.5505 11.6653C54.5505 13.2653 53.8305 14.3653 51.1105 14.3653C50.1905 14.3653 49.4905 14.3253 48.8505 14.2053L48.8305 16.9253C49.4905 17.0453 50.2305 17.0853 51.1505 17.0853ZM11.8245 33.0853C14.3045 33.0853 15.4645 31.8853 15.4645 29.1853V25.3053H19.0645V32.9453H21.7845V22.6053H11.1045V25.3053H12.7445V28.7253C12.7445 29.6453 12.5445 30.3653 11.4645 30.3653C11.2445 30.3653 10.9645 30.3453 10.7445 30.3053L10.6445 33.0053C11.0045 33.0653 11.2445 33.0853 11.8245 33.0853ZM24.8422 32.9453H27.5622V22.6053H23.3422V25.3053H24.8422V32.9453ZM34.3034 26.8053V32.9453H37.0234V26.8053C37.0234 23.5853 35.9834 22.6053 32.8234 22.6053H29.1234V25.3053H32.8234C33.9234 25.3053 34.3034 25.6453 34.3034 26.8053ZM39.9589 29.4253H42.6589V22.6053H38.4789V25.3053H39.9589V29.4253ZM49.3834 33.0853C55.2434 33.1253 56.6034 29.8853 57.0834 24.8653L57.2834 22.6053H54.5634L54.3834 24.4653C54.0434 28.3053 53.5234 30.4253 49.6434 30.4253C49.0834 30.4253 48.4834 30.3853 47.9434 30.2853L47.8034 28.8853C50.6034 28.5053 51.7634 27.5253 52.0634 24.4453L52.2234 22.6053H49.5034L49.3834 24.5853C49.3034 25.9853 48.7834 26.6653 47.5434 26.8053L47.0834 22.6053H44.3634L45.5634 32.9253C46.9834 33.0453 48.2634 33.0853 49.3834 33.0853Z" fill="#333333"/>
</svg>
