<svg width="57" height="35" viewBox="0 0 57 35" fill="none" xmlns="http://www.w3.org/2000/svg">
<path d="M37.4689 16H41.0209L44.7889 5.224V3.592H37.6129V0.879999H34.3249V6.832H40.8289L37.4689 15.496V16ZM48.7808 16.168C54.1568 16.168 56.1248 13.48 56.1248 9.52C56.1248 5.56 54.3008 3.592 50.1728 3.592H46.1168V6.736H49.6928C51.9968 6.736 52.8608 7.696 52.8608 9.664C52.8608 11.584 51.9968 12.904 48.7328 12.904C47.6288 12.904 46.7888 12.856 46.0208 12.712L45.9968 15.976C46.7888 16.12 47.6768 16.168 48.7808 16.168ZM1.58963 34.168C4.56563 34.168 5.95763 32.728 5.95763 29.488V24.832H10.2776V34H13.5416V21.592H0.725625V24.832H2.69363V28.936C2.69363 30.04 2.45363 30.904 1.15763 30.904C0.893625 30.904 0.557625 30.88 0.293625 30.832L0.173625 34.072C0.605625 34.144 0.893625 34.168 1.58963 34.168ZM17.2108 34H20.4748V21.592H15.4108V24.832H17.2108V34ZM28.5643 26.632V34H31.8283V26.632C31.8283 22.768 30.5803 21.592 26.7883 21.592H22.3483V24.832H26.7883C28.1083 24.832 28.5643 25.24 28.5643 26.632ZM35.3509 29.776H38.5909V21.592H33.5749V24.832H35.3509V29.776ZM46.6603 34.168C53.6923 34.216 55.3243 30.328 55.9003 24.304L56.1403 21.592H52.8763L52.6603 23.824C52.2523 28.432 51.6283 30.976 46.9723 30.976C46.3003 30.976 45.5803 30.928 44.9323 30.808L44.7643 29.128C48.1243 28.672 49.5163 27.496 49.8763 23.8L50.0683 21.592H46.8043L46.6603 23.968C46.5643 25.648 45.9403 26.464 44.4523 26.632L43.9003 21.592H40.6363L42.0763 33.976C43.7803 34.12 45.3163 34.168 46.6603 34.168Z" fill="#333333"/>
</svg>
