<svg width="58" height="36" viewBox="0 0 58 36" fill="none" xmlns="http://www.w3.org/2000/svg">
<path d="M41.7239 16.0537H44.6839L47.8239 7.07371V5.71371H41.8439V3.45371H39.1039V8.41371H44.5239L41.7239 15.6337V16.0537ZM51.1505 16.1937C55.6305 16.1937 57.2705 13.9537 57.2705 10.6537C57.2705 7.35371 55.7505 5.71371 52.3105 5.71371H48.9305V8.33371H51.9105C53.8305 8.33371 54.5505 9.13371 54.5505 10.7737C54.5505 12.3737 53.8305 13.4737 51.1105 13.4737C50.1905 13.4737 49.4905 13.4337 48.8505 13.3137L48.8305 16.0337C49.4905 16.1537 50.2305 16.1937 51.1505 16.1937ZM11.8245 32.1937C14.3045 32.1937 15.4645 30.9937 15.4645 28.2937V24.4137H19.0645V32.0537H21.7845V21.7137H11.1045V24.4137H12.7445V27.8337C12.7445 28.7537 12.5445 29.4737 11.4645 29.4737C11.2445 29.4737 10.9645 29.4537 10.7445 29.4137L10.6445 32.1137C11.0045 32.1737 11.2445 32.1937 11.8245 32.1937ZM24.8422 32.0537H27.5622V21.7137H23.3422V24.4137H24.8422V32.0537ZM34.3034 25.9137V32.0537H37.0234V25.9137C37.0234 22.6937 35.9834 21.7137 32.8234 21.7137H29.1234V24.4137H32.8234C33.9234 24.4137 34.3034 24.7537 34.3034 25.9137ZM39.9589 28.5337H42.6589V21.7137H38.4789V24.4137H39.9589V28.5337ZM49.3834 32.1937C55.2434 32.2337 56.6034 28.9937 57.0834 23.9737L57.2834 21.7137H54.5634L54.3834 23.5737C54.0434 27.4137 53.5234 29.5337 49.6434 29.5337C49.0834 29.5337 48.4834 29.4937 47.9434 29.3937L47.8034 27.9937C50.6034 27.6137 51.7634 26.6337 52.0634 23.5537L52.2234 21.7137H49.5034L49.3834 23.6937C49.3034 25.0937 48.7834 25.7737 47.5434 25.9137L47.0834 21.7137H44.3634L45.5634 32.0337C46.9834 32.1537 48.2634 32.1937 49.3834 32.1937Z" fill="#FFFFFF"/>
</svg>
