<svg width="24" height="24" viewBox="0 0 24 24" fill="none" xmlns="http://www.w3.org/2000/svg">
<path d="M16.642 8.25267C16.84 8.42885 16.96 8.67642 16.9755 8.94099C16.9911 9.20556 16.901 9.46549 16.725 9.66367L11.392 15.6637C11.2982 15.7692 11.1831 15.8538 11.0542 15.9116C10.9254 15.9695 10.7858 15.9994 10.6445 15.9994C10.5033 15.9994 10.3636 15.9695 10.2348 15.9116C10.106 15.8538 9.99084 15.7692 9.89702 15.6637L7.23102 12.6637C7.06514 12.4641 6.98331 12.2079 7.00284 11.9492C7.02236 11.6904 7.1417 11.4494 7.33564 11.277C7.52958 11.1046 7.78294 11.0143 8.0422 11.0253C8.30145 11.0362 8.5463 11.1475 8.72502 11.3357L10.645 13.4947L15.231 8.33467C15.4073 8.13683 15.655 8.01706 15.9195 8.00169C16.1841 7.98631 16.444 8.07658 16.642 8.25267Z" fill="#333333"/>
<rect x="3" y="3" width="18" height="18" rx="3" stroke="#333333" stroke-width="2"/>
</svg>
