<svg width="25" height="24" viewBox="0 0 25 24" fill="none" xmlns="http://www.w3.org/2000/svg">
<path d="M4.33301 4H8.82301L10.27 7.618L7.94501 9.168C7.8081 9.25935 7.69584 9.38308 7.61822 9.52822C7.54059 9.67335 7.49999 9.83541 7.50001 10C7.50301 10.094 7.50001 10.001 7.50001 10.001V10.022C7.5006 10.0667 7.5026 10.1114 7.50601 10.156C7.51201 10.238 7.52201 10.349 7.54101 10.486C7.58001 10.756 7.65501 11.128 7.80101 11.566C8.09501 12.446 8.67101 13.585 9.79301 14.707C10.915 15.829 12.054 16.405 12.933 16.699C13.372 16.845 13.743 16.919 14.015 16.959C14.1685 16.9804 14.3231 16.9938 14.478 16.999L14.491 17H14.499C14.499 17 14.611 16.994 14.5 17C14.6857 16.9999 14.8676 16.9481 15.0255 16.8504C15.1834 16.7528 15.311 16.6131 15.394 16.447L16.064 15.107L20.5 15.847V20.167C18.389 20.472 12.687 20.773 8.20701 16.293C3.72701 11.813 4.02701 6.11 4.33301 4ZM9.57301 10.486L11.38 9.282C11.7618 9.02737 12.0443 8.64922 12.1803 8.21096C12.3163 7.77271 12.2975 7.30102 12.127 6.875L10.68 3.257C10.5315 2.88591 10.2752 2.56781 9.94425 2.34376C9.61325 2.11971 9.22271 1.99997 8.82301 2H4.28101C3.37201 2 2.51701 2.631 2.36801 3.617C2.02801 5.859 1.56701 12.481 6.79301 17.707C12.019 22.933 18.641 22.471 20.883 22.132C21.869 21.982 22.5 21.128 22.5 20.219V15.847C22.5001 15.3736 22.3322 14.9155 22.0262 14.5542C21.7202 14.1929 21.296 13.9519 20.829 13.874L16.393 13.135C15.9711 13.0646 15.5377 13.1313 15.1565 13.3253C14.7753 13.5193 14.4664 13.8304 14.275 14.213L13.929 14.906C13.8067 14.8759 13.6856 14.8408 13.566 14.801C12.946 14.595 12.085 14.171 11.207 13.293C10.329 12.415 9.90501 11.554 9.69901 10.933C9.64982 10.7862 9.6081 10.637 9.57401 10.486H9.57301Z" fill="#2F80ED"/>
</svg>
