<svg width="24" height="24" viewBox="0 0 24 24" fill="none" xmlns="http://www.w3.org/2000/svg">
<path fill-rule="evenodd" clip-rule="evenodd" d="M19.8591 1.03919C19.6168 0.990726 19.3614 1.03955 19.1546 1.15445C18.9497 1.26827 18.7652 1.46362 18.7082 1.73112L18.2976 3.2823L17.5975 2.05712C17.5319 1.93131 17.4227 1.83288 17.3223 1.76259C17.2144 1.68706 17.0882 1.62424 16.9618 1.58209C16.6487 1.47773 16.3422 1.57951 16.1399 1.77004C15.3552 2.34685 14.8603 3.13433 14.58 4.04509L11.7775 14.3211L11.7771 14.3227C11.4906 15.3969 11.6331 16.6105 12.205 17.613C12.6029 18.341 13.2337 18.8762 13.9157 19.279L13.2415 21.7308L13.2394 21.7412C13.191 21.9835 13.2398 22.2389 13.3547 22.4457C13.4699 22.6532 13.6687 22.8397 13.9414 22.8942L13.9705 22.9H14.2003C14.6102 22.9 14.9659 22.6063 15.1352 22.2675L15.1479 22.2421L15.8273 19.8334H16.0003C16.7273 19.8334 17.4408 19.6157 18.1346 19.2688L18.1491 19.2605C19.1503 18.6884 19.8685 17.757 20.1564 16.6786L20.1568 16.6773L22.2895 8.9465L22.2913 8.93946C22.3361 8.76022 22.3391 8.56784 22.2765 8.38016C22.2135 8.19105 22.0905 8.02546 21.9139 7.89299L21.9 7.88375C21.7596 7.79018 21.5817 7.72455 21.4041 7.70235C21.2331 7.68097 21.0228 7.69559 20.8434 7.81085L18.8252 8.97127L18.9881 8.40118L22.6904 6.32268L22.7 6.31631C22.953 6.14761 23.1669 5.86541 23.1669 5.53336V5.52088L23.1659 5.50845C23.0965 4.67598 22.8876 3.83367 22.4636 3.05637L22.2003 3.20001L22.4607 3.05119C21.8884 2.04959 20.9565 1.3312 19.8776 1.04349L19.8684 1.04105L19.8591 1.03919ZM21.0247 4.90036L19.5347 5.77681L20.1812 3.35231C20.3818 3.52804 20.5688 3.76221 20.7402 4.01754C20.8941 4.32847 20.9952 4.62086 21.0247 4.90036ZM16.422 4.61578L16.1336 4.53336L16.4278 4.5922C16.4509 4.47628 16.4834 4.3698 16.526 4.2681L17.4784 5.97244L16.7697 8.55428L15.79 6.82808L16.422 4.61578ZM14.4193 17.3289C14.212 17.1623 14.0255 16.9392 13.8616 16.6528C13.56 16.109 13.4489 15.46 13.621 14.8863L15.0988 9.44809L16.079 11.175L15.1773 14.5884L14.4193 17.3289ZM17.6675 12.9232L17.9923 11.6648L19.733 10.6769L19.4082 11.9352L17.6675 12.9232ZM18.6364 14.5605L18.1796 16.1138C17.9965 16.7235 17.6399 17.2448 17.0661 17.5317L17.0494 17.5401L17.0338 17.5504C16.8093 17.7001 16.5527 17.7775 16.2709 17.8114L16.9217 15.5337L18.6364 14.5605ZM5.46666 8.16666C4.57267 8.16666 3.68933 8.70876 3.0424 9.67473C2.39373 10.6433 1.96666 12.0551 1.96666 13.8667C1.96666 15.6685 2.3903 17.2404 3.13317 18.5184C2.67852 18.8323 2.1751 19.1002 1.62191 19.3215C1.1082 19.5269 0.937769 20.1189 1.12145 20.5781C1.32694 21.0918 1.91887 21.2622 2.37808 21.0785L2.3782 21.0788L2.39081 21.0731C3.04849 20.7742 3.71536 20.4185 4.29311 20.0043C6.0938 21.9422 8.75338 22.9 11.3333 22.9C11.5539 22.9 11.7928 22.866 11.9754 22.7138C12.1711 22.5507 12.2333 22.3126 12.2333 22.0667C12.2333 21.7985 12.1426 21.5517 11.9621 21.3712C11.7816 21.1907 11.5348 21.1 11.2667 21.1C9.15923 21.1 7.06972 20.3262 5.66773 18.8012C7.20867 17.0177 7.9 14.6631 7.9 11.6C7.9 10.3875 7.6055 9.52823 7.13912 8.96666C6.66968 8.40142 6.04924 8.16666 5.46666 8.16666ZM3.9 13.8C3.9 12.4068 4.19177 11.4451 4.54258 10.8426C4.71821 10.541 4.90611 10.3335 5.07567 10.2042C5.24869 10.0722 5.38622 10.0333 5.46666 10.0333C5.57046 10.0333 5.70528 10.0994 5.83023 10.3562C5.95385 10.6103 6.03333 10.9945 6.03333 11.4667C6.03333 13.8721 5.53728 15.6852 4.57964 16.9924C4.14373 16.1111 3.9 15.0349 3.9 13.8Z" fill="#4764FA"/>
</svg>
