<svg width="24" height="24" viewBox="0 0 24 24" fill="none" xmlns="http://www.w3.org/2000/svg">
<path d="M16.293 2.293C16.4805 2.10553 16.7348 2.00021 17 2.00021C17.2652 2.00021 17.5195 2.10553 17.707 2.293L21.707 6.293C21.8945 6.48053 21.9998 6.73484 21.9998 7C21.9998 7.26516 21.8945 7.51947 21.707 7.707L8.707 20.707C8.51951 20.8946 8.26519 20.9999 8 21H4C3.73478 21 3.48043 20.8946 3.29289 20.7071C3.10536 20.5196 3 20.2652 3 20V16C3.00006 15.7348 3.10545 15.4805 3.293 15.293L13.293 5.293L16.293 2.293ZM14 7.414L5 16.414V19H7.586L16.586 10L14 7.414ZM18 8.586L19.586 7L17 4.414L15.414 6L18 8.586Z" fill="#333333"/>
</svg>
