<svg width="24" height="24" viewBox="0 0 24 24" fill="none" xmlns="http://www.w3.org/2000/svg">
<path d="M14.707 5.29303C14.8945 5.48056 14.9998 5.73487 14.9998 6.00003C14.9998 6.26519 14.8945 6.5195 14.707 6.70703L9.41403 12L14.707 17.293C14.8892 17.4816 14.99 17.7342 14.9877 17.9964C14.9854 18.2586 14.8803 18.5094 14.6948 18.6948C14.5094 18.8803 14.2586 18.9854 13.9964 18.9877C13.7342 18.99 13.4816 18.8892 13.293 18.707L7.29303 12.707C7.10556 12.5195 7.00024 12.2652 7.00024 12C7.00024 11.7349 7.10556 11.4806 7.29303 11.293L13.293 5.29303C13.4806 5.10556 13.7349 5.00024 14 5.00024C14.2652 5.00024 14.5195 5.10556 14.707 5.29303Z" fill="#BDBDBD"/>
</svg>
