<svg width="24" height="24" viewBox="0 0 24 24" fill="none" xmlns="http://www.w3.org/2000/svg">
<path d="M11.707 18.707C11.5195 18.8944 11.2652 18.9998 11 18.9998C10.7348 18.9998 10.4805 18.8944 10.293 18.707L4.293 12.707C4.10553 12.5194 4.00021 12.2651 4.00021 12C4.00021 11.7348 4.10553 11.4805 4.293 11.293L10.293 5.29297C10.4816 5.11081 10.7342 5.01002 10.9964 5.01229C11.2586 5.01457 11.5094 5.11974 11.6948 5.30515C11.8802 5.49056 11.9854 5.74137 11.9877 6.00357C11.99 6.26576 11.8892 6.51837 11.707 6.70697L7.414 11L19 11C19.2652 11 19.5196 11.1053 19.7071 11.2929C19.8946 11.4804 20 11.7348 20 12C20 12.2652 19.8946 12.5195 19.7071 12.7071C19.5196 12.8946 19.2652 13 19 13L7.414 13L11.707 17.293C11.8945 17.4805 11.9998 17.7348 11.9998 18C11.9998 18.2651 11.8945 18.5194 11.707 18.707Z" fill="#828282"/>
</svg>
