<svg width="58" height="36" viewBox="0 0 58 36" fill="none" xmlns="http://www.w3.org/2000/svg">
<path d="M38.4689 16H42.0209L45.7889 5.224V3.592H38.6129V0.879999H35.3249V6.832H41.8289L38.4689 15.496V16ZM49.7808 16.168C55.1568 16.168 57.1248 13.48 57.1248 9.52C57.1248 5.56 55.3008 3.592 51.1728 3.592H47.1168V6.736H50.6928C52.9968 6.736 53.8608 7.696 53.8608 9.664C53.8608 11.584 52.9968 12.904 49.7328 12.904C48.6288 12.904 47.7888 12.856 47.0208 12.712L46.9968 15.976C47.7888 16.12 48.6768 16.168 49.7808 16.168ZM2.58963 34.168C5.56563 34.168 6.95763 32.728 6.95763 29.488V24.832H11.2776V34H14.5416V21.592H1.72563V24.832H3.69363V28.936C3.69363 30.04 3.45363 30.904 2.15763 30.904C1.89363 30.904 1.55762 30.88 1.29363 30.832L1.17363 34.072C1.60563 34.144 1.89363 34.168 2.58963 34.168ZM18.2108 34H21.4748V21.592H16.4108V24.832H18.2108V34ZM29.5643 26.632V34H32.8283V26.632C32.8283 22.768 31.5803 21.592 27.7883 21.592H23.3483V24.832H27.7883C29.1083 24.832 29.5643 25.24 29.5643 26.632ZM36.3509 29.776H39.5909V21.592H34.5749V24.832H36.3509V29.776ZM47.6603 34.168C54.6923 34.216 56.3243 30.328 56.9003 24.304L57.1403 21.592H53.8763L53.6603 23.824C53.2523 28.432 52.6283 30.976 47.9723 30.976C47.3003 30.976 46.5803 30.928 45.9323 30.808L45.7643 29.128C49.1243 28.672 50.5163 27.496 50.8763 23.8L51.0683 21.592H47.8043L47.6603 23.968C47.5643 25.648 46.9403 26.464 45.4523 26.632L44.9003 21.592H41.6363L43.0763 33.976C44.7803 34.12 46.3163 34.168 47.6603 34.168Z" fill="#333333"/>
<rect y="3" width="32" height="14" rx="4" fill="#07B2EA"/>
<path d="M3.30271 14H6.85171C8.86671 14 9.43871 12.986 9.43871 11.842C9.43871 10.685 8.65871 10.152 8.09971 9.983C8.61971 9.749 9.08771 9.242 9.08771 8.345C9.08771 7.032 8.09971 6.356 6.69571 6.356H3.30271V14ZM5.07071 12.401V10.685H6.65671C7.35871 10.685 7.68371 11.088 7.68371 11.53C7.68371 12.011 7.42371 12.401 6.63071 12.401H5.07071ZM5.07071 9.385V7.955H6.40971C7.11171 7.955 7.37171 8.254 7.37171 8.657C7.37171 9.06 7.13771 9.385 6.44871 9.385H5.07071ZM10.5263 14H16.0383V12.388L12.2943 12.401V10.815H15.5183V9.385H12.2943V7.942H15.8823V6.343H10.5263V14ZM18.6232 14H20.3912V7.955H22.5102V6.356H16.5302V7.955H18.6232V14ZM21.8099 14H23.6949L24.1759 12.492H26.9969L27.4909 14H29.3499V13.818L26.6199 6.356H24.4619L21.8099 13.818V14ZM24.5919 11.049L25.5409 8.033L26.5549 11.049H24.5919Z" fill="white"/>
</svg>
